<?xml version="1.0" encoding="UTF-8"?>
<!-- Generator: visioncortex VTracer 0.6.4 -->
<svg version="1.1" xmlns="http://www.w3.org/2000/svg" width="796" height="840">
<path d="M0 0 C0.71 -0 1.42 -0 2.15 -0.01 C3.66 -0.01 5.16 -0 6.66 0 C8.9 0.02 11.15 0.01 13.39 -0.01 C22.93 -0.02 32.07 0.73 41.5 2.27 C42.31 2.4 43.13 2.53 43.96 2.66 C45.9 2.99 47.82 3.35 49.75 3.7 C54.35 4.55 58.94 5.34 63.56 6.02 C64.4 6.14 65.25 6.27 66.12 6.4 C67.74 6.64 69.37 6.87 71 7.09 C77.13 7.99 82.53 9.19 86.94 13.83 C88.5 16.27 88.5 16.27 88.5 18.27 C89.16 18.27 89.82 18.27 90.5 18.27 C90.5 18.93 90.5 19.59 90.5 20.27 C91.16 20.27 91.82 20.27 92.5 20.27 C94.5 23.27 94.5 23.27 94.5 26.27 C95.16 26.27 95.82 26.27 96.5 26.27 C96.5 26.93 96.5 27.59 96.5 28.27 C97.16 28.27 97.82 28.27 98.5 28.27 C99.16 30.25 99.82 32.23 100.5 34.27 C101.16 34.27 101.82 34.27 102.5 34.27 C104.5 37.27 104.5 37.27 104.5 40.27 C105.16 40.27 105.82 40.27 106.5 40.27 C106.83 41.26 107.16 42.25 107.5 43.27 C109.14 44.47 109.14 44.47 111.18 45.46 C111.93 45.84 112.67 46.23 113.44 46.63 C114.62 47.22 114.62 47.22 115.82 47.83 C116.59 48.23 117.36 48.63 118.16 49.04 C121.59 50.81 125.05 52.54 128.5 54.27 C128.5 54.93 128.5 55.59 128.5 56.27 C129.02 56.36 129.53 56.45 130.06 56.55 C133.44 57.54 136.45 59.16 139.57 60.77 C146.69 64.39 153.88 67.84 161.12 71.21 C165.05 73.05 168.79 74.99 172.5 77.27 C174.7 77.96 174.7 77.96 176.5 78.27 C176.5 78.93 176.5 79.59 176.5 80.27 C177.18 80.37 177.87 80.47 178.57 80.58 C182.13 81.41 185.17 82.76 188.5 84.27 C188.5 85.26 188.5 86.25 188.5 87.27 C176.69 91.96 164.81 96.37 152.78 100.49 C150.78 101.17 148.78 101.87 146.79 102.57 C135.94 106.31 124.9 109.3 113.85 112.34 C110.48 113.27 107.12 114.22 103.76 115.16 C102.66 115.47 101.56 115.78 100.42 116.1 C98.34 116.69 96.26 117.28 94.18 117.87 C93.22 118.14 92.26 118.41 91.27 118.69 C90.33 118.95 89.39 119.22 88.42 119.49 C86.38 120.03 84.33 120.52 82.27 120.97 C74.54 122.6 74.54 122.6 68.82 127.83 C68.19 128.61 67.57 129.4 66.93 130.21 C65.48 132.2 65.48 132.2 64.5 134.27 C63.84 134.27 63.18 134.27 62.5 134.27 C62.5 134.93 62.5 135.59 62.5 136.27 C61.84 136.27 61.18 136.27 60.5 136.27 C60.13 137.07 60.13 137.07 59.75 137.89 C58.21 140.83 56.37 143.52 54.5 146.27 C53.84 146.27 53.18 146.27 52.5 146.27 C52.5 146.93 52.5 147.59 52.5 148.27 C51.84 148.27 51.18 148.27 50.5 148.27 C50.5 148.93 50.5 149.59 50.5 150.27 C49.84 150.27 49.18 150.27 48.5 150.27 C48.19 150.88 47.89 151.5 47.57 152.14 C46.88 153.52 46.19 154.89 45.5 156.27 C43.48 166.51 43.22 176.62 43.27 187.02 C43.27 188.61 43.28 190.2 43.27 191.8 C43.28 195.12 43.28 198.45 43.3 201.77 C43.31 205.94 43.32 210.11 43.32 214.28 C43.32 230.35 43.47 246.39 44.12 262.45 C44.85 281.87 44.86 301.32 45.04 320.76 C45.09 326.36 45.14 331.96 45.2 337.56 C45.3 348.46 45.41 359.36 45.5 370.27 C48.16 367.61 49.51 364.47 51.13 361.14 C51.62 360.15 51.62 360.15 52.11 359.14 C52.91 357.52 53.71 355.89 54.5 354.27 C55.16 354.27 55.82 354.27 56.5 354.27 C56.63 353.68 56.75 353.1 56.88 352.5 C57.51 350.25 58.34 348.54 59.5 346.52 C59.89 345.82 60.29 345.13 60.69 344.42 C61.11 343.71 61.52 343 61.94 342.27 C62.75 340.85 63.56 339.43 64.38 338.02 C64.74 337.39 65.1 336.77 65.47 336.12 C66.54 334.2 67.53 332.24 68.5 330.27 C69.16 330.27 69.82 330.27 70.5 330.27 C70.88 329.03 70.88 329.03 71.25 327.77 C72.69 323.74 74.53 320.05 76.5 316.27 C77.16 316.27 77.82 316.27 78.5 316.27 C78.61 315.73 78.71 315.19 78.82 314.64 C79.68 311.64 81.06 309.03 82.5 306.27 C83.16 306.27 83.82 306.27 84.5 306.27 C84.62 305.71 84.73 305.16 84.84 304.59 C85.62 301.86 86.77 299.54 88.07 297.02 C88.52 296.12 88.98 295.23 89.45 294.31 C89.79 293.64 90.14 292.96 90.5 292.27 C91.16 292.27 91.82 292.27 92.5 292.27 C92.61 291.73 92.71 291.19 92.82 290.64 C93.68 287.64 95.06 285.03 96.5 282.27 C97.16 282.27 97.82 282.27 98.5 282.27 C98.61 281.73 98.71 281.19 98.82 280.64 C99.68 277.64 101.06 275.03 102.5 272.27 C103.16 272.27 103.82 272.27 104.5 272.27 C104.62 271.71 104.73 271.16 104.84 270.59 C105.62 267.86 106.77 265.54 108.07 263.02 C108.52 262.12 108.98 261.23 109.45 260.31 C109.79 259.64 110.14 258.96 110.5 258.27 C111.16 258.27 111.82 258.27 112.5 258.27 C112.61 257.73 112.71 257.19 112.82 256.64 C113.68 253.64 115.06 251.03 116.5 248.27 C117.16 248.27 117.82 248.27 118.5 248.27 C118.61 247.73 118.71 247.19 118.82 246.64 C119.68 243.64 121.06 241.03 122.5 238.27 C123.16 238.27 123.82 238.27 124.5 238.27 C124.61 237.73 124.71 237.19 124.82 236.64 C125.68 233.64 127.06 231.03 128.5 228.27 C129.16 228.27 129.82 228.27 130.5 228.27 C130.61 227.73 130.71 227.19 130.82 226.64 C131.68 223.64 133.06 221.03 134.5 218.27 C135.16 218.27 135.82 218.27 136.5 218.27 C136.61 217.73 136.71 217.19 136.82 216.64 C137.68 213.64 139.06 211.03 140.5 208.27 C141.16 208.27 141.82 208.27 142.5 208.27 C142.5 206.95 142.5 205.63 142.5 204.27 C143.16 204.27 143.82 204.27 144.5 204.27 C144.75 203.65 145 203.03 145.25 202.39 C146.71 199.91 147.88 199.31 150.5 198.27 C150.5 197.61 150.5 196.95 150.5 196.27 C151.16 196.27 151.82 196.27 152.5 196.27 C152.5 195.61 152.5 194.95 152.5 194.27 C153.16 194.27 153.82 194.27 154.5 194.27 C154.5 193.61 154.5 192.95 154.5 192.27 C160.25 188.27 160.25 188.27 162.5 188.27 C162.5 187.61 162.5 186.95 162.5 186.27 C180.94 174.48 180.94 174.48 188.5 171.27 C189.23 170.95 189.95 170.63 190.7 170.3 C214.28 161.59 249.93 171.78 273.2 178.61 C276.35 179.51 279.53 180.18 282.73 180.84 C284.5 181.27 284.5 181.27 286.5 182.27 C286.5 182.93 286.5 183.59 286.5 184.27 C287.16 184.27 287.82 184.27 288.5 184.27 C288.5 184.93 288.5 185.59 288.5 186.27 C289.16 186.27 289.82 186.27 290.5 186.27 C290.5 186.93 290.5 187.59 290.5 188.27 C291.16 188.27 291.82 188.27 292.5 188.27 C292.5 188.93 292.5 189.59 292.5 190.27 C293.16 190.27 293.82 190.27 294.5 190.27 C298.5 196.02 298.5 196.02 298.5 198.27 C299.16 198.27 299.82 198.27 300.5 198.27 C300.5 198.93 300.5 199.59 300.5 200.27 C301.16 200.27 301.82 200.27 302.5 200.27 C303.51 202.22 304.51 204.18 305.5 206.14 C306.34 207.78 306.34 207.78 307.19 209.45 C308.5 212.27 308.5 212.27 308.5 214.27 C309.16 214.27 309.82 214.27 310.5 214.27 C310.5 214.93 310.5 215.59 310.5 216.27 C311.27 216.55 312.03 216.84 312.82 217.14 C315.5 218.27 315.5 218.27 318.5 220.27 C318.5 220.93 318.5 221.59 318.5 222.27 C319.27 222.55 320.03 222.84 320.82 223.14 C323.5 224.27 323.5 224.27 326.5 226.27 C326.5 226.93 326.5 227.59 326.5 228.27 C327.27 228.55 328.03 228.84 328.82 229.14 C331.5 230.27 331.5 230.27 334.5 232.27 C334.5 232.93 334.5 233.59 334.5 234.27 C336.48 234.93 338.46 235.59 340.5 236.27 C340.5 236.93 340.5 237.59 340.5 238.27 C341.16 238.27 341.82 238.27 342.5 238.27 C342.5 238.93 342.5 239.59 342.5 240.27 C343.43 240.48 343.43 240.48 344.38 240.7 C346.5 241.27 346.5 241.27 348.5 242.27 C348.5 242.93 348.5 243.59 348.5 244.27 C349.16 244.27 349.82 244.27 350.5 244.27 C350.5 244.93 350.5 245.59 350.5 246.27 C351.43 246.48 351.43 246.48 352.38 246.7 C354.5 247.27 354.5 247.27 356.5 248.27 C356.5 248.93 356.5 249.59 356.5 250.27 C357.27 250.55 358.03 250.84 358.82 251.14 C361.5 252.27 361.5 252.27 364.5 254.27 C364.5 254.93 364.5 255.59 364.5 256.27 C365.27 256.55 366.03 256.84 366.82 257.14 C369.5 258.27 369.5 258.27 372.5 260.27 C372.5 260.93 372.5 261.59 372.5 262.27 C373.49 262.27 374.48 262.27 375.5 262.27 C375.5 263.59 375.5 264.91 375.5 266.27 C350.71 273.61 325.92 279.6 300.46 284.18 C294.88 285.18 289.36 286.35 283.83 287.59 C279.65 288.44 275.46 289.1 271.25 289.77 C264.82 290.79 258.67 292.11 252.5 294.27 C251.31 294.66 250.11 295.05 248.88 295.45 C248.1 295.72 247.31 295.99 246.5 296.27 C246.5 296.93 246.5 297.59 246.5 298.27 C243.5 300.27 243.5 300.27 240.5 300.27 C240.5 300.93 240.5 301.59 240.5 302.27 C239.84 302.27 239.18 302.27 238.5 302.27 C238.5 302.93 238.5 303.59 238.5 304.27 C236.52 304.93 234.54 305.59 232.5 306.27 C232.5 306.93 232.5 307.59 232.5 308.27 C226.75 312.27 226.75 312.27 224.5 312.27 C224.5 312.93 224.5 313.59 224.5 314.27 C218.75 318.27 218.75 318.27 216.5 318.27 C216.5 318.93 216.5 319.59 216.5 320.27 C215.6 320.74 214.69 321.21 213.76 321.7 C209.46 324.57 208.2 328.64 206.44 333.33 C205.76 335.04 205.08 336.76 204.39 338.48 C204.07 339.3 203.75 340.13 203.42 340.98 C202.27 343.85 201 346.65 199.69 349.45 C197.75 353.66 196.07 357.9 194.5 362.27 C193.84 362.27 193.18 362.27 192.5 362.27 C192.41 363.09 192.31 363.91 192.21 364.75 C191.37 368.93 189.92 372.55 188.25 376.45 C187.94 377.21 187.62 377.96 187.29 378.74 C185.23 383.65 183.05 388.5 180.82 393.33 C178.8 397.84 176.96 402.42 175.09 407 C173.44 411.05 171.72 415.05 169.88 419.02 C167.6 423.94 165.68 428.96 163.77 434.04 C162.17 438.12 160.33 442.07 158.42 446.02 C157.31 448.32 157.31 448.32 157.5 451.27 C158.19 450.76 158.88 450.25 159.59 449.73 C160.49 449.08 161.39 448.44 162.32 447.77 C163.21 447.12 164.1 446.47 165.02 445.8 C167.5 444.27 167.5 444.27 170.5 444.27 C170.5 443.61 170.5 442.95 170.5 442.27 C172.13 441.26 173.75 440.26 175.38 439.27 C176.74 438.43 176.74 438.43 178.12 437.58 C180.5 436.27 180.5 436.27 182.5 436.27 C182.5 435.61 182.5 434.95 182.5 434.27 C184.48 433.61 186.46 432.95 188.5 432.27 C188.5 431.61 188.5 430.95 188.5 430.27 C190.48 429.61 192.46 428.95 194.5 428.27 C194.5 427.61 194.5 426.95 194.5 426.27 C196.48 425.61 198.46 424.95 200.5 424.27 C200.5 423.61 200.5 422.95 200.5 422.27 C202.48 421.61 204.46 420.95 206.5 420.27 C206.5 419.61 206.5 418.95 206.5 418.27 C208.48 417.61 210.46 416.95 212.5 416.27 C212.5 415.61 212.5 414.95 212.5 414.27 C219.13 410.27 219.13 410.27 222.5 410.27 C222.5 409.61 222.5 408.95 222.5 408.27 C225.5 406.27 225.5 406.27 228.5 406.27 C228.5 405.61 228.5 404.95 228.5 404.27 C230.48 403.61 232.46 402.95 234.5 402.27 C234.5 401.61 234.5 400.95 234.5 400.27 C236.48 399.61 238.46 398.95 240.5 398.27 C240.5 397.61 240.5 396.95 240.5 396.27 C242.48 395.61 244.46 394.95 246.5 394.27 C246.5 393.61 246.5 392.95 246.5 392.27 C253.13 388.27 253.13 388.27 256.5 388.27 C256.5 387.61 256.5 386.95 256.5 386.27 C259.5 384.27 259.5 384.27 262.5 384.27 C262.5 383.61 262.5 382.95 262.5 382.27 C269.13 378.27 269.13 378.27 272.5 378.27 C272.5 377.61 272.5 376.95 272.5 376.27 C275.5 374.27 275.5 374.27 278.5 374.27 C278.5 373.61 278.5 372.95 278.5 372.27 C280.48 371.61 282.46 370.95 284.5 370.27 C284.5 369.61 284.5 368.95 284.5 368.27 C285.11 367.94 285.71 367.61 286.33 367.28 C287.13 366.84 287.93 366.4 288.75 365.95 C289.54 365.52 290.33 365.09 291.14 364.65 C293.53 363.32 293.53 363.32 295.61 361.6 C297.5 360.27 297.5 360.27 300.5 360.27 C300.5 359.61 300.5 358.95 300.5 358.27 C302.48 357.61 304.46 356.95 306.5 356.27 C306.5 355.61 306.5 354.95 306.5 354.27 C308.48 353.61 310.46 352.95 312.5 352.27 C311.91 359.69 310.75 366.9 309.32 374.2 C309.1 375.32 308.88 376.44 308.66 377.59 C304.37 399.3 299.48 420.85 293.43 442.13 C291.75 448.16 290.35 454.22 289 460.33 C287.39 467.63 285.57 474.79 283.38 481.93 C281.74 487.34 280.34 492.78 279 498.27 C277.31 505.18 275.44 512.01 273.38 518.83 C271.74 524.31 270.35 529.83 269 535.39 C267.25 542.6 265.17 549.53 262.74 556.54 C261.43 560.48 260.33 564.44 259.25 568.45 C254.37 586.51 248.21 604.21 242.25 621.94 C239.87 629.07 237.67 636.23 235.6 643.46 C233.98 649.09 232.24 654.68 230.5 660.27 C229.84 660.27 229.18 660.27 228.5 660.27 C228.5 660.93 228.5 661.59 228.5 662.27 C227.84 662.27 227.18 662.27 226.5 662.27 C226.5 662.93 226.5 663.59 226.5 664.27 C225.9 664.59 225.3 664.92 224.68 665.25 C223.48 665.91 223.48 665.91 222.25 666.58 C221.47 667.01 220.68 667.44 219.86 667.88 C217.48 669.21 217.48 669.21 215.39 670.93 C213.5 672.27 213.5 672.27 210.5 672.27 C210.5 672.93 210.5 673.59 210.5 674.27 C208.52 674.93 206.54 675.59 204.5 676.27 C204.5 676.93 204.5 677.59 204.5 678.27 C202.52 678.93 200.54 679.59 198.5 680.27 C198.5 680.93 198.5 681.59 198.5 682.27 C196.52 682.93 194.54 683.59 192.5 684.27 C192.5 684.93 192.5 685.59 192.5 686.27 C190.52 686.93 188.54 687.59 186.5 688.27 C186.5 688.93 186.5 689.59 186.5 690.27 C184.52 690.93 182.54 691.59 180.5 692.27 C180.5 692.93 180.5 693.59 180.5 694.27 C178.52 694.93 176.54 695.59 174.5 696.27 C174.5 696.93 174.5 697.59 174.5 698.27 C172.52 698.93 170.54 699.59 168.5 700.27 C168.5 700.93 168.5 701.59 168.5 702.27 C166.52 702.93 164.54 703.59 162.5 704.27 C162.5 704.93 162.5 705.59 162.5 706.27 C156.75 710.27 156.75 710.27 154.5 710.27 C154.5 710.93 154.5 711.59 154.5 712.27 C152.52 712.93 150.54 713.59 148.5 714.27 C148.5 714.93 148.5 715.59 148.5 716.27 C146.52 716.93 144.54 717.59 142.5 718.27 C142.5 718.93 142.5 719.59 142.5 720.27 C140.52 720.93 138.54 721.59 136.5 722.27 C136.5 722.93 136.5 723.59 136.5 724.27 C130.75 728.27 130.75 728.27 128.5 728.27 C128.5 728.93 128.5 729.59 128.5 730.27 C126.52 730.93 124.54 731.59 122.5 732.27 C122.5 732.93 122.5 733.59 122.5 734.27 C119.5 736.27 119.5 736.27 116.5 736.27 C116.5 736.93 116.5 737.59 116.5 738.27 C115.84 738.27 115.18 738.27 114.5 738.27 C114.5 738.93 114.5 739.59 114.5 740.27 C112.52 740.93 110.54 741.59 108.5 742.27 C108.5 742.93 108.5 743.59 108.5 744.27 C105.5 746.27 105.5 746.27 102.5 746.27 C102.5 746.93 102.5 747.59 102.5 748.27 C99.5 750.27 99.5 750.27 96.5 750.27 C96.5 750.93 96.5 751.59 96.5 752.27 C95.84 752.27 95.18 752.27 94.5 752.27 C94.5 752.93 94.5 753.59 94.5 754.27 C91.5 756.27 91.5 756.27 88.5 756.27 C88.5 756.93 88.5 757.59 88.5 758.27 C87.84 758.27 87.18 758.27 86.5 758.27 C86.5 758.93 86.5 759.59 86.5 760.27 C84.52 760.93 82.54 761.59 80.5 762.27 C80.5 762.93 80.5 763.59 80.5 764.27 C78.55 765.6 76.59 766.94 74.63 768.27 C73.54 769.01 72.45 769.75 71.32 770.52 C68.5 772.27 68.5 772.27 66.5 772.27 C66.5 772.93 66.5 773.59 66.5 774.27 C60.75 778.27 60.75 778.27 58.5 778.27 C58.5 778.93 58.5 779.59 58.5 780.27 C52.75 784.27 52.75 784.27 50.5 784.27 C50.5 784.93 50.5 785.59 50.5 786.27 C48.52 786.93 46.54 787.59 44.5 788.27 C44.5 788.93 44.5 789.59 44.5 790.27 C38.75 794.27 38.75 794.27 36.5 794.27 C36.5 794.93 36.5 795.59 36.5 796.27 C34.52 796.93 32.54 797.59 30.5 798.27 C30.5 798.93 30.5 799.59 30.5 800.27 C29.84 800.27 29.18 800.27 28.5 800.27 C28.5 800.93 28.5 801.59 28.5 802.27 C26.52 802.93 24.54 803.59 22.5 804.27 C22.5 804.93 22.5 805.59 22.5 806.27 C16.75 810.27 16.75 810.27 14.5 810.27 C14.5 810.93 14.5 811.59 14.5 812.27 C8.75 816.27 8.75 816.27 6.5 816.27 C6.5 816.93 6.5 817.59 6.5 818.27 C4.52 818.93 2.54 819.59 0.5 820.27 C0.5 820.93 0.5 821.59 0.5 822.27 C-0.16 822.27 -0.82 822.27 -1.5 822.27 C-1.5 822.93 -1.5 823.59 -1.5 824.27 C-3.48 824.93 -5.46 825.59 -7.5 826.27 C-7.5 826.93 -7.5 827.59 -7.5 828.27 C-19.5 836.27 -19.5 836.27 -21.87 836.08 C-24.75 835.19 -26.99 833.91 -29.5 832.27 C-29.5 831.61 -29.5 830.95 -29.5 830.27 C-30.26 829.98 -31.02 829.69 -31.81 829.39 C-34.5 828.27 -34.5 828.27 -37.5 826.27 C-37.5 825.61 -37.5 824.95 -37.5 824.27 C-39.48 823.61 -41.46 822.95 -43.5 822.27 C-43.5 821.61 -43.5 820.95 -43.5 820.27 C-44.22 820 -44.95 819.73 -45.7 819.46 C-48.5 818.26 -50.8 816.86 -53.31 815.14 C-54.1 814.6 -54.89 814.06 -55.7 813.51 C-56.59 812.89 -56.59 812.89 -57.5 812.27 C-57.5 811.61 -57.5 810.95 -57.5 810.27 C-58.22 810 -58.95 809.73 -59.7 809.46 C-62.5 808.26 -64.8 806.86 -67.31 805.14 C-68.1 804.6 -68.89 804.06 -69.7 803.51 C-70.59 802.89 -70.59 802.89 -71.5 802.27 C-71.5 801.61 -71.5 800.95 -71.5 800.27 C-72.26 799.98 -73.02 799.69 -73.81 799.39 C-76.5 798.27 -76.5 798.27 -79.5 796.27 C-79.5 795.61 -79.5 794.95 -79.5 794.27 C-81.48 793.61 -83.46 792.95 -85.5 792.27 C-85.5 791.61 -85.5 790.95 -85.5 790.27 C-86.26 789.98 -87.02 789.69 -87.81 789.39 C-90.5 788.27 -90.5 788.27 -93.5 786.27 C-93.5 785.61 -93.5 784.95 -93.5 784.27 C-95.48 783.61 -97.46 782.95 -99.5 782.27 C-99.5 781.61 -99.5 780.95 -99.5 780.27 C-100.16 780.27 -100.82 780.27 -101.5 780.27 C-101.5 779.61 -101.5 778.95 -101.5 778.27 C-103.48 777.61 -105.46 776.95 -107.5 776.27 C-107.5 775.61 -107.5 774.95 -107.5 774.27 C-108.16 774.27 -108.82 774.27 -109.5 774.27 C-109.5 773.61 -109.5 772.95 -109.5 772.27 C-110.11 772.12 -110.73 771.98 -111.37 771.83 C-113.5 771.27 -113.5 771.27 -115.5 770.27 C-115.5 769.61 -115.5 768.95 -115.5 768.27 C-116.11 768.12 -116.73 767.98 -117.37 767.83 C-119.5 767.27 -119.5 767.27 -121.5 766.27 C-121.5 765.61 -121.5 764.95 -121.5 764.27 C-122.26 763.98 -123.02 763.69 -123.81 763.39 C-126.5 762.27 -126.5 762.27 -129.5 760.27 C-129.5 759.61 -129.5 758.95 -129.5 758.27 C-130.11 758.12 -130.73 757.98 -131.37 757.83 C-133.5 757.27 -133.5 757.27 -135.5 756.27 C-135.5 755.61 -135.5 754.95 -135.5 754.27 C-137.48 753.61 -139.46 752.95 -141.5 752.27 C-141.5 751.61 -141.5 750.95 -141.5 750.27 C-142.16 750.27 -142.82 750.27 -143.5 750.27 C-143.5 749.61 -143.5 748.95 -143.5 748.27 C-144.11 748.12 -144.73 747.98 -145.37 747.83 C-147.5 747.27 -147.5 747.27 -149.5 746.27 C-149.5 745.61 -149.5 744.95 -149.5 744.27 C-151.48 743.61 -153.46 742.95 -155.5 742.27 C-155.5 741.61 -155.5 740.95 -155.5 740.27 C-156.26 739.98 -157.02 739.69 -157.81 739.39 C-160.5 738.27 -160.5 738.27 -163.5 736.27 C-163.5 735.61 -163.5 734.95 -163.5 734.27 C-165.48 733.61 -167.46 732.95 -169.5 732.27 C-169.5 731.61 -169.5 730.95 -169.5 730.27 C-170.26 729.98 -171.02 729.69 -171.81 729.39 C-174.5 728.27 -174.5 728.27 -177.5 726.27 C-177.5 725.61 -177.5 724.95 -177.5 724.27 C-179.48 723.61 -181.46 722.95 -183.5 722.27 C-183.5 721.61 -183.5 720.95 -183.5 720.27 C-184.22 720 -184.95 719.73 -185.7 719.46 C-188.5 718.26 -190.8 716.86 -193.31 715.14 C-194.49 714.33 -194.49 714.33 -195.7 713.51 C-196.59 712.89 -196.59 712.89 -197.5 712.27 C-197.5 711.61 -197.5 710.95 -197.5 710.27 C-198.22 710 -198.94 709.74 -199.68 709.47 C-202.59 708.23 -204.95 706.76 -207.56 704.98 C-208.61 704.26 -209.66 703.55 -210.75 702.82 C-211.34 702.41 -211.93 702.01 -212.54 701.6 C-216.36 699 -220.21 696.44 -224.06 693.87 C-225.78 692.72 -227.5 691.57 -229.22 690.42 C-230.52 689.55 -230.52 689.55 -231.84 688.66 C-233.63 687.47 -235.41 686.28 -237.19 685.09 C-239.79 683.34 -242.39 681.61 -245 679.87 C-245.79 679.33 -246.59 678.8 -247.4 678.25 C-248.15 677.76 -248.89 677.26 -249.65 676.75 C-250.3 676.32 -250.95 675.89 -251.62 675.44 C-253.52 674.25 -255.47 673.24 -257.5 672.27 C-257.5 671.61 -257.5 670.95 -257.5 670.27 C-259.48 669.61 -261.46 668.95 -263.5 668.27 C-263.5 667.61 -263.5 666.95 -263.5 666.27 C-264.03 666.18 -264.57 666.1 -265.12 666.02 C-268.67 664.9 -270.69 663.78 -273.5 661.27 C-274.52 658.6 -275.17 656 -275.76 653.21 C-276.44 650.15 -276.44 650.15 -277.92 646.94 C-279.93 642.26 -281.24 637.49 -282.6 632.58 C-283.58 629.15 -284.62 625.85 -286.06 622.57 C-287.33 619.65 -288.23 616.91 -289 613.83 C-289.97 609.94 -291.24 606.28 -292.67 602.54 C-294.26 598.16 -295.54 593.67 -296.87 589.2 C-298.81 582.75 -300.78 576.32 -303 569.95 C-305.66 562.12 -307.73 554.15 -309.84 546.16 C-311.62 539.44 -313.51 532.78 -315.56 526.14 C-318.11 517.85 -320.25 509.49 -322.31 501.07 C-324.02 494.11 -325.86 487.2 -327.81 480.3 C-329.24 475.23 -330.56 470.13 -331.81 465.01 C-332.53 462.14 -333.32 459.3 -334.12 456.45 C-334.98 453.35 -335.7 450.34 -336.12 447.14 C-336.18 444.37 -336.18 444.37 -337.5 443.27 C-337.97 441.09 -338.4 438.9 -338.81 436.7 C-339.86 431.24 -341.05 425.84 -342.43 420.45 C-344.12 413.9 -345.62 407.31 -347.06 400.7 C-347.98 396.51 -348.97 392.35 -350.06 388.2 C-351.66 381.96 -352.72 375.64 -353.8 369.28 C-354.49 365.21 -355.34 361.18 -356.26 357.15 C-356.5 355.27 -356.5 355.27 -355.5 352.27 C-354.84 352.27 -354.18 352.27 -353.5 352.27 C-353.5 352.93 -353.5 353.59 -353.5 354.27 C-352.96 354.37 -352.42 354.47 -351.87 354.58 C-348.87 355.45 -346.26 356.82 -343.5 358.27 C-343.5 358.93 -343.5 359.59 -343.5 360.27 C-341.52 360.93 -339.54 361.59 -337.5 362.27 C-337.5 362.93 -337.5 363.59 -337.5 364.27 C-335.52 364.93 -333.54 365.59 -331.5 366.27 C-331.5 366.93 -331.5 367.59 -331.5 368.27 C-330.88 368.41 -330.26 368.55 -329.62 368.7 C-327.5 369.27 -327.5 369.27 -325.5 370.27 C-325.5 370.93 -325.5 371.59 -325.5 372.27 C-324.96 372.37 -324.42 372.47 -323.87 372.58 C-320.87 373.45 -318.26 374.82 -315.5 376.27 C-315.5 376.93 -315.5 377.59 -315.5 378.27 C-313.52 378.93 -311.54 379.59 -309.5 380.27 C-309.5 380.93 -309.5 381.59 -309.5 382.27 C-308.88 382.41 -308.26 382.55 -307.62 382.7 C-305.5 383.27 -305.5 383.27 -303.5 384.27 C-303.5 384.93 -303.5 385.59 -303.5 386.27 C-302.96 386.37 -302.42 386.47 -301.87 386.58 C-298.87 387.45 -296.26 388.82 -293.5 390.27 C-293.5 390.93 -293.5 391.59 -293.5 392.27 C-291.52 392.93 -289.54 393.59 -287.5 394.27 C-287.5 394.93 -287.5 395.59 -287.5 396.27 C-286.88 396.41 -286.26 396.55 -285.62 396.7 C-283.5 397.27 -283.5 397.27 -281.5 398.27 C-281.5 398.93 -281.5 399.59 -281.5 400.27 C-280.88 400.41 -280.26 400.55 -279.62 400.7 C-277.5 401.27 -277.5 401.27 -275.5 402.27 C-275.5 402.93 -275.5 403.59 -275.5 404.27 C-274.96 404.37 -274.42 404.47 -273.87 404.58 C-270.87 405.45 -268.26 406.82 -265.5 408.27 C-265.5 408.93 -265.5 409.59 -265.5 410.27 C-263.52 410.93 -261.54 411.59 -259.5 412.27 C-259.5 412.93 -259.5 413.59 -259.5 414.27 C-257.52 414.93 -255.54 415.59 -253.5 416.27 C-253.5 416.93 -253.5 417.59 -253.5 418.27 C-251.52 418.93 -249.54 419.59 -247.5 420.27 C-247.5 420.93 -247.5 421.59 -247.5 422.27 C-245.52 422.93 -243.54 423.59 -241.5 424.27 C-241.5 424.93 -241.5 425.59 -241.5 426.27 C-239.52 426.93 -237.54 427.59 -235.5 428.27 C-235.5 428.93 -235.5 429.59 -235.5 430.27 C-233.52 430.93 -231.54 431.59 -229.5 432.27 C-229.5 432.93 -229.5 433.59 -229.5 434.27 C-228.96 434.35 -228.43 434.44 -227.88 434.53 C-224.65 435.53 -222.23 437.22 -219.42 439.08 C-218.85 439.46 -218.28 439.83 -217.69 440.22 C-215.87 441.42 -214.06 442.62 -212.25 443.83 C-211.01 444.64 -209.78 445.46 -208.54 446.27 C-205.52 448.26 -202.51 450.26 -199.5 452.27 C-199.99 451.1 -200.48 449.93 -200.99 448.72 C-201.64 447.17 -202.29 445.63 -202.93 444.08 C-203.26 443.31 -203.58 442.54 -203.92 441.75 C-205.5 437.94 -206.91 434.38 -207.5 430.27 C-208.16 430.27 -208.82 430.27 -209.5 430.27 C-209.8 429.37 -210.1 428.48 -210.41 427.55 C-212.66 421.08 -215.06 414.9 -218.25 408.82 C-220.2 404.83 -221.68 400.68 -223.23 396.52 C-224.81 392.45 -226.66 388.53 -228.58 384.61 C-229.5 382.27 -229.5 382.27 -229.5 378.27 C-230.16 378.27 -230.82 378.27 -231.5 378.27 C-232.81 374.65 -233.5 372.17 -233.5 368.27 C-234.16 368.27 -234.82 368.27 -235.5 368.27 C-236.31 366.21 -237.12 364.14 -237.93 362.08 C-238.39 360.93 -238.84 359.78 -239.3 358.6 C-240.31 355.79 -241.02 353.19 -241.5 350.27 C-242.16 350.27 -242.82 350.27 -243.5 350.27 C-243.65 349.66 -243.81 349.05 -243.98 348.43 C-245.56 342.76 -247.63 337.75 -250.36 332.54 C-251.7 329.86 -252.66 327.14 -253.5 324.27 C-254.16 324.27 -254.82 324.27 -255.5 324.27 C-255.5 323.61 -255.5 322.95 -255.5 322.27 C-256.16 322.27 -256.82 322.27 -257.5 322.27 C-257.5 321.61 -257.5 320.95 -257.5 320.27 C-259.48 319.61 -261.46 318.95 -263.5 318.27 C-263.5 317.61 -263.5 316.95 -263.5 316.27 C-264.16 316.27 -264.82 316.27 -265.5 316.27 C-265.5 315.61 -265.5 314.95 -265.5 314.27 C-267.48 313.61 -269.46 312.95 -271.5 312.27 C-271.5 311.61 -271.5 310.95 -271.5 310.27 C-272.16 310.27 -272.82 310.27 -273.5 310.27 C-273.5 309.61 -273.5 308.95 -273.5 308.27 C-274.26 307.98 -275.02 307.69 -275.81 307.39 C-278.5 306.27 -278.5 306.27 -281.5 304.27 C-281.5 303.61 -281.5 302.95 -281.5 302.27 C-282.26 301.98 -283.02 301.69 -283.81 301.39 C-286.5 300.27 -286.5 300.27 -289.5 298.27 C-289.5 297.61 -289.5 296.95 -289.5 296.27 C-290.7 295.8 -290.7 295.8 -291.93 295.33 C-294.5 294.27 -294.5 294.27 -295.5 293.27 C-298.43 292.77 -301.36 292.32 -304.31 291.89 C-309.8 291.07 -315.19 290.21 -320.56 288.77 C-325.34 287.49 -330.11 286.61 -335 285.83 C-347.57 283.81 -360.19 281.65 -372.44 278.1 C-376.72 276.93 -381.05 275.96 -385.37 274.95 C-396.19 272.43 -406.85 269.41 -417.5 266.27 C-417.5 264.95 -417.5 263.63 -417.5 262.27 C-415.52 261.61 -413.54 260.95 -411.5 260.27 C-411.5 259.61 -411.5 258.95 -411.5 258.27 C-405.75 254.27 -405.75 254.27 -403.5 254.27 C-403.5 253.61 -403.5 252.95 -403.5 252.27 C-397.75 248.27 -397.75 248.27 -395.5 248.27 C-395.5 247.61 -395.5 246.95 -395.5 246.27 C-389.75 242.27 -389.75 242.27 -387.5 242.27 C-387.5 241.61 -387.5 240.95 -387.5 240.27 C-384.53 239.28 -384.53 239.28 -381.5 238.27 C-381.5 237.61 -381.5 236.95 -381.5 236.27 C-375.75 232.27 -375.75 232.27 -373.5 232.27 C-373.5 231.61 -373.5 230.95 -373.5 230.27 C-367.75 226.27 -367.75 226.27 -365.5 226.27 C-365.5 225.61 -365.5 224.95 -365.5 224.27 C-362.5 222.27 -362.5 222.27 -359.5 222.27 C-359.5 221.61 -359.5 220.95 -359.5 220.27 C-358.84 220.27 -358.18 220.27 -357.5 220.27 C-357.5 219.61 -357.5 218.95 -357.5 218.27 C-354.53 217.28 -354.53 217.28 -351.5 216.27 C-351.5 215.61 -351.5 214.95 -351.5 214.27 C-350.84 214.27 -350.18 214.27 -349.5 214.27 C-349.38 213.7 -349.27 213.13 -349.15 212.55 C-348.42 210.01 -347.37 208 -346.06 205.7 C-345.63 204.94 -345.19 204.17 -344.75 203.39 C-343.72 201.65 -342.62 199.95 -341.5 198.27 C-340.84 198.27 -340.18 198.27 -339.5 198.27 C-339.21 197.5 -338.92 196.74 -338.62 195.95 C-337.5 193.27 -337.5 193.27 -335.5 190.27 C-334.84 190.27 -334.18 190.27 -333.5 190.27 C-333.5 189.61 -333.5 188.95 -333.5 188.27 C-332.84 188.27 -332.18 188.27 -331.5 188.27 C-330.84 186.95 -330.18 185.63 -329.5 184.27 C-328.84 184.27 -328.18 184.27 -327.5 184.27 C-327.5 183.61 -327.5 182.95 -327.5 182.27 C-323.87 180.11 -320.09 179.52 -316 178.83 C-311.22 177.98 -306.5 177.08 -301.81 175.83 C-293.61 173.7 -285.27 172.2 -276.93 170.7 C-274.88 170.33 -272.82 169.95 -270.77 169.57 C-246.8 165.53 -229.83 169.75 -209.5 182.27 C-209.5 182.93 -209.5 183.59 -209.5 184.27 C-208.73 184.55 -207.97 184.84 -207.18 185.14 C-204.5 186.27 -204.5 186.27 -201.5 188.27 C-201.5 188.93 -201.5 189.59 -201.5 190.27 C-200.69 190.64 -200.69 190.64 -199.87 191.02 C-196.93 192.56 -194.24 194.4 -191.5 196.27 C-191.5 196.93 -191.5 197.59 -191.5 198.27 C-190.84 198.27 -190.18 198.27 -189.5 198.27 C-189.5 198.93 -189.5 199.59 -189.5 200.27 C-188.84 200.27 -188.18 200.27 -187.5 200.27 C-187.5 200.93 -187.5 201.59 -187.5 202.27 C-186.84 202.27 -186.18 202.27 -185.5 202.27 C-185.5 202.93 -185.5 203.59 -185.5 204.27 C-184.84 204.27 -184.18 204.27 -183.5 204.27 C-183.25 204.83 -183.01 205.4 -182.76 205.99 C-181.09 209.84 -179.38 213.58 -177.25 217.2 C-175.5 220.27 -175.5 220.27 -175.5 222.27 C-174.84 222.27 -174.18 222.27 -173.5 222.27 C-173.13 222.94 -172.77 223.62 -172.39 224.32 C-169.39 229.88 -166.27 235.34 -162.99 240.75 C-161.46 243.32 -160.03 245.94 -158.62 248.58 C-155.68 254.06 -152.39 259.28 -149.04 264.52 C-147.5 267.27 -147.5 267.27 -147.5 270.27 C-146.84 270.27 -146.18 270.27 -145.5 270.27 C-144.49 272.03 -143.49 273.8 -142.5 275.58 C-141.66 277.06 -141.66 277.06 -140.81 278.57 C-139.5 281.27 -139.5 281.27 -139.5 284.27 C-138.84 284.27 -138.18 284.27 -137.5 284.27 C-137.06 285.16 -136.62 286.05 -136.18 286.98 C-133.01 293.43 -129.74 299.72 -125.96 305.85 C-124.41 308.41 -122.98 311.01 -121.56 313.64 C-118.89 318.58 -116.08 323.42 -113.23 328.26 C-111 332.13 -108.87 336.05 -106.76 339.99 C-105.45 342.43 -105.45 342.43 -103.5 345.27 C-103.5 346.26 -103.5 347.25 -103.5 348.27 C-102.84 348.27 -102.18 348.27 -101.5 348.27 C-101.1 349.24 -100.71 350.2 -100.31 351.2 C-97.22 359.38 -97.22 359.38 -91.5 365.27 C-91.5 294.98 -91.5 224.69 -91.5 152.27 C-94.8 152.27 -98.1 152.27 -101.5 152.27 C-102.49 151.94 -103.48 151.61 -104.5 151.27 C-106.41 151.11 -108.33 150.99 -110.25 150.89 C-118.74 150.3 -127.4 148.96 -135.5 146.27 C-135.5 144.95 -135.5 143.63 -135.5 142.27 C-134.84 142.27 -134.18 142.27 -133.5 142.27 C-133.5 141.61 -133.5 140.95 -133.5 140.27 C-132.84 140.27 -132.18 140.27 -131.5 140.27 C-131.12 139.46 -131.12 139.46 -130.75 138.64 C-129.2 135.7 -127.37 133.01 -125.5 130.27 C-124.84 130.27 -124.18 130.27 -123.5 130.27 C-123.12 129.46 -123.12 129.46 -122.75 128.64 C-121.2 125.7 -119.37 123.01 -117.5 120.27 C-116.84 120.27 -116.18 120.27 -115.5 120.27 C-115.5 119.61 -115.5 118.95 -115.5 118.27 C-114.84 118.27 -114.18 118.27 -113.5 118.27 C-113.25 117.73 -113 117.19 -112.75 116.64 C-111.2 113.7 -109.37 111.01 -107.5 108.27 C-106.84 108.27 -106.18 108.27 -105.5 108.27 C-105.5 107.61 -105.5 106.95 -105.5 106.27 C-104.84 106.27 -104.18 106.27 -103.5 106.27 C-103.16 105.49 -103.16 105.49 -102.81 104.7 C-101.5 102.27 -101.5 102.27 -99.25 99.2 C-96.44 95.36 -94.28 91.25 -92.05 87.05 C-90.13 83.6 -87.96 80.37 -85.7 77.14 C-84.33 75.17 -84.33 75.17 -83.5 72.27 C-82.84 72.27 -82.18 72.27 -81.5 72.27 C-81.39 71.73 -81.29 71.19 -81.18 70.64 C-80.32 67.64 -78.94 65.03 -77.5 62.27 C-76.84 62.27 -76.18 62.27 -75.5 62.27 C-74.84 60.29 -74.18 58.31 -73.5 56.27 C-72.84 56.27 -72.18 56.27 -71.5 56.27 C-71.39 55.73 -71.29 55.19 -71.18 54.64 C-70.32 51.64 -68.94 49.03 -67.5 46.27 C-66.84 46.27 -66.18 46.27 -65.5 46.27 C-65.39 45.73 -65.29 45.19 -65.18 44.64 C-64.32 41.64 -62.94 39.03 -61.5 36.27 C-60.84 36.27 -60.18 36.27 -59.5 36.27 C-58.84 34.29 -58.18 32.31 -57.5 30.27 C-56.84 30.27 -56.18 30.27 -55.5 30.27 C-55.5 29.61 -55.5 28.95 -55.5 28.27 C-49.75 24.27 -49.75 24.27 -47.5 24.27 C-47.5 23.61 -47.5 22.95 -47.5 22.27 C-45.52 21.61 -43.54 20.95 -41.5 20.27 C-41.5 19.61 -41.5 18.95 -41.5 18.27 C-35.06 13.79 -28.44 9.9 -21.5 6.27 C-20.75 5.87 -20 5.48 -19.23 5.07 C-12.8 1.76 -7.35 0.01 0 0 Z M-15.71 35.2 C-17.59 36.32 -19.52 37.31 -21.5 38.27 C-21.5 38.93 -21.5 39.59 -21.5 40.27 C-22.11 40.41 -22.73 40.55 -23.37 40.7 C-25.53 41.2 -25.53 41.2 -27.5 42.27 C-27.5 42.93 -27.5 43.59 -27.5 44.27 C-28.07 44.33 -28.65 44.39 -29.25 44.45 C-32.42 45.6 -33.62 47.53 -35.5 50.27 C-35.5 50.93 -35.5 51.59 -35.5 52.27 C-36.16 52.27 -36.82 52.27 -37.5 52.27 C-37.5 52.93 -37.5 53.59 -37.5 54.27 C-38.16 54.27 -38.82 54.27 -39.5 54.27 C-42.03 58.46 -44.02 62.46 -45.66 67.07 C-46.59 69.5 -47.65 71.84 -48.75 74.2 C-51.35 79.84 -53.7 85.57 -56 91.34 C-57.56 95.22 -59.34 98.67 -61.5 102.27 C-62.82 105.55 -64.01 108.87 -65.21 112.21 C-66.37 114.98 -67.58 116.98 -69.5 119.27 C-69.17 120.26 -68.84 121.25 -68.5 122.27 C-66.52 122.6 -64.54 122.93 -62.5 123.27 C-62.5 124.23 -62.5 125.19 -62.5 126.18 C-62.52 183.21 -62.54 240.25 -62.55 297.28 C-62.55 304.14 -62.55 310.99 -62.55 317.85 C-62.55 318.87 -62.55 318.87 -62.55 319.91 C-62.56 341.99 -62.56 364.06 -62.57 386.13 C-62.58 409.48 -62.59 432.82 -62.59 456.17 C-62.59 470.14 -62.6 484.11 -62.6 498.09 C-62.61 507.68 -62.61 517.27 -62.61 526.86 C-62.61 532.39 -62.61 537.92 -62.62 543.44 C-62.62 548.52 -62.62 553.59 -62.62 558.66 C-62.62 560.49 -62.62 562.31 -62.62 564.13 C-62.63 569.02 -62.61 573.91 -62.53 578.8 C-62.51 580.52 -62.49 582.23 -62.49 583.95 C-62.47 586.66 -62.42 589.37 -62.36 592.08 C-62.36 592.9 -62.36 593.72 -62.37 594.57 C-62.19 599.96 -60.94 602.76 -57.15 606.61 C-52.86 610.67 -52.86 610.67 -47.5 612.27 C-47.5 612.93 -47.5 613.59 -47.5 614.27 C-46.84 614.27 -46.18 614.27 -45.5 614.27 C-45.5 614.93 -45.5 615.59 -45.5 616.27 C-44.84 616.27 -44.18 616.27 -43.5 616.27 C-43.5 616.93 -43.5 617.59 -43.5 618.27 C-42.84 618.27 -42.18 618.27 -41.5 618.27 C-41.5 618.93 -41.5 619.59 -41.5 620.27 C-40.84 620.27 -40.18 620.27 -39.5 620.27 C-39.5 620.93 -39.5 621.59 -39.5 622.27 C-38.84 622.27 -38.18 622.27 -37.5 622.27 C-37.5 622.93 -37.5 623.59 -37.5 624.27 C-36.84 624.27 -36.18 624.27 -35.5 624.27 C-35.5 624.93 -35.5 625.59 -35.5 626.27 C-34.84 626.27 -34.18 626.27 -33.5 626.27 C-33.5 626.93 -33.5 627.59 -33.5 628.27 C-31.78 629.85 -31.78 629.85 -29.62 631.39 C-28.9 631.93 -28.18 632.47 -27.44 633.02 C-25.6 634.45 -25.6 634.45 -23.5 634.27 C-23.5 634.93 -23.5 635.59 -23.5 636.27 C-22.51 636.6 -21.52 636.93 -20.5 637.27 C-19.56 636.42 -19.56 636.42 -18.6 635.55 C-17.78 634.82 -16.96 634.08 -16.12 633.33 C-15.31 632.6 -14.5 631.87 -13.66 631.11 C-11.5 629.27 -11.5 629.27 -9.5 628.27 C-9.5 627.61 -9.5 626.95 -9.5 626.27 C-8.84 626.27 -8.18 626.27 -7.5 626.27 C-7.5 625.61 -7.5 624.95 -7.5 624.27 C-6.84 624.27 -6.18 624.27 -5.5 624.27 C-5.5 623.61 -5.5 622.95 -5.5 622.27 C-4.84 622.27 -4.18 622.27 -3.5 622.27 C-3.5 621.61 -3.5 620.95 -3.5 620.27 C-2.84 620.27 -2.18 620.27 -1.5 620.27 C-1.5 619.61 -1.5 618.95 -1.5 618.27 C-0.84 618.27 -0.18 618.27 0.5 618.27 C0.5 617.61 0.5 616.95 0.5 616.27 C1.16 616.27 1.82 616.27 2.5 616.27 C2.5 615.61 2.5 614.95 2.5 614.27 C3.16 614.27 3.82 614.27 4.5 614.27 C4.5 613.61 4.5 612.95 4.5 612.27 C5.16 612.27 5.82 612.27 6.5 612.27 C6.5 611.61 6.5 610.95 6.5 610.27 C7.16 610.27 7.82 610.27 8.5 610.27 C8.5 609.61 8.5 608.95 8.5 608.27 C9.16 608.27 9.82 608.27 10.5 608.27 C10.5 607.61 10.5 606.95 10.5 606.27 C11.08 606.02 11.66 605.77 12.25 605.52 C15.08 603.95 16.56 602.9 18.5 600.27 C19.07 596.97 18.89 593.72 18.82 590.39 C18.8 589.38 18.78 588.36 18.75 587.32 C18.62 581.14 18.47 574.96 18.27 568.78 C17.37 539.85 17.23 510.91 17.05 481.96 C16.96 468.78 16.87 455.61 16.77 442.43 C16.75 440.26 16.74 438.09 16.72 435.91 C16.57 414.51 16.34 393.11 16 371.7 C15.63 348.16 15.42 324.62 15.25 301.08 C15.24 299.57 15.23 298.05 15.22 296.54 C15.12 282.05 15.02 267.56 14.94 253.07 C14.89 245.89 14.85 238.7 14.8 231.52 C14.79 230.12 14.78 228.72 14.77 227.32 C14.63 205.93 14.33 184.54 13.75 163.16 C13.71 161.74 13.71 161.74 13.67 160.3 C13.63 158.59 13.58 156.87 13.53 155.16 C13.39 149.46 13.83 143.92 14.5 138.27 C15.16 138.27 15.82 138.27 16.5 138.27 C16.5 137.61 16.5 136.95 16.5 136.27 C17.16 136.27 17.82 136.27 18.5 136.27 C18.5 135.61 18.5 134.95 18.5 134.27 C19.16 134.27 19.82 134.27 20.5 134.27 C23.42 130.6 23.42 130.6 24.5 126.27 C25.16 126.27 25.82 126.27 26.5 126.27 C29.62 120.14 31.34 114.15 32.78 107.44 C33.73 103.26 35.07 99.31 36.5 95.27 C34.9 93.66 33.04 94.07 30.82 93.95 C13.04 92.22 13.04 92.22 9.13 87.67 C7.43 85.1 5.98 82.44 4.56 79.71 C2.2 75.2 0.42 72.53 -4.57 70.76 C-5.2 70.6 -5.84 70.43 -6.5 70.27 C-7.17 70.05 -7.85 69.84 -8.55 69.61 C-10.18 69.11 -11.84 68.68 -13.5 68.27 C-13.5 67.61 -13.5 66.95 -13.5 66.27 C-12.84 66.27 -12.18 66.27 -11.5 66.27 C-11.5 65.61 -11.5 64.95 -11.5 64.27 C-9.52 63.61 -7.54 62.95 -5.5 62.27 C-5.5 61.61 -5.5 60.95 -5.5 60.27 C-3.52 59.61 -1.54 58.95 0.5 58.27 C0.5 57.61 0.5 56.95 0.5 56.27 C6.08 54.53 12.08 55.04 17.87 55.03 C20.04 55.02 22.2 54.98 24.36 54.95 C33.53 54.88 41.57 55.89 50.15 59.32 C55.79 61.58 62.68 63.42 68.5 61.27 C72.46 58.35 75.77 55.36 78.5 51.27 C78.5 50.28 78.5 49.29 78.5 48.27 C77.84 48.27 77.18 48.27 76.5 48.27 C75.51 45.3 75.51 45.3 74.5 42.27 C73.84 42.27 73.18 42.27 72.5 42.27 C72.26 41.32 72.01 40.37 71.75 39.39 C70.84 36.24 70.84 36.24 68.71 35.11 C66.37 34.21 64.38 33.9 61.88 33.7 C57.7 33.36 57.7 33.36 55.5 32.27 C53.67 32.06 51.84 31.9 50 31.77 C44.73 31.38 44.73 31.38 42.5 30.27 C37.54 29.3 32.53 28.78 27.5 28.27 C26.53 28.16 25.56 28.05 24.56 27.93 C9.07 26.29 -2.25 26.96 -15.71 35.2 Z M90.5 62.27 C90.5 62.93 90.5 63.59 90.5 64.27 C89.76 64.49 89.02 64.72 88.25 64.95 C85.34 66.1 85.34 66.1 83.5 68.77 C79.95 73.2 74.82 73.79 69.5 75.27 C65.48 76.61 64.62 78.69 62.5 82.27 C62.5 82.93 62.5 83.59 62.5 84.27 C61.84 84.27 61.18 84.27 60.5 84.27 C60.5 84.93 60.5 85.59 60.5 86.27 C59.84 86.27 59.18 86.27 58.5 86.27 C56.23 89.08 56.23 89.08 56.5 92.27 C57.22 92.11 57.93 91.95 58.67 91.78 C61.46 91.27 64.08 91.08 66.92 90.98 C67.93 90.95 68.93 90.91 69.97 90.87 C72.08 90.8 74.2 90.73 76.31 90.66 C77.82 90.6 77.82 90.6 79.36 90.55 C80.27 90.52 81.19 90.49 82.13 90.46 C84.65 90.35 84.65 90.35 87.5 89.27 C89.08 89.13 90.67 89.04 92.25 88.98 C93.63 88.93 93.63 88.93 95.04 88.87 C96 88.84 96.95 88.8 97.94 88.77 C99.84 88.7 101.73 88.62 103.62 88.55 C104.46 88.52 105.3 88.49 106.17 88.46 C108.39 88.27 110.35 87.83 112.5 87.27 C114.67 87.09 116.84 86.95 119 86.83 C125.6 86.4 132.01 85.49 138.5 84.27 C138.5 83.61 138.5 82.95 138.5 82.27 C137.26 81.59 136.01 80.92 134.75 80.27 C134.06 79.89 133.36 79.52 132.64 79.14 C130.27 78.01 130.27 78.01 126.5 78.27 C126.5 77.61 126.5 76.95 126.5 76.27 C125.36 75.86 124.21 75.46 123.03 75.05 C117.72 73.06 112.89 70.34 107.95 67.58 C99.47 62.43 99.47 62.43 90.5 62.27 Z M-261.5 195.27 C-262.89 195.5 -264.29 195.68 -265.7 195.84 C-267 196 -267 196 -268.33 196.17 C-269.27 196.28 -270.21 196.4 -271.18 196.52 C-294.82 198.32 -294.82 198.32 -315.5 207.27 C-315.5 208.26 -315.5 209.25 -315.5 210.27 C-316.16 210.27 -316.82 210.27 -317.5 210.27 C-317.5 210.93 -317.5 211.59 -317.5 212.27 C-318.16 212.27 -318.82 212.27 -319.5 212.27 C-321.77 215.08 -321.77 215.08 -321.5 218.27 C-322.16 218.27 -322.82 218.27 -323.5 218.27 C-323.5 218.93 -323.5 219.59 -323.5 220.27 C-322.84 220.27 -322.18 220.27 -321.5 220.27 C-321.5 220.93 -321.5 221.59 -321.5 222.27 C-317.83 225.18 -317.83 225.18 -313.5 226.27 C-313.5 226.93 -313.5 227.59 -313.5 228.27 C-310.43 230.08 -308.58 230.46 -305.06 229.95 C-304.28 229.84 -303.5 229.74 -302.69 229.62 C-300.28 229.23 -297.88 228.8 -295.5 228.27 C-295.5 227.61 -295.5 226.95 -295.5 226.27 C-294.18 226.27 -292.86 226.27 -291.5 226.27 C-291.5 225.61 -291.5 224.95 -291.5 224.27 C-290.88 224.21 -290.27 224.15 -289.64 224.1 C-286.8 223.84 -283.96 223.58 -281.12 223.33 C-280.16 223.24 -279.19 223.15 -278.2 223.06 C-272.71 222.57 -267.22 222.04 -261.74 221.46 C-256.26 220.99 -250.86 220.88 -245.5 222.27 C-245.5 222.93 -245.5 223.59 -245.5 224.27 C-244.4 224.93 -243.31 225.59 -242.18 226.27 C-241.57 226.64 -240.95 227.01 -240.32 227.39 C-238.38 228.48 -238.38 228.48 -235.5 228.27 C-235.5 228.93 -235.5 229.59 -235.5 230.27 C-234.01 230.76 -234.01 230.76 -232.5 231.27 C-232.83 232.26 -233.16 233.25 -233.5 234.27 C-234.8 234.42 -234.8 234.42 -236.12 234.58 C-239.88 235.34 -242.27 236.17 -245.5 238.27 C-247.05 240.79 -248.01 243.48 -249 246.27 C-251.62 253.67 -251.62 253.67 -255.29 256.16 C-258.63 257.31 -261.91 258.21 -265.37 258.95 C-266.52 259.2 -267.68 259.46 -268.86 259.71 C-269.73 259.9 -270.6 260.08 -271.5 260.27 C-272.6 263.58 -272.42 265.51 -272.06 268.95 C-271.91 270.44 -271.91 270.44 -271.75 271.96 C-271.67 272.72 -271.58 273.48 -271.5 274.27 C-270.84 274.27 -270.18 274.27 -269.5 274.27 C-269.5 274.93 -269.5 275.59 -269.5 276.27 C-268.84 276.27 -268.18 276.27 -267.5 276.27 C-267.5 276.93 -267.5 277.59 -267.5 278.27 C-264.53 279.26 -264.53 279.26 -261.5 280.27 C-261.5 280.93 -261.5 281.59 -261.5 282.27 C-259.52 282.93 -257.54 283.59 -255.5 284.27 C-255.5 284.93 -255.5 285.59 -255.5 286.27 C-253.52 286.93 -251.54 287.59 -249.5 288.27 C-249.5 288.93 -249.5 289.59 -249.5 290.27 C-245.83 293.18 -245.83 293.18 -241.5 294.27 C-241.5 294.93 -241.5 295.59 -241.5 296.27 C-239.52 296.93 -237.54 297.59 -235.5 298.27 C-235.5 298.93 -235.5 299.59 -235.5 300.27 C-232.86 302.66 -232.86 302.66 -229.5 303.27 C-229.37 303.81 -229.25 304.36 -229.12 304.92 C-226.37 315.18 -221.56 325.17 -217.6 335.02 C-216.22 338.44 -214.87 341.86 -213.52 345.29 C-209.8 354.74 -205.89 364.07 -201.64 373.29 C-199.42 378.12 -197.37 382.99 -195.42 387.93 C-194.18 391.07 -192.84 394.17 -191.5 397.27 C-189.44 402.03 -187.46 406.81 -185.56 411.64 C-183.8 415.99 -181.92 420.28 -180.06 424.58 C-178.87 427.34 -177.75 430.12 -176.64 432.91 C-174.24 438.95 -171.68 444.92 -169.12 450.89 C-165.37 459.66 -161.84 468.44 -158.81 477.48 C-157.74 480.37 -157.74 480.37 -155.34 481.67 C-154.43 481.97 -154.43 481.97 -153.5 482.27 C-153.5 482.93 -153.5 483.59 -153.5 484.27 C-151.52 484.93 -149.54 485.59 -147.5 486.27 C-147.5 486.93 -147.5 487.59 -147.5 488.27 C-146.95 488.56 -146.41 488.85 -145.84 489.15 C-140.18 492.23 -134.81 495.61 -129.5 499.27 C-126.93 497.98 -126.55 496.9 -125.5 494.27 C-125.5 492.95 -125.5 491.63 -125.5 490.27 C-124.84 490.27 -124.18 490.27 -123.5 490.27 C-122.82 488.69 -122.16 487.1 -121.5 485.52 C-120.94 484.19 -120.94 484.19 -120.37 482.84 C-119.28 480.09 -119.28 480.09 -119.5 476.27 C-118.84 476.27 -118.18 476.27 -117.5 476.27 C-117.19 475.45 -116.89 474.64 -116.58 473.81 C-113.29 465.13 -109.78 456.63 -105.5 448.39 C-103.2 443.88 -101.49 439.16 -99.74 434.41 C-98.5 431.27 -98.5 431.27 -96.78 428.18 C-95.3 424.82 -95.32 423.68 -96.5 420.27 C-97.3 418.47 -98.15 416.7 -99.06 414.95 C-99.51 414.07 -99.97 413.19 -100.44 412.28 C-100.79 411.61 -101.14 410.95 -101.5 410.27 C-102.16 410.27 -102.82 410.27 -103.5 410.27 C-103.5 408.95 -103.5 407.63 -103.5 406.27 C-104.16 406.27 -104.82 406.27 -105.5 406.27 C-105.66 405.44 -105.66 405.44 -105.84 404.59 C-106.61 401.86 -107.76 399.54 -109.06 397.02 C-109.51 396.12 -109.97 395.23 -110.44 394.31 C-110.79 393.64 -111.14 392.96 -111.5 392.27 C-112.16 392.27 -112.82 392.27 -113.5 392.27 C-113.5 390.95 -113.5 389.63 -113.5 388.27 C-114.16 388.27 -114.82 388.27 -115.5 388.27 C-115.59 387.76 -115.68 387.24 -115.77 386.72 C-116.79 383.28 -118.43 380.19 -120.06 377.02 C-120.39 376.37 -120.72 375.72 -121.06 375.05 C-121.87 373.45 -122.68 371.86 -123.5 370.27 C-124.16 370.27 -124.82 370.27 -125.5 370.27 C-125.5 368.95 -125.5 367.63 -125.5 366.27 C-126.16 366.27 -126.82 366.27 -127.5 366.27 C-127.59 365.76 -127.68 365.24 -127.77 364.72 C-128.79 361.28 -130.43 358.19 -132.06 355.02 C-132.39 354.37 -132.72 353.72 -133.06 353.05 C-133.87 351.45 -134.68 349.86 -135.5 348.27 C-136.16 348.27 -136.82 348.27 -137.5 348.27 C-137.66 347.44 -137.66 347.44 -137.84 346.59 C-138.61 343.86 -139.76 341.54 -141.06 339.02 C-141.51 338.12 -141.97 337.23 -142.44 336.31 C-142.79 335.64 -143.14 334.96 -143.5 334.27 C-144.16 334.27 -144.82 334.27 -145.5 334.27 C-145.59 333.76 -145.68 333.24 -145.77 332.72 C-146.79 329.28 -148.43 326.19 -150.06 323.02 C-150.39 322.37 -150.72 321.72 -151.06 321.05 C-151.87 319.45 -152.68 317.86 -153.5 316.27 C-154.16 316.27 -154.82 316.27 -155.5 316.27 C-155.61 315.71 -155.72 315.16 -155.84 314.59 C-156.61 311.86 -157.76 309.54 -159.06 307.02 C-159.51 306.12 -159.97 305.23 -160.44 304.31 C-160.79 303.64 -161.14 302.96 -161.5 302.27 C-162.16 302.27 -162.82 302.27 -163.5 302.27 C-163.5 300.95 -163.5 299.63 -163.5 298.27 C-164.16 298.27 -164.82 298.27 -165.5 298.27 C-165.61 297.71 -165.72 297.16 -165.84 296.59 C-166.61 293.86 -167.76 291.54 -169.06 289.02 C-169.51 288.12 -169.97 287.23 -170.44 286.31 C-170.79 285.64 -171.14 284.96 -171.5 284.27 C-172.16 284.27 -172.82 284.27 -173.5 284.27 C-173.59 283.76 -173.68 283.24 -173.77 282.72 C-174.79 279.28 -176.43 276.19 -178.06 273.02 C-178.39 272.37 -178.72 271.72 -179.06 271.05 C-179.87 269.45 -180.68 267.86 -181.5 266.27 C-182.16 266.27 -182.82 266.27 -183.5 266.27 C-183.5 264.95 -183.5 263.63 -183.5 262.27 C-184.16 262.27 -184.82 262.27 -185.5 262.27 C-185.61 261.71 -185.72 261.16 -185.84 260.59 C-186.61 257.86 -187.76 255.54 -189.06 253.02 C-189.51 252.12 -189.97 251.23 -190.44 250.31 C-190.79 249.64 -191.14 248.96 -191.5 248.27 C-192.16 248.27 -192.82 248.27 -193.5 248.27 C-193.5 246.95 -193.5 245.63 -193.5 244.27 C-194.16 244.27 -194.82 244.27 -195.5 244.27 C-195.5 242.95 -195.5 241.63 -195.5 240.27 C-196.16 240.27 -196.82 240.27 -197.5 240.27 C-197.62 239.68 -197.75 239.1 -197.88 238.5 C-198.49 236.3 -199.27 234.48 -200.31 232.45 C-200.66 231.75 -201.01 231.05 -201.38 230.32 C-201.75 229.6 -202.12 228.88 -202.5 228.14 C-202.86 227.41 -203.23 226.68 -203.61 225.93 C-204.57 224.04 -205.53 222.15 -206.5 220.27 C-206.99 219.28 -206.99 219.28 -207.5 218.27 C-208.16 218.27 -208.82 218.27 -209.5 218.27 C-209.5 217.61 -209.5 216.95 -209.5 216.27 C-210.16 216.27 -210.82 216.27 -211.5 216.27 C-211.5 215.61 -211.5 214.95 -211.5 214.27 C-212.16 214.27 -212.82 214.27 -213.5 214.27 C-213.5 213.61 -213.5 212.95 -213.5 212.27 C-217.17 209.35 -217.17 209.35 -221.5 208.27 C-221.5 207.61 -221.5 206.95 -221.5 206.27 C-223.48 205.61 -225.46 204.95 -227.5 204.27 C-227.5 203.61 -227.5 202.95 -227.5 202.27 C-228.82 202.27 -230.14 202.27 -231.5 202.27 C-231.5 201.61 -231.5 200.95 -231.5 200.27 C-234.58 198.5 -235.73 198.27 -239.5 198.27 C-239.5 197.61 -239.5 196.95 -239.5 196.27 C-244.07 194.49 -247.85 194.02 -252.75 194.08 C-253.97 194.08 -255.19 194.09 -256.45 194.1 C-259.41 194.06 -259.41 194.06 -261.5 195.27 Z M198.5 196.27 C198.5 196.93 198.5 197.59 198.5 198.27 C197.36 198.48 197.36 198.48 196.19 198.7 C193.42 199.23 193.42 199.23 190.5 200.27 C190.5 200.93 190.5 201.59 190.5 202.27 C189.97 202.37 189.43 202.47 188.88 202.58 C185.88 203.45 183.27 204.82 180.5 206.27 C180.5 206.93 180.5 207.59 180.5 208.27 C179.36 208.7 179.36 208.7 178.19 209.14 C175.35 210.23 175.35 210.23 172.5 212.27 C172.5 212.93 172.5 213.59 172.5 214.27 C171.84 214.27 171.18 214.27 170.5 214.27 C170.5 214.93 170.5 215.59 170.5 216.27 C169.84 216.27 169.18 216.27 168.5 216.27 C168.5 216.93 168.5 217.59 168.5 218.27 C167.84 218.27 167.18 218.27 166.5 218.27 C166.5 218.93 166.5 219.59 166.5 220.27 C165.84 220.27 165.18 220.27 164.5 220.27 C164.5 221.59 164.5 222.91 164.5 224.27 C163.84 224.27 163.18 224.27 162.5 224.27 C162.5 225.59 162.5 226.91 162.5 228.27 C161.84 228.27 161.18 228.27 160.5 228.27 C159.5 230.22 158.5 232.18 157.5 234.14 C156.95 235.23 156.39 236.32 155.82 237.45 C154.36 240.05 154.36 240.05 154.5 242.27 C153.84 242.27 153.18 242.27 152.5 242.27 C152.5 243.59 152.5 244.91 152.5 246.27 C151.84 246.27 151.18 246.27 150.5 246.27 C149.5 248.03 148.5 249.8 147.5 251.58 C146.95 252.56 146.39 253.55 145.82 254.57 C144.29 257.22 144.29 257.22 144.5 260.27 C143.84 260.27 143.18 260.27 142.5 260.27 C141.5 262.03 140.5 263.8 139.5 265.58 C138.95 266.56 138.39 267.55 137.82 268.57 C136.29 271.22 136.29 271.22 136.5 274.27 C135.84 274.27 135.18 274.27 134.5 274.27 C133.69 275.85 132.88 277.43 132.07 279.02 C131.61 279.9 131.16 280.78 130.7 281.69 C129.67 283.91 128.99 285.88 128.5 288.27 C127.84 288.27 127.18 288.27 126.5 288.27 C126.5 289.59 126.5 290.91 126.5 292.27 C125.84 292.27 125.18 292.27 124.5 292.27 C123.83 293.55 123.17 294.85 122.5 296.14 C121.95 297.22 121.95 297.22 121.38 298.32 C120.37 300.21 120.37 300.21 120.5 302.27 C119.84 302.27 119.18 302.27 118.5 302.27 C118.5 303.59 118.5 304.91 118.5 306.27 C117.84 306.27 117.18 306.27 116.5 306.27 C115.84 307.36 115.18 308.45 114.5 309.58 C114.13 310.19 113.76 310.81 113.38 311.44 C112.29 313.38 112.29 313.38 112.5 316.27 C111.84 316.27 111.18 316.27 110.5 316.27 C110.5 317.59 110.5 318.91 110.5 320.27 C109.84 320.27 109.18 320.27 108.5 320.27 C107.83 321.55 107.17 322.85 106.5 324.14 C106.13 324.86 105.76 325.58 105.38 326.32 C104.37 328.21 104.37 328.21 104.5 330.27 C103.84 330.27 103.18 330.27 102.5 330.27 C102.5 331.59 102.5 332.91 102.5 334.27 C101.84 334.27 101.18 334.27 100.5 334.27 C99.84 335.36 99.18 336.45 98.5 337.58 C98.13 338.19 97.76 338.81 97.38 339.44 C96.29 341.38 96.29 341.38 96.5 344.27 C95.84 344.27 95.18 344.27 94.5 344.27 C94.5 345.59 94.5 346.91 94.5 348.27 C93.84 348.27 93.18 348.27 92.5 348.27 C91.5 350.03 90.5 351.8 89.5 353.58 C88.95 354.56 88.39 355.55 87.82 356.57 C86.29 359.22 86.29 359.22 86.5 362.27 C85.84 362.27 85.18 362.27 84.5 362.27 C83.5 364.03 82.5 365.8 81.5 367.58 C80.95 368.56 80.39 369.55 79.82 370.57 C78.29 373.22 78.29 373.22 78.5 376.27 C77.84 376.27 77.18 376.27 76.5 376.27 C76.5 377.59 76.5 378.91 76.5 380.27 C75.84 380.27 75.18 380.27 74.5 380.27 C74.5 381.59 74.5 382.91 74.5 384.27 C73.84 384.27 73.18 384.27 72.5 384.27 C72.5 385.59 72.5 386.91 72.5 388.27 C71.84 388.27 71.18 388.27 70.5 388.27 C69.84 389.36 69.18 390.45 68.5 391.58 C68.13 392.19 67.76 392.81 67.38 393.44 C66.29 395.38 66.29 395.38 66.5 398.27 C65.84 398.27 65.18 398.27 64.5 398.27 C64.5 399.59 64.5 400.91 64.5 402.27 C63.84 402.27 63.18 402.27 62.5 402.27 C62.03 403.22 61.56 404.17 61.08 405.15 C60.45 406.42 59.82 407.69 59.19 408.95 C58.88 409.58 58.57 410.2 58.26 410.85 C56.86 413.67 55.42 416.39 53.76 419.06 C52.25 421.22 52.25 421.22 52.75 423.83 C53 424.63 53.25 425.44 53.5 426.27 C53.78 427.41 53.78 427.41 54.07 428.58 C54.21 429.13 54.36 429.69 54.5 430.27 C55.16 430.27 55.82 430.27 56.5 430.27 C56.62 431.12 56.73 431.97 56.85 432.86 C57.53 436.41 58.61 439.47 59.94 442.83 C60.37 443.92 60.81 445.02 61.25 446.14 C61.87 447.69 61.87 447.69 62.5 449.27 C63.08 450.7 63.08 450.7 63.66 452.17 C63.94 452.86 64.22 453.55 64.5 454.27 C65.16 454.27 65.82 454.27 66.5 454.27 C66.61 454.9 66.71 455.54 66.82 456.2 C67.74 460.33 69.12 464.27 70.5 468.27 C71.16 468.27 71.82 468.27 72.5 468.27 C72.66 469.5 72.66 469.5 72.82 470.77 C73.62 474.86 74.97 478.39 76.5 482.27 C77.16 482.27 77.82 482.27 78.5 482.27 C78.61 482.9 78.71 483.54 78.82 484.2 C79.74 488.33 81.12 492.27 82.5 496.27 C83.16 496.27 83.82 496.27 84.5 496.27 C84.5 497.59 84.5 498.91 84.5 500.27 C85.16 500.27 85.82 500.27 86.5 500.27 C86.5 499.61 86.5 498.95 86.5 498.27 C88.48 497.61 90.46 496.95 92.5 496.27 C92.5 495.61 92.5 494.95 92.5 494.27 C93.17 494.04 93.84 493.81 94.52 493.57 C98.36 491.89 101.71 489.71 105.19 487.39 C105.87 486.96 106.54 486.52 107.24 486.07 C111.96 483.07 111.96 483.07 114.5 478.27 C114.5 476.95 114.5 475.63 114.5 474.27 C115.16 474.27 115.82 474.27 116.5 474.27 C116.88 473.26 117.25 472.26 117.64 471.22 C118.99 467.61 120.34 464.01 121.7 460.4 C122.42 458.5 123.13 456.6 123.84 454.7 C126.17 448.53 128.69 442.53 131.59 436.61 C132.75 434.06 132.75 434.06 132.5 430.27 C133.16 430.27 133.82 430.27 134.5 430.27 C134.81 429.37 135.11 428.48 135.42 427.55 C139.26 416.47 139.26 416.47 142 411.27 C144.02 407.44 145.49 403.61 146.88 399.52 C148.58 394.58 150.54 390.02 152.94 385.39 C155.91 379.66 158.25 373.88 160.44 367.81 C161.89 363.82 163.52 360.11 165.51 356.37 C167.42 352.32 168.74 348.03 170.21 343.8 C171.73 339.66 173.51 335.7 175.39 331.71 C176.64 328.97 177.67 326.19 178.69 323.36 C179.7 320.77 180.88 318.28 182.07 315.77 C184.14 311.29 185.5 307.08 186.5 302.27 C188.48 301.61 190.46 300.95 192.5 300.27 C192.5 299.61 192.5 298.95 192.5 298.27 C193.59 297.87 193.59 297.87 194.7 297.46 C197.51 296.26 199.81 294.86 202.32 293.14 C203.11 292.6 203.9 292.06 204.71 291.51 C205.3 291.1 205.89 290.69 206.5 290.27 C206.5 289.61 206.5 288.95 206.5 288.27 C208.48 287.61 210.46 286.95 212.5 286.27 C212.5 285.61 212.5 284.95 212.5 284.27 C214.48 283.61 216.46 282.95 218.5 282.27 C218.5 281.61 218.5 280.95 218.5 280.27 C221.17 278.93 223.84 277.6 226.5 276.27 C226.5 275.61 226.5 274.95 226.5 274.27 C227.16 274.27 227.82 274.27 228.5 274.27 C230.6 270.86 230.68 268.21 230.5 264.27 C231.16 264.27 231.82 264.27 232.5 264.27 C232.5 262.95 232.5 261.63 232.5 260.27 C231.56 260.08 230.62 259.9 229.65 259.71 C228.41 259.46 227.16 259.21 225.88 258.95 C224.65 258.71 223.42 258.47 222.15 258.21 C218.6 257.29 215.74 255.96 212.5 254.27 C211.84 254.27 211.18 254.27 210.5 254.27 C207.24 244.86 207.24 244.86 206.5 240.27 C205.84 240.27 205.18 240.27 204.5 240.27 C204.29 239.65 204.07 239.03 203.85 238.4 C202 235.47 200.21 235.15 196.94 234.14 C195.11 233.57 193.29 232.95 191.5 232.27 C191.17 231.61 190.84 230.95 190.5 230.27 C192.48 229.61 194.46 228.95 196.5 228.27 C196.5 227.61 196.5 226.95 196.5 226.27 C197.08 226.14 197.66 226.02 198.25 225.89 C200.56 225.25 202.39 224.32 204.5 223.2 C214.72 218.67 227.33 221.66 238.14 222.73 C239.33 222.85 239.33 222.85 240.54 222.97 C242.5 223.27 242.5 223.27 244.5 224.27 C246.5 224.31 248.5 224.31 250.5 224.27 C250.5 224.93 250.5 225.59 250.5 226.27 C260.29 229.72 260.29 229.72 270.5 230.27 C270.5 229.61 270.5 228.95 270.5 228.27 C271.16 228.27 271.82 228.27 272.5 228.27 C272.5 227.61 272.5 226.95 272.5 226.27 C273.16 226.27 273.82 226.27 274.5 226.27 C274.5 225.61 274.5 224.95 274.5 224.27 C275.16 224.27 275.82 224.27 276.5 224.27 C276.5 223.61 276.5 222.95 276.5 222.27 C277.16 222.27 277.82 222.27 278.5 222.27 C278.5 221.61 278.5 220.95 278.5 220.27 C279.16 220.27 279.82 220.27 280.5 220.27 C280.5 218.95 280.5 217.63 280.5 216.27 C279.84 216.27 279.18 216.27 278.5 216.27 C277.51 213.3 277.51 213.3 276.5 210.27 C275.84 210.27 275.18 210.27 274.5 210.27 C274.07 209.34 274.07 209.34 273.63 208.39 C272.57 206.13 272.57 206.13 270.5 204.27 C267.85 203.53 265.25 202.9 262.57 202.33 C261.78 202.16 260.99 201.98 260.17 201.81 C253.36 200.36 246.5 199.23 239.61 198.22 C236.46 197.75 233.53 197.27 230.5 196.27 C228.67 196.07 226.84 195.9 225 195.77 C221.9 195.53 219.47 195.25 216.5 194.27 C214.38 194.15 212.25 194.09 210.13 194.08 C208.45 194.06 208.45 194.06 206.73 194.04 C203.56 194.26 201.36 194.91 198.5 196.27 Z M-336.5 230.27 C-337.49 230.93 -338.48 231.59 -339.5 232.27 C-339.5 232.93 -339.5 233.59 -339.5 234.27 C-340.11 234.41 -340.73 234.55 -341.37 234.7 C-343.53 235.2 -343.53 235.2 -345.5 236.27 C-345.5 236.93 -345.5 237.59 -345.5 238.27 C-346.11 238.41 -346.73 238.55 -347.37 238.7 C-349.53 239.2 -349.53 239.2 -351.5 240.27 C-351.5 240.93 -351.5 241.59 -351.5 242.27 C-353.48 242.93 -355.46 243.59 -357.5 244.27 C-357.5 244.93 -357.5 245.59 -357.5 246.27 C-359.48 246.93 -361.46 247.59 -363.5 248.27 C-363.5 248.93 -363.5 249.59 -363.5 250.27 C-364.83 250.61 -364.83 250.61 -366.18 250.95 C-369.93 252.44 -371.83 254.29 -374.5 257.27 C-367.51 258.16 -360.63 258.47 -353.59 258.58 C-351.9 258.61 -351.9 258.61 -350.17 258.65 C-347.8 258.69 -345.43 258.73 -343.05 258.77 C-339.47 258.83 -335.89 258.89 -332.3 258.96 C-320.37 259.17 -308.43 259.34 -296.5 259.27 C-296.99 257.78 -296.99 257.78 -297.5 256.27 C-298.16 256.27 -298.82 256.27 -299.5 256.27 C-299.5 255.61 -299.5 254.95 -299.5 254.27 C-300.16 254.27 -300.82 254.27 -301.5 254.27 C-301.5 253.61 -301.5 252.95 -301.5 252.27 C-302.16 252.27 -302.82 252.27 -303.5 252.27 C-303.81 251.12 -303.81 251.12 -304.12 249.95 C-306.37 245.56 -310.19 244.76 -314.62 243.08 C-317.64 242.08 -317.64 242.08 -321.5 242.27 C-321.5 241.61 -321.5 240.95 -321.5 240.27 C-325.17 237.35 -325.17 237.35 -329.5 236.27 C-329.5 235.61 -329.5 234.95 -329.5 234.27 C-331.81 232.95 -334.12 231.63 -336.5 230.27 Z M293.5 230.27 C292.51 230.93 291.52 231.59 290.5 232.27 C290.5 232.93 290.5 233.59 290.5 234.27 C289.74 234.55 288.98 234.84 288.19 235.14 C285.35 236.23 285.35 236.23 282.5 238.27 C282.5 238.93 282.5 239.59 282.5 240.27 C276.5 242.27 276.5 242.27 274.28 242.89 C269.15 244.4 265.94 245.95 262.5 250.27 C262.5 250.93 262.5 251.59 262.5 252.27 C261.84 252.27 261.18 252.27 260.5 252.27 C260.5 252.93 260.5 253.59 260.5 254.27 C259.84 254.27 259.18 254.27 258.5 254.27 C258.5 254.93 258.5 255.59 258.5 256.27 C257.84 256.27 257.18 256.27 256.5 256.27 C256.5 256.93 256.5 257.59 256.5 258.27 C264.79 258.29 273.07 258.31 281.36 258.32 C285.21 258.32 289.05 258.33 292.9 258.34 C296.62 258.35 300.35 258.36 304.07 258.36 C305.48 258.36 306.89 258.37 308.3 258.37 C316.43 258.4 324.42 258.2 332.5 257.27 C331.03 252.84 328.6 252.35 324.5 250.27 C323.84 250.27 323.18 250.27 322.5 250.27 C322.5 249.61 322.5 248.95 322.5 248.27 C319.69 245.99 319.69 245.99 316.5 246.27 C316.5 245.61 316.5 244.95 316.5 244.27 C313.69 241.99 313.69 241.99 310.5 242.27 C310.5 241.61 310.5 240.95 310.5 240.27 C307.69 237.99 307.69 237.99 304.5 238.27 C304.5 237.61 304.5 236.95 304.5 236.27 C302.52 235.61 300.54 234.95 298.5 234.27 C298.5 233.61 298.5 232.95 298.5 232.27 C296.03 231.28 296.03 231.28 293.5 230.27 Z M-310.5 417.27 C-311.64 420.68 -311.35 421.29 -310.12 424.52 C-309.07 427.45 -308.26 430.17 -307.87 433.27 C-307.82 436.14 -307.82 436.14 -306.5 437.27 C-306.16 439.6 -305.83 441.93 -305.5 444.27 C-305.17 444.6 -304.84 444.93 -304.5 445.27 C-303.94 448.35 -303.4 451.44 -302.95 454.54 C-301.84 460.91 -298.82 463.44 -293.93 467.29 C-293.08 467.88 -292.24 468.47 -291.37 469.08 C-290.1 469.98 -290.1 469.98 -288.8 470.91 C-286.51 472.52 -286.51 472.52 -283.5 472.27 C-283.5 472.93 -283.5 473.59 -283.5 474.27 C-281.52 474.93 -279.54 475.59 -277.5 476.27 C-277.5 476.93 -277.5 477.59 -277.5 478.27 C-275.52 478.93 -273.54 479.59 -271.5 480.27 C-271.5 480.93 -271.5 481.59 -271.5 482.27 C-268.53 483.26 -268.53 483.26 -265.5 484.27 C-265.5 484.93 -265.5 485.59 -265.5 486.27 C-262.53 487.26 -262.53 487.26 -259.5 488.27 C-259.5 488.93 -259.5 489.59 -259.5 490.27 C-258.68 490.74 -257.86 491.21 -257.01 491.69 C-255.4 492.63 -255.4 492.63 -253.75 493.58 C-252.68 494.19 -251.61 494.81 -250.51 495.44 C-247.5 497.27 -247.5 497.27 -245.23 499 C-243.59 500.46 -243.59 500.46 -241.5 500.27 C-241.5 500.93 -241.5 501.59 -241.5 502.27 C-240.96 502.55 -240.43 502.83 -239.88 503.11 C-234.49 506.01 -229.57 509.26 -224.66 512.91 C-222.5 514.53 -222.5 514.53 -219.5 514.27 C-219.5 514.93 -219.5 515.59 -219.5 516.27 C-216.68 518.54 -216.68 518.54 -213.5 518.27 C-213.5 518.93 -213.5 519.59 -213.5 520.27 C-212.06 521.27 -210.63 522.27 -209.18 523.27 C-208.38 523.82 -207.58 524.38 -206.76 524.95 C-204.5 526.52 -204.5 526.52 -201.5 526.27 C-201.5 526.93 -201.5 527.59 -201.5 528.27 C-198.68 530.54 -198.68 530.54 -195.5 530.27 C-195.5 530.93 -195.5 531.59 -195.5 532.27 C-192.68 534.54 -192.68 534.54 -189.5 534.27 C-189.5 534.93 -189.5 535.59 -189.5 536.27 C-186.68 538.54 -186.68 538.54 -183.5 538.27 C-183.5 538.93 -183.5 539.59 -183.5 540.27 C-180.68 542.54 -180.68 542.54 -177.5 542.27 C-177.4 542.87 -177.3 543.47 -177.19 544.09 C-174.99 557.24 -172.54 570.28 -169.5 583.27 C-174.48 580.84 -179.2 578.28 -183.83 575.22 C-185.47 574.1 -185.47 574.1 -187.5 574.27 C-187.5 573.61 -187.5 572.95 -187.5 572.27 C-189.48 571.61 -191.46 570.95 -193.5 570.27 C-193.5 569.61 -193.5 568.95 -193.5 568.27 C-195.48 567.61 -197.46 566.95 -199.5 566.27 C-199.5 565.61 -199.5 564.95 -199.5 564.27 C-201.48 563.61 -203.46 562.95 -205.5 562.27 C-205.5 561.61 -205.5 560.95 -205.5 560.27 C-206.54 559.68 -206.54 559.68 -207.61 559.08 C-216.76 553.86 -225.38 547.99 -234.04 542 C-235.89 540.72 -237.74 539.45 -239.6 538.18 C-240.16 537.78 -240.73 537.39 -241.31 536.98 C-244.14 534.89 -244.14 534.89 -247.5 534.27 C-247.5 533.61 -247.5 532.95 -247.5 532.27 C-248.28 531.85 -248.28 531.85 -249.08 531.43 C-256.43 527.46 -263.24 522.81 -270.12 518.09 C-271.01 517.48 -271.91 516.87 -272.83 516.25 C-273.63 515.7 -274.43 515.15 -275.26 514.58 C-277.38 513.33 -279.09 512.71 -281.5 512.27 C-281.5 511.61 -281.5 510.95 -281.5 510.27 C-283.48 509.61 -285.46 508.95 -287.5 508.27 C-286.96 514.07 -285.3 519.32 -283.54 524.87 C-282.58 527.99 -281.76 531.1 -281 534.27 C-280.5 536.27 -280 538.27 -279.5 540.27 C-279.22 541.41 -278.95 542.55 -278.67 543.73 C-276.84 551.09 -276.84 551.09 -271.93 556.58 C-268.69 558.49 -268.69 558.49 -265.5 558.27 C-265.5 558.93 -265.5 559.59 -265.5 560.27 C-264.4 560.93 -263.31 561.59 -262.18 562.27 C-261.26 562.82 -261.26 562.82 -260.32 563.39 C-258.38 564.48 -258.38 564.48 -255.5 564.27 C-255.5 564.93 -255.5 565.59 -255.5 566.27 C-252.53 567.26 -252.53 567.26 -249.5 568.27 C-249.5 568.93 -249.5 569.59 -249.5 570.27 C-247.52 570.93 -245.54 571.59 -243.5 572.27 C-243.5 572.93 -243.5 573.59 -243.5 574.27 C-240.68 576.54 -240.68 576.54 -237.5 576.27 C-237.5 576.93 -237.5 577.59 -237.5 578.27 C-235.52 578.93 -233.54 579.59 -231.5 580.27 C-231.5 580.93 -231.5 581.59 -231.5 582.27 C-229.52 582.93 -227.54 583.59 -225.5 584.27 C-225.5 584.93 -225.5 585.59 -225.5 586.27 C-224.4 586.93 -223.31 587.59 -222.18 588.27 C-221.26 588.82 -221.26 588.82 -220.32 589.39 C-218.38 590.48 -218.38 590.48 -215.5 590.27 C-215.5 590.93 -215.5 591.59 -215.5 592.27 C-213.52 592.93 -211.54 593.59 -209.5 594.27 C-209.5 594.93 -209.5 595.59 -209.5 596.27 C-207.77 597.37 -206.04 598.47 -204.31 599.58 C-203.35 600.19 -202.38 600.81 -201.39 601.44 C-200.44 602.04 -199.48 602.65 -198.5 603.27 C-197.59 603.84 -196.69 604.41 -195.76 605 C-193.64 606.43 -193.64 606.43 -191.5 606.27 C-191.5 606.93 -191.5 607.59 -191.5 608.27 C-189.52 608.93 -187.54 609.59 -185.5 610.27 C-185.5 610.93 -185.5 611.59 -185.5 612.27 C-184.56 612.8 -183.61 613.33 -182.64 613.88 C-181.39 614.59 -180.13 615.3 -178.87 616.02 C-178.25 616.36 -177.64 616.71 -177 617.07 C-173.97 618.79 -171.03 620.55 -168.16 622.53 C-165.75 624.45 -165.75 624.45 -163.5 624.27 C-163.5 624.93 -163.5 625.59 -163.5 626.27 C-162.84 626.27 -162.18 626.27 -161.5 626.27 C-158.57 643.84 -158.57 643.84 -158.04 647.03 C-157.67 649.25 -157.29 651.46 -156.92 653.67 C-156.73 654.75 -156.55 655.83 -156.36 656.94 C-156.2 657.91 -156.03 658.89 -155.86 659.89 C-155.5 662.27 -155.5 662.27 -155.5 664.27 C-156.16 664.27 -156.82 664.27 -157.5 664.27 C-157.5 663.61 -157.5 662.95 -157.5 662.27 C-160.31 659.99 -160.31 659.99 -163.5 660.27 C-163.5 659.61 -163.5 658.95 -163.5 658.27 C-164.59 657.61 -165.68 656.95 -166.81 656.27 C-167.42 655.89 -168.04 655.52 -168.67 655.14 C-170.61 654.05 -170.61 654.05 -173.5 654.27 C-173.5 653.61 -173.5 652.95 -173.5 652.27 C-176.47 651.28 -176.47 651.28 -179.5 650.27 C-179.5 649.61 -179.5 648.95 -179.5 648.27 C-182.47 647.28 -182.47 647.28 -185.5 646.27 C-185.5 645.61 -185.5 644.95 -185.5 644.27 C-187.48 643.61 -189.46 642.95 -191.5 642.27 C-191.5 641.61 -191.5 640.95 -191.5 640.27 C-192.59 639.61 -193.68 638.95 -194.81 638.27 C-195.73 637.71 -195.73 637.71 -196.67 637.14 C-198.61 636.05 -198.61 636.05 -201.5 636.27 C-201.5 635.61 -201.5 634.95 -201.5 634.27 C-204.31 631.99 -204.31 631.99 -207.5 632.27 C-207.5 631.61 -207.5 630.95 -207.5 630.27 C-210.31 627.99 -210.31 627.99 -213.5 628.27 C-213.5 627.61 -213.5 626.95 -213.5 626.27 C-215.48 625.61 -217.46 624.95 -219.5 624.27 C-219.5 623.61 -219.5 622.95 -219.5 622.27 C-220.59 621.61 -221.68 620.95 -222.81 620.27 C-223.73 619.71 -223.73 619.71 -224.67 619.14 C-226.61 618.05 -226.61 618.05 -229.5 618.27 C-229.5 617.61 -229.5 616.95 -229.5 616.27 C-232.31 613.99 -232.31 613.99 -235.5 614.27 C-235.5 613.61 -235.5 612.95 -235.5 612.27 C-237.48 611.61 -239.46 610.95 -241.5 610.27 C-241.5 609.61 -241.5 608.95 -241.5 608.27 C-242.1 607.94 -242.7 607.61 -243.32 607.28 C-244.12 606.84 -244.92 606.4 -245.75 605.95 C-246.53 605.52 -247.32 605.09 -248.14 604.65 C-250.5 603.27 -250.5 603.27 -252.61 601.6 C-254.52 599.98 -254.52 599.98 -257.5 600.27 C-257.5 599.61 -257.5 598.95 -257.5 598.27 C-258.82 597.94 -260.14 597.61 -261.5 597.27 C-259.36 607.57 -256.71 617.61 -252.5 627.27 C-251.55 630.66 -250.63 634.06 -249.75 637.47 C-248.74 640.48 -248.74 640.48 -245.86 641.65 C-245.08 641.85 -244.3 642.06 -243.5 642.27 C-243.5 642.93 -243.5 643.59 -243.5 644.27 C-242.4 644.93 -241.31 645.59 -240.18 646.27 C-239.26 646.82 -239.26 646.82 -238.32 647.39 C-236.38 648.48 -236.38 648.48 -233.5 648.27 C-233.5 648.93 -233.5 649.59 -233.5 650.27 C-231.52 650.93 -229.54 651.59 -227.5 652.27 C-227.5 652.93 -227.5 653.59 -227.5 654.27 C-225.52 654.93 -223.54 655.59 -221.5 656.27 C-221.5 656.93 -221.5 657.59 -221.5 658.27 C-219.52 658.93 -217.54 659.59 -215.5 660.27 C-215.5 660.93 -215.5 661.59 -215.5 662.27 C-213.52 662.93 -211.54 663.59 -209.5 664.27 C-209.5 664.93 -209.5 665.59 -209.5 666.27 C-207.52 666.93 -205.54 667.59 -203.5 668.27 C-203.5 668.93 -203.5 669.59 -203.5 670.27 C-201.52 670.93 -199.54 671.59 -197.5 672.27 C-197.5 672.93 -197.5 673.59 -197.5 674.27 C-195.52 674.93 -193.54 675.59 -191.5 676.27 C-191.5 676.93 -191.5 677.59 -191.5 678.27 C-189.52 678.93 -187.54 679.59 -185.5 680.27 C-185.5 680.93 -185.5 681.59 -185.5 682.27 C-183.52 682.93 -181.54 683.59 -179.5 684.27 C-179.5 684.93 -179.5 685.59 -179.5 686.27 C-177.52 686.93 -175.54 687.59 -173.5 688.27 C-173.5 688.93 -173.5 689.59 -173.5 690.27 C-170.68 692.54 -170.68 692.54 -167.5 692.27 C-167.5 692.93 -167.5 693.59 -167.5 694.27 C-163.83 697.18 -163.83 697.18 -159.5 698.27 C-159.5 698.93 -159.5 699.59 -159.5 700.27 C-157.52 700.93 -155.54 701.59 -153.5 702.27 C-153.5 702.93 -153.5 703.59 -153.5 704.27 C-150.68 706.54 -150.68 706.54 -147.5 706.27 C-147.5 706.93 -147.5 707.59 -147.5 708.27 C-144.68 710.54 -144.68 710.54 -141.5 710.27 C-141.5 710.93 -141.5 711.59 -141.5 712.27 C-137.83 715.18 -137.83 715.18 -133.5 716.27 C-133.5 716.93 -133.5 717.59 -133.5 718.27 C-129.83 721.18 -129.83 721.18 -125.5 722.27 C-125.5 722.93 -125.5 723.59 -125.5 724.27 C-123.52 724.93 -121.54 725.59 -119.5 726.27 C-119.5 726.93 -119.5 727.59 -119.5 728.27 C-115.83 731.18 -115.83 731.18 -111.5 732.27 C-111.5 732.93 -111.5 733.59 -111.5 734.27 C-107.83 737.18 -107.83 737.18 -103.5 738.27 C-103.5 738.93 -103.5 739.59 -103.5 740.27 C-101.54 741.6 -99.58 742.94 -97.62 744.27 C-95.99 745.38 -95.99 745.38 -94.32 746.52 C-91.77 748.44 -91.77 748.44 -89.5 748.27 C-89.5 748.93 -89.5 749.59 -89.5 750.27 C-85.83 753.18 -85.83 753.18 -81.5 754.27 C-81.5 754.93 -81.5 755.59 -81.5 756.27 C-77.83 759.18 -77.83 759.18 -73.5 760.27 C-73.5 760.93 -73.5 761.59 -73.5 762.27 C-69.83 765.18 -69.83 765.18 -65.5 766.27 C-65.5 766.93 -65.5 767.59 -65.5 768.27 C-63.52 768.93 -61.54 769.59 -59.5 770.27 C-59.5 770.93 -59.5 771.59 -59.5 772.27 C-55.83 775.18 -55.83 775.18 -51.5 776.27 C-51.5 776.93 -51.5 777.59 -51.5 778.27 C-47.83 781.18 -47.83 781.18 -43.5 782.27 C-43.5 782.93 -43.5 783.59 -43.5 784.27 C-41.52 784.93 -39.54 785.59 -37.5 786.27 C-37.5 786.93 -37.5 787.59 -37.5 788.27 C-36.84 788.27 -36.18 788.27 -35.5 788.27 C-35.5 788.93 -35.5 789.59 -35.5 790.27 C-33.52 790.93 -31.54 791.59 -29.5 792.27 C-29.5 792.93 -29.5 793.59 -29.5 794.27 C-26.68 796.54 -26.68 796.54 -23.5 796.27 C-23.5 796.93 -23.5 797.59 -23.5 798.27 C-19.54 797.7 -16.83 796.46 -13.5 794.27 C-13.5 793.61 -13.5 792.95 -13.5 792.27 C-12.35 791.83 -12.35 791.83 -11.18 791.39 C-8.35 790.3 -8.35 790.3 -5.5 788.27 C-5.5 787.61 -5.5 786.95 -5.5 786.27 C-4.35 785.83 -4.35 785.83 -3.18 785.39 C-0.35 784.3 -0.35 784.3 2.5 782.27 C2.5 781.61 2.5 780.95 2.5 780.27 C4.48 779.61 6.46 778.95 8.5 778.27 C8.5 777.61 8.5 776.95 8.5 776.27 C9.16 776.27 9.82 776.27 10.5 776.27 C10.5 775.61 10.5 774.95 10.5 774.27 C11.65 773.83 11.65 773.83 12.82 773.39 C15.65 772.3 15.65 772.3 18.5 770.27 C18.5 769.61 18.5 768.95 18.5 768.27 C20.48 767.61 22.46 766.95 24.5 766.27 C24.5 765.61 24.5 764.95 24.5 764.27 C27.17 762.93 29.84 761.6 32.5 760.27 C32.5 759.61 32.5 758.95 32.5 758.27 C33.65 757.83 33.65 757.83 34.82 757.39 C37.65 756.3 37.65 756.3 40.5 754.27 C40.5 753.61 40.5 752.95 40.5 752.27 C41.65 751.83 41.65 751.83 42.82 751.39 C45.65 750.3 45.65 750.3 48.5 748.27 C48.5 747.61 48.5 746.95 48.5 746.27 C49.65 745.83 49.65 745.83 50.82 745.39 C53.65 744.3 53.65 744.3 56.5 742.27 C56.5 741.61 56.5 740.95 56.5 740.27 C58.48 739.61 60.46 738.95 62.5 738.27 C62.5 737.61 62.5 736.95 62.5 736.27 C63.65 735.83 63.65 735.83 64.82 735.39 C67.65 734.3 67.65 734.3 70.5 732.27 C70.5 731.61 70.5 730.95 70.5 730.27 C71.65 729.83 71.65 729.83 72.82 729.39 C75.65 728.3 75.65 728.3 78.5 726.27 C78.5 725.61 78.5 724.95 78.5 724.27 C80.48 723.61 82.46 722.95 84.5 722.27 C84.5 721.61 84.5 720.95 84.5 720.27 C85.65 719.83 85.65 719.83 86.82 719.39 C89.65 718.3 89.65 718.3 92.5 716.27 C92.5 715.61 92.5 714.95 92.5 714.27 C94.48 713.61 96.46 712.95 98.5 712.27 C98.5 711.61 98.5 710.95 98.5 710.27 C99.16 710.27 99.82 710.27 100.5 710.27 C100.5 709.61 100.5 708.95 100.5 708.27 C101.12 708.12 101.74 707.98 102.38 707.83 C104.54 707.33 104.54 707.33 106.5 706.27 C106.5 705.61 106.5 704.95 106.5 704.27 C108.48 703.61 110.46 702.95 112.5 702.27 C112.5 701.61 112.5 700.95 112.5 700.27 C113.65 699.83 113.65 699.83 114.82 699.39 C117.65 698.3 117.65 698.3 120.5 696.27 C120.5 695.61 120.5 694.95 120.5 694.27 C121.12 694.12 121.74 693.98 122.38 693.83 C124.54 693.33 124.54 693.33 126.5 692.27 C126.5 691.61 126.5 690.95 126.5 690.27 C127.12 690.12 127.74 689.98 128.38 689.83 C130.54 689.33 130.54 689.33 132.5 688.27 C132.5 687.61 132.5 686.95 132.5 686.27 C133.12 686.12 133.74 685.98 134.38 685.83 C136.54 685.33 136.54 685.33 138.5 684.27 C138.5 683.61 138.5 682.95 138.5 682.27 C140.48 681.61 142.46 680.95 144.5 680.27 C144.5 679.61 144.5 678.95 144.5 678.27 C146.48 677.61 148.46 676.95 150.5 676.27 C150.5 675.61 150.5 674.95 150.5 674.27 C152.48 673.61 154.46 672.95 156.5 672.27 C156.5 671.61 156.5 670.95 156.5 670.27 C158.48 669.61 160.46 668.95 162.5 668.27 C162.5 667.61 162.5 666.95 162.5 666.27 C164.48 665.61 166.46 664.95 168.5 664.27 C168.5 663.61 168.5 662.95 168.5 662.27 C169.12 662.12 169.74 661.98 170.38 661.83 C172.54 661.33 172.54 661.33 174.5 660.27 C174.5 659.61 174.5 658.95 174.5 658.27 C175.04 658.16 175.58 658.06 176.13 657.95 C179.13 657.08 181.74 655.71 184.5 654.27 C184.5 653.61 184.5 652.95 184.5 652.27 C186.48 651.61 188.46 650.95 190.5 650.27 C190.5 649.61 190.5 648.95 190.5 648.27 C192.48 647.61 194.46 646.95 196.5 646.27 C196.5 645.61 196.5 644.95 196.5 644.27 C197.41 644.06 198.32 643.85 199.25 643.64 C203.4 641.88 204.28 640.15 206.5 636.27 C207.41 633.69 208.18 631.21 208.88 628.58 C209.29 627.08 209.71 625.59 210.13 624.09 C210.35 623.31 210.56 622.53 210.79 621.72 C211.54 619.14 212.35 616.59 213.19 614.04 C213.61 612.75 213.61 612.75 214.04 611.43 C214.59 609.76 215.15 608.09 215.71 606.42 C217.3 601.89 217.3 601.89 216.5 597.27 C214.52 598.26 212.54 599.25 210.5 600.27 C210.5 600.93 210.5 601.59 210.5 602.27 C207.53 603.26 207.53 603.26 204.5 604.27 C204.5 604.93 204.5 605.59 204.5 606.27 C203.89 606.41 203.27 606.55 202.63 606.7 C200.47 607.2 200.47 607.2 198.5 608.27 C198.5 608.93 198.5 609.59 198.5 610.27 C197.18 610.27 195.86 610.27 194.5 610.27 C194.5 610.93 194.5 611.59 194.5 612.27 C192.52 612.93 190.54 613.59 188.5 614.27 C188.5 614.93 188.5 615.59 188.5 616.27 C186.52 616.93 184.54 617.59 182.5 618.27 C182.5 618.93 182.5 619.59 182.5 620.27 C180.52 620.93 178.54 621.59 176.5 622.27 C176.5 622.93 176.5 623.59 176.5 624.27 C175.97 624.37 175.43 624.47 174.88 624.58 C171.88 625.45 169.27 626.82 166.5 628.27 C166.5 628.93 166.5 629.59 166.5 630.27 C164.52 630.93 162.54 631.59 160.5 632.27 C160.5 632.93 160.5 633.59 160.5 634.27 C159.89 634.41 159.27 634.55 158.63 634.7 C156.47 635.2 156.47 635.2 154.5 636.27 C154.5 636.93 154.5 637.59 154.5 638.27 C153.97 638.37 153.43 638.47 152.88 638.58 C149.88 639.45 147.27 640.82 144.5 642.27 C144.5 642.93 144.5 643.59 144.5 644.27 C142.52 644.93 140.54 645.59 138.5 646.27 C138.5 646.93 138.5 647.59 138.5 648.27 C136.52 648.93 134.54 649.59 132.5 650.27 C132.5 650.93 132.5 651.59 132.5 652.27 C130.52 652.93 128.54 653.59 126.5 654.27 C126.5 654.93 126.5 655.59 126.5 656.27 C125.97 656.37 125.43 656.47 124.88 656.58 C121.88 657.45 119.27 658.82 116.5 660.27 C116.5 660.93 116.5 661.59 116.5 662.27 C114.52 662.6 112.54 662.93 110.5 663.27 C110.8 662.64 111.1 662.01 111.41 661.36 C112.88 657.2 113.41 653.06 114 648.7 C114.26 646.92 114.52 645.13 114.77 643.34 C114.9 642.47 115.02 641.61 115.15 640.72 C115.85 635.89 116.67 631.08 117.5 626.27 C118.25 625.99 119 625.71 119.78 625.43 C122.23 624.38 124.03 623.31 126.13 621.7 C128.38 619.99 129.75 619.18 132.5 618.27 C132.5 617.61 132.5 616.95 132.5 616.27 C134.48 615.61 136.46 614.95 138.5 614.27 C138.5 613.61 138.5 612.95 138.5 612.27 C139.37 612.02 140.24 611.77 141.13 611.52 C144.69 610.2 147.43 608.46 150.5 606.27 C150.5 605.61 150.5 604.95 150.5 604.27 C151.29 604.08 152.07 603.89 152.88 603.7 C157.14 602.01 160.39 599.63 164.09 596.95 C166.81 595.05 169.48 593.62 172.5 592.27 C172.5 591.61 172.5 590.95 172.5 590.27 C173.37 590.02 174.24 589.77 175.13 589.52 C178.69 588.2 181.43 586.46 184.5 584.27 C184.5 583.61 184.5 582.95 184.5 582.27 C185.09 582.15 185.67 582.03 186.27 581.91 C188.62 581.23 190.27 580.33 192.32 579.02 C193.02 578.57 193.72 578.13 194.45 577.67 C195.17 577.21 195.89 576.74 196.63 576.27 C198.07 575.35 199.51 574.43 200.95 573.52 C201.58 573.11 202.22 572.7 202.87 572.28 C204.5 571.27 204.5 571.27 206.5 570.27 C206.5 569.61 206.5 568.95 206.5 568.27 C209.47 567.28 209.47 567.28 212.5 566.27 C212.5 565.61 212.5 564.95 212.5 564.27 C215.47 563.28 215.47 563.28 218.5 562.27 C218.5 561.61 218.5 560.95 218.5 560.27 C219.04 560.16 219.58 560.06 220.13 559.95 C223.13 559.08 225.74 557.71 228.5 556.27 C228.5 555.61 228.5 554.95 228.5 554.27 C229.43 553.97 229.43 553.97 230.38 553.66 C233.49 551.62 233.65 549.51 234.57 545.95 C234.9 544.69 235.23 543.44 235.57 542.14 C236.69 537.52 237.75 532.88 238.79 528.23 C239.6 524.86 240.66 521.62 241.81 518.34 C242.92 515.03 243.7 511.66 244.5 508.27 C243.18 508.27 241.86 508.27 240.5 508.27 C240.5 508.93 240.5 509.59 240.5 510.27 C237.53 511.26 237.53 511.26 234.5 512.27 C234.5 512.93 234.5 513.59 234.5 514.27 C231.53 515.26 231.53 515.26 228.5 516.27 C228.5 516.93 228.5 517.59 228.5 518.27 C227.89 518.41 227.27 518.55 226.63 518.7 C224.47 519.2 224.47 519.2 222.5 520.27 C222.5 520.93 222.5 521.59 222.5 522.27 C219.53 523.26 219.53 523.26 216.5 524.27 C216.5 524.93 216.5 525.59 216.5 526.27 C213.53 527.26 213.53 527.26 210.5 528.27 C210.5 528.93 210.5 529.59 210.5 530.27 C207.53 531.26 207.53 531.26 204.5 532.27 C204.5 532.93 204.5 533.59 204.5 534.27 C203.91 534.39 203.32 534.52 202.71 534.64 C199.23 535.63 196.44 537.75 193.46 539.75 C192.78 540.2 192.1 540.65 191.4 541.11 C189.22 542.55 187.05 544 184.88 545.45 C182.03 547.35 179.19 549.23 176.34 551.12 C175.66 551.57 174.98 552.03 174.27 552.49 C169.11 555.9 163.86 559.16 158.5 562.27 C158.5 562.93 158.5 563.59 158.5 564.27 C156.52 564.93 154.54 565.59 152.5 566.27 C152.5 566.93 152.5 567.59 152.5 568.27 C150.52 568.93 148.54 569.59 146.5 570.27 C146.5 570.93 146.5 571.59 146.5 572.27 C145.94 572.37 145.37 572.47 144.79 572.58 C142.09 573.39 140.24 574.65 137.94 576.27 C135.38 578.07 133.5 579.27 130.5 580.27 C130.5 580.93 130.5 581.59 130.5 582.27 C129.18 582.27 127.86 582.27 126.5 582.27 C129.2 562.27 129.2 562.27 130.94 552.7 C131.25 550.97 131.25 550.97 131.56 549.2 C132.62 545.9 133.97 544.56 136.5 542.27 C136.5 541.61 136.5 540.95 136.5 540.27 C137.12 540.12 137.74 539.98 138.38 539.83 C140.54 539.33 140.54 539.33 142.5 538.27 C142.5 537.61 142.5 536.95 142.5 536.27 C143.12 536.12 143.74 535.98 144.38 535.83 C146.54 535.33 146.54 535.33 148.5 534.27 C148.5 533.61 148.5 532.95 148.5 532.27 C149.12 532.12 149.74 531.98 150.38 531.83 C152.54 531.33 152.54 531.33 154.5 530.27 C154.5 529.61 154.5 528.95 154.5 528.27 C155.12 528.12 155.74 527.98 156.38 527.83 C158.54 527.33 158.54 527.33 160.5 526.27 C160.5 525.61 160.5 524.95 160.5 524.27 C161.09 524.15 161.68 524.03 162.28 523.91 C164.6 523.24 166.1 522.38 168.07 521.02 C168.72 520.57 169.37 520.13 170.04 519.67 C170.71 519.21 171.38 518.74 172.07 518.27 C173.4 517.35 174.73 516.43 176.07 515.52 C176.66 515.11 177.24 514.7 177.85 514.28 C179.5 513.27 179.5 513.27 182.5 512.27 C182.5 511.61 182.5 510.95 182.5 510.27 C184.48 509.61 186.46 508.95 188.5 508.27 C188.5 507.61 188.5 506.95 188.5 506.27 C190.48 505.61 192.46 504.95 194.5 504.27 C194.5 503.61 194.5 502.95 194.5 502.27 C196.48 501.61 198.46 500.95 200.5 500.27 C200.5 499.61 200.5 498.95 200.5 498.27 C203.47 497.28 203.47 497.28 206.5 496.27 C206.5 495.61 206.5 494.95 206.5 494.27 C207.12 494.12 207.74 493.98 208.38 493.83 C210.54 493.33 210.54 493.33 212.5 492.27 C212.5 491.61 212.5 490.95 212.5 490.27 C213.12 490.12 213.74 489.98 214.38 489.83 C216.54 489.33 216.54 489.33 218.5 488.27 C218.5 487.61 218.5 486.95 218.5 486.27 C219.12 486.12 219.74 485.98 220.38 485.83 C222.54 485.33 222.54 485.33 224.5 484.27 C224.5 483.61 224.5 482.95 224.5 482.27 C225.07 482.16 225.63 482.05 226.21 481.95 C228.9 481.15 230.8 479.95 233.13 478.39 C234 477.82 234.87 477.25 235.77 476.65 C236.67 476.05 237.57 475.45 238.5 474.83 C240.29 473.64 242.09 472.45 243.88 471.27 C245.07 470.48 245.07 470.48 246.28 469.67 C248.31 468.39 250.34 467.29 252.5 466.27 C252.5 465.61 252.5 464.95 252.5 464.27 C253.43 463.96 253.43 463.96 254.38 463.64 C257.44 461.66 257.65 459.75 258.5 456.27 C258.65 455.17 258.79 454.08 258.94 452.95 C259.37 450.11 259.88 447.98 260.82 445.33 C262.34 440.96 263.55 436.55 264.69 432.08 C264.87 431.4 265.05 430.72 265.23 430.03 C266.24 426.02 266.69 422.39 266.5 418.27 C265.84 418.27 265.18 418.27 264.5 418.27 C264.5 418.93 264.5 419.59 264.5 420.27 C263.93 420.38 263.36 420.49 262.77 420.61 C260.26 421.34 258.44 422.4 256.25 423.83 C255.55 424.28 254.84 424.74 254.11 425.21 C253.58 425.56 253.05 425.91 252.5 426.27 C252.5 426.93 252.5 427.59 252.5 428.27 C251.97 428.37 251.43 428.47 250.88 428.58 C247.88 429.45 245.27 430.82 242.5 432.27 C242.5 432.93 242.5 433.59 242.5 434.27 C241.82 434.51 241.14 434.76 240.44 435.02 C236.94 436.51 233.79 438.33 230.5 440.27 C230.5 440.93 230.5 441.59 230.5 442.27 C227.53 443.26 227.53 443.26 224.5 444.27 C224.5 444.93 224.5 445.59 224.5 446.27 C221.53 447.26 221.53 447.26 218.5 448.27 C218.5 448.93 218.5 449.59 218.5 450.27 C216.52 450.93 214.54 451.59 212.5 452.27 C212.5 452.93 212.5 453.59 212.5 454.27 C210.52 454.93 208.54 455.59 206.5 456.27 C206.5 456.93 206.5 457.59 206.5 458.27 C205.7 458.42 205.7 458.42 204.88 458.58 C201.88 459.45 199.27 460.82 196.5 462.27 C196.5 462.93 196.5 463.59 196.5 464.27 C195.36 464.7 195.36 464.7 194.19 465.14 C191.35 466.23 191.35 466.23 188.5 468.27 C188.5 468.93 188.5 469.59 188.5 470.27 C187.7 470.42 187.7 470.42 186.88 470.58 C183.88 471.45 181.27 472.82 178.5 474.27 C178.5 474.93 178.5 475.59 178.5 476.27 C176.52 476.93 174.54 477.59 172.5 478.27 C172.5 478.93 172.5 479.59 172.5 480.27 C170.52 480.93 168.54 481.59 166.5 482.27 C166.5 482.93 166.5 483.59 166.5 484.27 C164.52 484.93 162.54 485.59 160.5 486.27 C160.5 486.93 160.5 487.59 160.5 488.27 C158.52 488.93 156.54 489.59 154.5 490.27 C154.5 490.93 154.5 491.59 154.5 492.27 C152.52 492.93 150.54 493.59 148.5 494.27 C148.5 494.93 148.5 495.59 148.5 496.27 C146.52 496.93 144.54 497.59 142.5 498.27 C142.5 498.93 142.5 499.59 142.5 500.27 C140.52 500.93 138.54 501.59 136.5 502.27 C136.5 502.93 136.5 503.59 136.5 504.27 C134.52 504.93 132.54 505.59 130.5 506.27 C130.5 506.93 130.5 507.59 130.5 508.27 C128.52 508.93 126.54 509.59 124.5 510.27 C124.5 510.93 124.5 511.59 124.5 512.27 C122.52 512.93 120.54 513.59 118.5 514.27 C118.5 514.93 118.5 515.59 118.5 516.27 C116.52 516.93 114.54 517.59 112.5 518.27 C112.5 518.93 112.5 519.59 112.5 520.27 C111.89 520.33 111.27 520.39 110.63 520.45 C108.33 521.06 108.33 521.06 107.46 523.25 C106.2 527.21 105.65 531.16 105.07 535.27 C104.08 541.89 102.86 548.35 101.26 554.85 C100.12 559.98 99.31 565.16 98.51 570.35 C97.6 576.07 97.6 576.07 96.5 578.27 C96.23 579.76 96 581.26 95.79 582.77 C95.66 583.65 95.53 584.54 95.4 585.45 C95.2 586.85 95.2 586.85 95 588.27 C94.75 590.1 94.49 591.93 94.22 593.77 C94.11 594.58 93.99 595.39 93.88 596.23 C93.5 598.27 93.5 598.27 92.5 600.27 C92.01 603.16 91.56 606.05 91.13 608.95 C90.22 614.94 89.23 620.89 88 626.83 C86.44 634.41 85.17 642.01 83.93 649.65 C83.11 654.69 82.28 659.73 81.44 664.77 C81.28 665.76 81.12 666.75 80.95 667.77 C80.48 670.6 80 673.43 79.5 676.27 C79.35 677.21 79.19 678.15 79.03 679.12 C78.87 680.01 78.71 680.91 78.55 681.83 C78.41 682.62 78.27 683.42 78.13 684.24 C77.18 687.33 75.16 688.59 72.5 690.27 C72.5 690.93 72.5 691.59 72.5 692.27 C71.97 692.51 71.43 692.76 70.88 693.02 C67.94 694.56 65.25 696.4 62.5 698.27 C62.5 698.93 62.5 699.59 62.5 700.27 C61.36 700.7 61.36 700.7 60.19 701.14 C57.35 702.23 57.35 702.23 54.5 704.27 C54.5 704.93 54.5 705.59 54.5 706.27 C53.42 706.64 53.42 706.64 52.32 707.02 C49.23 708.39 46.99 709.99 44.5 712.27 C44.5 712.93 44.5 713.59 44.5 714.27 C41.84 715.6 39.17 716.93 36.5 718.27 C36.5 718.93 36.5 719.59 36.5 720.27 C35.84 720.27 35.18 720.27 34.5 720.27 C34.5 720.93 34.5 721.59 34.5 722.27 C33.36 722.7 33.36 722.7 32.19 723.14 C29.35 724.23 29.35 724.23 26.5 726.27 C26.5 726.93 26.5 727.59 26.5 728.27 C25.84 728.27 25.18 728.27 24.5 728.27 C24.5 728.93 24.5 729.59 24.5 730.27 C23.36 730.7 23.36 730.7 22.19 731.14 C19.35 732.23 19.35 732.23 16.5 734.27 C16.5 734.93 16.5 735.59 16.5 736.27 C15.84 736.27 15.18 736.27 14.5 736.27 C14.5 736.93 14.5 737.59 14.5 738.27 C13.36 738.7 13.36 738.7 12.19 739.14 C9.35 740.23 9.35 740.23 6.5 742.27 C6.5 742.93 6.5 743.59 6.5 744.27 C5.84 744.27 5.18 744.27 4.5 744.27 C4.5 744.93 4.5 745.59 4.5 746.27 C3.36 746.7 3.36 746.7 2.19 747.14 C-0.65 748.23 -0.65 748.23 -3.5 750.27 C-3.5 750.93 -3.5 751.59 -3.5 752.27 C-4.16 752.27 -4.82 752.27 -5.5 752.27 C-5.5 752.93 -5.5 753.59 -5.5 754.27 C-6.64 754.7 -6.64 754.7 -7.81 755.14 C-10.65 756.23 -10.65 756.23 -13.5 758.27 C-13.5 758.93 -13.5 759.59 -13.5 760.27 C-14.11 760.55 -14.73 760.84 -15.37 761.14 C-17.63 762.2 -17.63 762.2 -19.5 764.27 C-22.26 763.74 -24.82 763.16 -27.5 762.27 C-27.5 761.61 -27.5 760.95 -27.5 760.27 C-31.17 757.35 -31.17 757.35 -35.5 756.27 C-35.5 755.61 -35.5 754.95 -35.5 754.27 C-36.16 754.27 -36.82 754.27 -37.5 754.27 C-37.5 753.61 -37.5 752.95 -37.5 752.27 C-41.17 749.35 -41.17 749.35 -45.5 748.27 C-45.5 747.61 -45.5 746.95 -45.5 746.27 C-47.21 744.68 -47.21 744.68 -49.37 743.14 C-50.45 742.33 -50.45 742.33 -51.55 741.51 C-53.39 740.09 -53.39 740.09 -55.5 740.27 C-55.5 739.61 -55.5 738.95 -55.5 738.27 C-59.17 735.35 -59.17 735.35 -63.5 734.27 C-63.5 733.61 -63.5 732.95 -63.5 732.27 C-64.16 732.27 -64.82 732.27 -65.5 732.27 C-65.5 731.61 -65.5 730.95 -65.5 730.27 C-69.17 727.35 -69.17 727.35 -73.5 726.27 C-73.5 725.61 -73.5 724.95 -73.5 724.27 C-74.16 724.27 -74.82 724.27 -75.5 724.27 C-75.5 723.61 -75.5 722.95 -75.5 722.27 C-77.48 721.61 -79.46 720.95 -81.5 720.27 C-81.5 719.61 -81.5 718.95 -81.5 718.27 C-83.21 716.68 -83.21 716.68 -85.37 715.14 C-86.45 714.33 -86.45 714.33 -87.55 713.51 C-89.39 712.09 -89.39 712.09 -91.5 712.27 C-91.5 711.61 -91.5 710.95 -91.5 710.27 C-93.21 708.68 -93.21 708.68 -95.37 707.14 C-96.45 706.33 -96.45 706.33 -97.55 705.51 C-99.39 704.09 -99.39 704.09 -101.5 704.27 C-101.5 703.61 -101.5 702.95 -101.5 702.27 C-105.17 699.35 -105.17 699.35 -109.5 698.27 C-109.5 697.61 -109.5 696.95 -109.5 696.27 C-110.16 696.27 -110.82 696.27 -111.5 696.27 C-111.5 695.61 -111.5 694.95 -111.5 694.27 C-115.17 691.35 -115.17 691.35 -119.5 690.27 C-119.5 689.61 -119.5 688.95 -119.5 688.27 C-120.16 688.27 -120.82 688.27 -121.5 688.27 C-121.63 687.12 -121.77 685.98 -121.91 684.81 C-122.46 680.38 -123.18 675.98 -123.93 671.58 C-124.85 666.21 -125.72 660.84 -126.5 655.45 C-127.32 649.98 -128.54 644.67 -129.84 639.29 C-130.71 635.29 -131.1 631.34 -131.5 627.27 C-131.83 626.61 -132.16 625.95 -132.5 625.27 C-132.62 624.01 -132.74 622.75 -132.87 621.45 C-133.26 617.67 -133.96 614.09 -134.87 610.39 C-136.21 604.85 -137.16 599.33 -138 593.7 C-138.92 587.52 -140.1 581.56 -141.74 575.52 C-142.96 570.26 -143.71 564.93 -144.49 559.59 C-145.04 555.3 -145.04 555.3 -146.5 551.27 C-146.77 549.69 -147 548.1 -147.21 546.51 C-147.34 545.58 -147.47 544.64 -147.6 543.67 C-147.87 541.69 -148.13 539.71 -148.39 537.72 C-148.58 536.32 -148.58 536.32 -148.78 534.89 C-148.89 534.02 -149.01 533.16 -149.12 532.28 C-149.3 530.27 -149.3 530.27 -150.5 529.27 C-150.86 526.94 -151.2 524.6 -151.5 522.27 C-152.16 522.27 -152.82 522.27 -153.5 522.27 C-153.5 521.61 -153.5 520.95 -153.5 520.27 C-154.93 519.26 -156.37 518.26 -157.81 517.27 C-158.61 516.71 -159.41 516.15 -160.23 515.58 C-162.49 514.01 -162.49 514.01 -165.5 514.27 C-165.5 513.61 -165.5 512.95 -165.5 512.27 C-169.17 509.35 -169.17 509.35 -173.5 508.27 C-173.5 507.61 -173.5 506.95 -173.5 506.27 C-176.47 505.28 -176.47 505.28 -179.5 504.27 C-179.5 503.61 -179.5 502.95 -179.5 502.27 C-180.4 501.78 -180.4 501.78 -181.32 501.28 C-182.12 500.84 -182.92 500.4 -183.75 499.95 C-184.53 499.52 -185.32 499.09 -186.14 498.65 C-188.5 497.27 -188.5 497.27 -190.61 495.6 C-192.52 493.98 -192.52 493.98 -195.5 494.27 C-195.5 493.61 -195.5 492.95 -195.5 492.27 C-198.31 489.99 -198.31 489.99 -201.5 490.27 C-201.5 489.61 -201.5 488.95 -201.5 488.27 C-204.31 485.99 -204.31 485.99 -207.5 486.27 C-207.5 485.61 -207.5 484.95 -207.5 484.27 C-210.31 481.99 -210.31 481.99 -213.5 482.27 C-213.5 481.61 -213.5 480.95 -213.5 480.27 C-216.31 477.99 -216.31 477.99 -219.5 478.27 C-219.5 477.61 -219.5 476.95 -219.5 476.27 C-221.48 475.61 -223.46 474.95 -225.5 474.27 C-225.5 473.61 -225.5 472.95 -225.5 472.27 C-227.48 471.61 -229.46 470.95 -231.5 470.27 C-231.5 469.61 -231.5 468.95 -231.5 468.27 C-233.48 467.61 -235.46 466.95 -237.5 466.27 C-237.5 465.61 -237.5 464.95 -237.5 464.27 C-238.59 463.61 -239.68 462.95 -240.81 462.27 C-241.42 461.89 -242.04 461.52 -242.67 461.14 C-244.61 460.05 -244.61 460.05 -247.5 460.27 C-247.5 459.61 -247.5 458.95 -247.5 458.27 C-250.31 455.99 -250.31 455.99 -253.5 456.27 C-253.5 455.61 -253.5 454.95 -253.5 454.27 C-256.31 451.99 -256.31 451.99 -259.5 452.27 C-259.5 451.61 -259.5 450.95 -259.5 450.27 C-262.31 447.99 -262.31 447.99 -265.5 448.27 C-265.5 447.61 -265.5 446.95 -265.5 446.27 C-267.48 445.61 -269.46 444.95 -271.5 444.27 C-271.5 443.61 -271.5 442.95 -271.5 442.27 C-273.48 441.61 -275.46 440.95 -277.5 440.27 C-277.5 439.61 -277.5 438.95 -277.5 438.27 C-279.48 437.61 -281.46 436.95 -283.5 436.27 C-283.5 435.61 -283.5 434.95 -283.5 434.27 C-285.48 433.61 -287.46 432.95 -289.5 432.27 C-289.5 431.61 -289.5 430.95 -289.5 430.27 C-291.48 429.61 -293.46 428.95 -295.5 428.27 C-295.5 427.61 -295.5 426.95 -295.5 426.27 C-297.48 425.61 -299.46 424.95 -301.5 424.27 C-301.5 423.61 -301.5 422.95 -301.5 422.27 C-303.48 421.61 -305.46 420.95 -307.5 420.27 C-307.5 419.61 -307.5 418.95 -307.5 418.27 C-308.49 417.94 -309.48 417.61 -310.5 417.27 Z " fill="#0A1330" transform="translate(419.49609375,1.734375)"/>
<path d="M0 0 C0.99 0.33 1.98 0.66 3 1 C3 1.96 3 2.92 3 3.91 C2.98 60.95 2.96 117.98 2.95 175.02 C2.95 181.87 2.95 188.73 2.95 195.58 C2.94 196.6 2.94 196.6 2.94 197.65 C2.94 219.72 2.93 241.79 2.92 263.87 C2.91 287.21 2.91 310.56 2.91 333.9 C2.9 347.87 2.9 361.85 2.89 375.82 C2.89 385.41 2.89 395 2.89 404.6 C2.89 410.12 2.89 415.65 2.88 421.18 C2.88 426.25 2.88 431.33 2.88 436.4 C2.88 438.22 2.88 440.04 2.88 441.87 C2.87 446.76 2.89 451.64 2.96 456.53 C2.99 458.25 3.01 459.97 3.02 461.69 C3.04 464.41 3.1 467.13 3.17 469.85 C3.17 470.68 3.17 471.5 3.17 472.35 C3.32 476.6 3.77 479.24 6.58 482.53 C9.82 485.54 13.04 488.02 17 490 C17 490.66 17 491.32 17 492 C17.66 492 18.32 492 19 492 C19 492.66 19 493.32 19 494 C19.66 494 20.32 494 21 494 C21 494.66 21 495.32 21 496 C21.66 496 22.32 496 23 496 C23 496.66 23 497.32 23 498 C23.66 498 24.32 498 25 498 C25 498.66 25 499.32 25 500 C25.66 500 26.32 500 27 500 C27 500.66 27 501.32 27 502 C27.66 502 28.32 502 29 502 C29 502.66 29 503.32 29 504 C29.66 504 30.32 504 31 504 C31 504.66 31 505.32 31 506 C31.54 506.25 32.07 506.5 32.62 506.75 C35.56 508.3 38.26 510.13 41 512 C41 512.66 41 513.32 41 514 C44.65 513.42 46.46 511.95 49.12 509.44 C52.79 506 52.79 506 55 506 C55 505.34 55 504.68 55 504 C55.66 504 56.32 504 57 504 C57 503.34 57 502.68 57 502 C57.66 502 58.32 502 59 502 C59 501.34 59 500.68 59 500 C59.66 500 60.32 500 61 500 C61 499.34 61 498.68 61 498 C61.66 498 62.32 498 63 498 C63 497.34 63 496.68 63 496 C63.66 496 64.32 496 65 496 C65 495.34 65 494.68 65 494 C65.66 494 66.32 494 67 494 C67 493.34 67 492.68 67 492 C67.66 492 68.32 492 69 492 C69 491.34 69 490.68 69 490 C69.66 490 70.32 490 71 490 C71 489.34 71 488.68 71 488 C71.66 488 72.32 488 73 488 C73 487.34 73 486.68 73 486 C73.66 486 74.32 486 75 486 C75 485.34 75 484.68 75 484 C76.46 482.6 76.46 482.6 78.38 481.06 C80.84 479.08 82.2 477.69 84 475 C84.99 475.33 85.98 475.66 87 476 C87.23 475.44 87.47 474.88 87.71 474.3 C89.31 471.44 91.29 469.49 93.62 467.19 C94.44 466.38 95.26 465.57 96.1 464.73 C98.24 462.72 100.39 460.8 102.62 458.9 C106.07 455.9 109.32 452.74 112.53 449.5 C113.02 449.01 113.5 448.52 114 448.01 C116.01 445.98 118.01 443.94 120.01 441.89 C125.69 436.1 131.31 430.66 138 426 C137.07 436.34 135.26 446.46 133.19 456.62 C132.83 458.46 132.83 458.46 132.47 460.33 C131.09 466.91 129.96 471.35 125 476 C124.38 476.59 123.75 477.19 123.11 477.8 C122.52 478.3 121.92 478.8 121.31 479.31 C118.22 481.95 115.19 484.64 112.19 487.38 C107.89 491.25 103.47 494.92 98.98 498.56 C90.29 505.67 81.88 513.05 73.68 520.71 C69.56 524.55 65.25 528.1 60.86 531.62 C55.37 536.19 50.2 541.11 45 546 C41.1 545.41 38.92 543.56 35.94 541.06 C34.97 540.25 34 539.44 33 538.6 C29.18 535.29 25.45 531.88 21.73 528.45 C19.14 526.12 16.48 523.93 13.75 521.75 C9.13 518.03 4.81 514.07 0.5 510 C-4.58 505.2 -9.74 500.63 -15.2 496.27 C-19.09 493.12 -22.88 489.87 -26.64 486.57 C-29.57 484.02 -32.52 481.59 -35.68 479.32 C-41.42 475.1 -45.55 471.63 -47.06 464.31 C-47.3 462.35 -47.54 460.38 -47.73 458.41 C-48.17 454.46 -48.89 450.55 -49.56 446.63 C-50.26 442.6 -50.91 438.57 -51.57 434.53 C-52 432.01 -52.49 429.51 -53 427 C-50.18 428.29 -48.04 429.68 -45.79 431.8 C-44.89 432.64 -44.89 432.64 -43.97 433.49 C-43.34 434.09 -42.71 434.69 -42.06 435.31 C-41.07 436.24 -41.07 436.24 -40.07 437.19 C-35.09 441.9 -30.25 446.72 -25.44 451.58 C-22.03 455.01 -18.53 458.25 -14.85 461.37 C-11.98 463.9 -9.33 466.65 -6.66 469.4 C-5.08 471.09 -5.08 471.09 -3 472 C-3 472.66 -3 473.32 -3 474 C-1.68 474.33 -0.36 474.66 1 475 C1.02 429.93 1.03 384.87 1.04 339.8 C1.04 338.8 1.04 338.8 1.04 337.78 C1.05 323.3 1.05 308.81 1.05 294.33 C1.05 287.23 1.05 280.12 1.05 273.02 C1.06 271.96 1.06 271.96 1.06 270.88 C1.06 247.95 1.07 225.03 1.08 202.1 C1.09 178.55 1.09 154.99 1.09 131.44 C1.1 116.26 1.1 101.08 1.11 85.89 C1.11 75.95 1.11 66.01 1.11 56.07 C1.11 50.32 1.11 44.58 1.12 38.84 C1.12 33.59 1.12 28.34 1.12 23.09 C1.12 21.18 1.12 19.27 1.12 17.36 C1.13 14.79 1.13 12.21 1.12 9.63 C1.13 8.5 1.13 8.5 1.13 7.35 C1.18 3.55 1.18 3.55 0 0 Z " fill="#00B8DA" transform="translate(355,124)"/>
<path d="M0 0 C1.32 0.33 2.64 0.66 4 1 C4 1.66 4 2.32 4 3 C4.85 3.37 4.85 3.37 5.71 3.74 C8.41 5.23 10.37 7.02 12.62 9.12 C15.97 12.2 19.36 15.13 22.94 17.94 C27.57 21.58 31.88 25.5 36.21 29.49 C39.81 32.73 43.55 35.75 47.32 38.79 C49.95 40.96 52.48 43.2 55 45.5 C59.36 49.47 63.86 53.22 68.46 56.91 C70.69 58.74 72.77 60.65 74.88 62.62 C77.65 65.23 77.65 65.23 80.28 64.99 C84.06 63.62 86.69 61.21 89.62 58.56 C90.24 58.03 90.85 57.49 91.48 56.94 C93.33 55.3 95.17 53.65 97 52 C97.54 51.52 98.07 51.03 98.62 50.54 C100.97 48.41 103.31 46.27 105.65 44.14 C113.49 37 113.49 37 116 37 C116 36.34 116 35.68 116 35 C117.8 33.41 117.8 33.41 120.31 31.5 C124.2 28.48 127.88 25.34 131.5 22 C135.73 18.1 140.11 14.5 144.65 10.96 C147.73 8.39 150.43 5.54 153.11 2.57 C155.39 0.68 157.13 0.48 160 0 C159.21 4.44 158.42 8.88 157.62 13.31 C157.4 14.56 157.18 15.8 156.95 17.08 C156.51 19.55 156.06 22.02 155.6 24.49 C155.22 26.7 154.9 28.91 154.66 31.13 C154.06 36.1 153.39 39.21 149.65 42.68 C148.25 43.77 146.82 44.84 145.38 45.88 C143.83 47.06 142.28 48.25 140.73 49.44 C139.95 50.03 139.16 50.62 138.35 51.23 C134.69 53.99 131.16 56.9 127.62 59.81 C126.29 60.89 124.96 61.97 123.63 63.05 C119.74 66.21 115.85 69.38 111.98 72.56 C109.62 74.49 107.26 76.42 104.9 78.35 C97.1 84.73 89.39 91.14 82 98 C78.89 97.4 76.92 96.43 74.42 94.52 C73.74 94 73.06 93.48 72.37 92.95 C71.65 92.39 70.93 91.83 70.19 91.25 C69.43 90.67 68.68 90.08 67.9 89.48 C62.35 85.15 57.01 80.61 51.74 75.95 C46.23 71.11 40.46 66.64 34.64 62.18 C29.2 57.98 23.92 53.63 18.77 49.08 C18.25 48.63 17.74 48.18 17.21 47.72 C16.7 47.26 16.19 46.8 15.67 46.33 C14.01 44.92 14.01 44.92 11.95 43.94 C7.83 41.65 6.28 39.87 4.8 35.31 C3.78 30.7 3.14 26.05 2.5 21.38 C2.25 19.75 2 18.12 1.74 16.5 C0 5.18 0 5.18 0 0 Z " fill="#00B8DA" transform="translate(318,635)"/>
<path d="M0 0 C0.39 0.43 0.78 0.87 1.19 1.31 C-0.18 4.47 -0.8 5.31 -3.81 7.31 C-8.25 8.03 -11.79 7.88 -15.75 5.69 C-18.09 3 -18.95 0.75 -19.81 -2.69 C-18.03 -4.47 -15.48 -4.19 -13.06 -4.44 C-11.49 -4.62 -11.49 -4.62 -9.89 -4.8 C-5.54 -4.64 -3.12 -2.91 0 0 Z " fill="#00B8DA" transform="translate(460.8125,72.6875)"/>
<path d="M0 0 C2.4 -0.11 4.79 -0.19 7.19 -0.25 C7.86 -0.28 8.53 -0.32 9.23 -0.35 C12.85 -0.42 14.83 -0.11 17.93 1.83 C20 4 20 4 21 7 C17.73 9.55 15.6 10.93 11.44 11.44 C7 10.87 4.67 9.27 1.19 6.62 C-0.44 4.4 -0.08 2.7 0 0 Z " fill="#00B8DA" transform="translate(644,236)"/>
<path d="M0 0 C0.7 0.01 1.39 0.03 2.11 0.04 C3.83 0.08 5.54 0.13 7.25 0.19 C7.45 3.88 7.5 4.86 5.19 7.94 C1.62 10.67 -0.26 11.19 -4.75 11.19 C-7.57 10.4 -10.06 9.37 -12.75 8.19 C-12.44 5.34 -12.19 3.65 -10.19 1.53 C-6.82 -0.32 -3.73 -0.14 0 0 Z " fill="#00B8DA" transform="translate(146.75,235.8125)"/>
</svg>
