<?xml version="1.0" encoding="UTF-8"?>
<!-- Generator: visioncortex VTracer 0.6.4 -->
<svg version="1.1" xmlns="http://www.w3.org/2000/svg" width="2040" height="452">
<path d="M0 0 C1.39 -0 2.78 -0.01 4.17 -0.01 C7.97 -0.02 11.77 -0 15.57 0.02 C19.67 0.03 23.77 0.03 27.88 0.03 C34.98 0.02 42.09 0.04 49.19 0.06 C59.46 0.09 69.74 0.1 80.01 0.11 C96.67 0.11 113.34 0.14 130.01 0.18 C146.19 0.22 162.38 0.24 178.57 0.26 C179.57 0.26 180.56 0.26 181.59 0.26 C186.6 0.27 191.61 0.27 196.62 0.28 C238.14 0.32 279.67 0.39 321.2 0.48 C321.2 22.92 321.2 45.36 321.2 68.48 C312.02 68.51 302.84 68.53 293.39 68.56 C264.03 68.64 234.68 68.72 205.32 68.81 C200.76 68.83 196.21 68.84 191.65 68.85 C190.74 68.86 189.83 68.86 188.9 68.86 C174.2 68.91 159.49 68.95 144.79 68.99 C129.71 69.03 114.63 69.07 99.55 69.12 C90.24 69.15 80.93 69.17 71.63 69.2 C65.25 69.21 58.87 69.23 52.49 69.25 C48.8 69.27 45.12 69.28 41.44 69.28 C37.45 69.29 33.45 69.31 29.46 69.32 C28.3 69.32 27.13 69.32 25.93 69.33 C24.86 69.33 23.79 69.34 22.69 69.34 C21.76 69.35 20.84 69.35 19.89 69.35 C16.94 69.49 14.11 69.94 11.2 70.48 C11.2 71.14 11.2 71.8 11.2 72.48 C9.7 73.96 9.7 73.96 7.64 75.67 C0.54 81.33 0.54 81.33 -4.8 88.48 C-5.46 88.48 -6.12 88.48 -6.8 88.48 C-6.85 114.76 -6.88 141.04 -6.9 167.31 C-6.91 179.52 -6.93 191.72 -6.95 203.92 C-6.97 214.56 -6.98 225.19 -6.99 235.83 C-6.99 241.46 -7 247.09 -7.01 252.72 C-7.03 258.03 -7.03 263.33 -7.03 268.64 C-7.03 270.58 -7.03 272.52 -7.04 274.46 C-7.11 288.58 -7.11 288.58 -4.8 302.48 C-4.14 302.48 -3.48 302.48 -2.8 302.48 C-2.8 303.14 -2.8 303.8 -2.8 304.48 C-2.14 304.48 -1.48 304.48 -0.8 304.48 C-0.8 305.14 -0.8 305.8 -0.8 306.48 C-0.14 306.48 0.52 306.48 1.2 306.48 C1.2 307.14 1.2 307.8 1.2 308.48 C1.86 308.48 2.52 308.48 3.2 308.48 C3.2 309.14 3.2 309.8 3.2 310.48 C3.86 310.48 4.52 310.48 5.2 310.48 C5.2 311.14 5.2 311.8 5.2 312.48 C5.86 312.48 6.52 312.48 7.2 312.48 C7.2 313.14 7.2 313.8 7.2 314.48 C7.86 314.48 8.52 314.48 9.2 314.48 C9.2 315.14 9.2 315.8 9.2 316.48 C16.47 318.41 23.15 318.76 30.65 318.71 C31.88 318.71 33.11 318.71 34.38 318.71 C37.77 318.71 41.17 318.7 44.56 318.68 C48.23 318.67 51.9 318.67 55.57 318.67 C61.92 318.66 68.27 318.65 74.62 318.63 C83.8 318.61 92.99 318.59 102.17 318.59 C117.08 318.57 131.98 318.55 146.89 318.52 C147.78 318.52 148.67 318.52 149.59 318.52 C155.92 318.51 162.25 318.49 168.57 318.48 C175.81 318.47 183.05 318.45 190.29 318.44 C191.19 318.44 192.08 318.44 193 318.43 C207.86 318.41 222.71 318.39 237.57 318.37 C246.74 318.37 255.9 318.35 265.07 318.32 C271.34 318.31 277.61 318.3 283.89 318.29 C287.51 318.29 291.13 318.28 294.75 318.27 C298.67 318.25 302.59 318.25 306.51 318.25 C307.66 318.25 308.82 318.24 310 318.23 C311.05 318.23 312.09 318.24 313.17 318.24 C314.53 318.24 314.53 318.24 315.91 318.23 C318.2 318.48 318.2 318.48 321.2 320.48 C321.2 342.26 321.2 364.04 321.2 386.48 C318.6 387.78 316.73 387.61 313.82 387.61 C312.67 387.61 311.52 387.62 310.34 387.62 C309.06 387.62 307.79 387.62 306.48 387.61 C305.12 387.62 303.76 387.62 302.4 387.62 C298.66 387.63 294.92 387.63 291.17 387.63 C287.14 387.63 283.1 387.63 279.07 387.64 C271.16 387.64 263.25 387.65 255.35 387.65 C248.92 387.65 242.49 387.65 236.06 387.65 C217.85 387.66 199.63 387.67 181.42 387.67 C180.44 387.67 179.45 387.67 178.44 387.67 C177.46 387.67 176.47 387.67 175.46 387.67 C159.52 387.67 143.58 387.68 127.64 387.69 C111.28 387.7 94.92 387.71 78.56 387.71 C69.37 387.71 60.18 387.71 50.99 387.72 C43.17 387.73 35.34 387.73 27.52 387.73 C23.53 387.72 19.53 387.72 15.54 387.73 C11.89 387.74 8.23 387.74 4.57 387.73 C2.63 387.73 0.68 387.74 -1.27 387.74 C-10.2 387.71 -16.69 386.12 -24.8 382.48 C-24.8 381.82 -24.8 381.16 -24.8 380.48 C-25.46 380.48 -26.12 380.48 -26.8 380.48 C-26.8 379.82 -26.8 379.16 -26.8 378.48 C-27.46 378.48 -28.12 378.48 -28.8 378.48 C-28.8 377.82 -28.8 377.16 -28.8 376.48 C-29.46 376.48 -30.12 376.48 -30.8 376.48 C-30.8 375.82 -30.8 375.16 -30.8 374.48 C-31.46 374.48 -32.12 374.48 -32.8 374.48 C-32.8 373.82 -32.8 373.16 -32.8 372.48 C-33.46 372.48 -34.12 372.48 -34.8 372.48 C-34.8 371.82 -34.8 371.16 -34.8 370.48 C-35.46 370.48 -36.12 370.48 -36.8 370.48 C-36.8 369.82 -36.8 369.16 -36.8 368.48 C-37.46 368.48 -38.12 368.48 -38.8 368.48 C-38.8 367.82 -38.8 367.16 -38.8 366.48 C-39.46 366.48 -40.12 366.48 -40.8 366.48 C-40.8 365.82 -40.8 365.16 -40.8 364.48 C-41.46 364.48 -42.12 364.48 -42.8 364.48 C-42.8 363.82 -42.8 363.16 -42.8 362.48 C-43.46 362.48 -44.12 362.48 -44.8 362.48 C-44.8 361.82 -44.8 361.16 -44.8 360.48 C-45.46 360.48 -46.12 360.48 -46.8 360.48 C-46.8 359.82 -46.8 359.16 -46.8 358.48 C-47.46 358.48 -48.12 358.48 -48.8 358.48 C-48.8 357.82 -48.8 357.16 -48.8 356.48 C-49.46 356.48 -50.12 356.48 -50.8 356.48 C-50.8 355.82 -50.8 355.16 -50.8 354.48 C-51.46 354.48 -52.12 354.48 -52.8 354.48 C-52.8 353.82 -52.8 353.16 -52.8 352.48 C-53.46 352.48 -54.12 352.48 -54.8 352.48 C-54.8 351.82 -54.8 351.16 -54.8 350.48 C-55.46 350.48 -56.12 350.48 -56.8 350.48 C-56.8 349.82 -56.8 349.16 -56.8 348.48 C-57.46 348.48 -58.12 348.48 -58.8 348.48 C-58.8 347.82 -58.8 347.16 -58.8 346.48 C-59.46 346.48 -60.12 346.48 -60.8 346.48 C-60.8 345.82 -60.8 345.16 -60.8 344.48 C-61.46 344.48 -62.12 344.48 -62.8 344.48 C-62.8 343.82 -62.8 343.16 -62.8 342.48 C-63.46 342.48 -64.12 342.48 -64.8 342.48 C-64.8 341.82 -64.8 341.16 -64.8 340.48 C-65.46 340.48 -66.12 340.48 -66.8 340.48 C-66.8 339.82 -66.8 339.16 -66.8 338.48 C-67.46 338.48 -68.12 338.48 -68.8 338.48 C-68.8 337.82 -68.8 337.16 -68.8 336.48 C-69.46 336.48 -70.12 336.48 -70.8 336.48 C-76.04 328.1 -77.1 320.61 -77.07 310.87 C-77.07 309.83 -77.08 308.79 -77.08 307.71 C-77.09 304.22 -77.09 300.73 -77.09 297.25 C-77.1 294.74 -77.1 292.24 -77.11 289.73 C-77.13 283.64 -77.13 277.55 -77.13 271.46 C-77.14 266.5 -77.14 261.55 -77.15 256.59 C-77.16 242.53 -77.17 228.46 -77.17 214.4 C-77.17 213.64 -77.17 212.89 -77.17 212.11 C-77.17 211.35 -77.17 210.59 -77.17 209.81 C-77.17 197.52 -77.19 185.24 -77.22 172.95 C-77.25 160.32 -77.26 147.69 -77.26 135.06 C-77.26 127.98 -77.26 120.89 -77.28 113.81 C-77.3 107.15 -77.3 100.48 -77.29 93.82 C-77.29 91.38 -77.29 88.93 -77.3 86.49 C-77.32 83.15 -77.31 79.81 -77.29 76.47 C-77.3 75.51 -77.32 74.55 -77.33 73.56 C-77.23 64.15 -74.79 55.57 -67.97 48.83 C-67.51 48.36 -67.04 47.89 -66.56 47.4 C-65.05 45.89 -63.52 44.4 -61.98 42.91 C-60.91 41.85 -59.85 40.79 -58.78 39.73 C-56.57 37.52 -54.34 35.33 -52.1 33.14 C-49.23 30.34 -46.38 27.52 -43.53 24.69 C-40.81 21.98 -38.08 19.29 -35.35 16.59 C-34.83 16.08 -34.31 15.56 -33.78 15.03 C-32.31 13.59 -30.84 12.15 -29.37 10.71 C-28.53 9.89 -27.7 9.07 -26.84 8.23 C-24.8 6.48 -24.8 6.48 -22.8 6.48 C-22.8 5.82 -22.8 5.16 -22.8 4.48 C-15.29 0.14 -8.53 -0.08 0 0 Z " fill="#0A1330" transform="translate(76.80018615722656,31.51898193359375)"/>
<path d="M0 0 C7.79 -0.02 15.58 -0.04 23.37 -0.05 C26.98 -0.06 30.6 -0.06 34.21 -0.08 C37.7 -0.09 41.19 -0.09 44.68 -0.09 C46.66 -0.1 48.64 -0.11 50.63 -0.11 C51.83 -0.11 53.03 -0.11 54.27 -0.11 C55.86 -0.12 55.86 -0.12 57.48 -0.12 C60 0 60 0 62 1 C62 76.9 62 152.8 62 231 C62.66 231 63.32 231 64 231 C64.66 229.68 65.32 228.36 66 227 C66.66 227 67.32 227 68 227 C68 226.34 68 225.68 68 225 C68.66 225 69.32 225 70 225 C70 224.34 70 223.68 70 223 C70.66 223 71.32 223 72 223 C72 222.34 72 221.68 72 221 C72.66 221 73.32 221 74 221 C74 220.34 74 219.68 74 219 C74.66 219 75.32 219 76 219 C76 218.34 76 217.68 76 217 C76.66 217 77.32 217 78 217 C78 216.34 78 215.68 78 215 C78.66 215 79.32 215 80 215 C80 214.34 80 213.68 80 213 C80.66 213 81.32 213 82 213 C82 212.34 82 211.68 82 211 C82.66 211 83.32 211 84 211 C84 210.34 84 209.68 84 209 C84.66 209 85.32 209 86 209 C86 208.34 86 207.68 86 207 C86.66 207 87.32 207 88 207 C88 206.34 88 205.68 88 205 C88.66 205 89.32 205 90 205 C90 204.34 90 203.68 90 203 C90.66 203 91.32 203 92 203 C92 202.34 92 201.68 92 201 C92.66 201 93.32 201 94 201 C94 200.34 94 199.68 94 199 C94.66 199 95.32 199 96 199 C96 198.34 96 197.68 96 197 C97.4 195.62 97.4 195.62 99.38 194 C102.75 191.14 105.9 188.15 109 185 C112.56 181.4 116.2 178.02 120.05 174.74 C122.96 172.14 125.64 169.33 128.34 166.5 C130 165 130 165 132 165 C132 164.34 132 163.68 132 163 C132.66 163 133.32 163 134 163 C134 162.34 134 161.68 134 161 C134.66 161 135.32 161 136 161 C136 160.34 136 159.68 136 159 C136.66 159 137.32 159 138 159 C138 158.34 138 157.68 138 157 C138.66 157 139.32 157 140 157 C140 156.34 140 155.68 140 155 C140.66 155 141.32 155 142 155 C142 154.34 142 153.68 142 153 C142.66 153 143.32 153 144 153 C144 152.34 144 151.68 144 151 C144.66 151 145.32 151 146 151 C146 150.34 146 149.68 146 149 C146.66 149 147.32 149 148 149 C148 148.34 148 147.68 148 147 C148.66 147 149.32 147 150 147 C150 146.34 150 145.68 150 145 C150.66 145 151.32 145 152 145 C152 144.34 152 143.68 152 143 C152.66 143 153.32 143 154 143 C154 142.34 154 141.68 154 141 C154.66 141 155.32 141 156 141 C156 140.34 156 139.68 156 139 C157.26 137.73 157.26 137.73 159.12 136.19 C162.02 133.74 164.83 131.25 167.58 128.65 C168.2 128.06 168.83 127.47 169.47 126.86 C170.73 125.67 171.99 124.47 173.25 123.27 C177.78 119 177.78 119 180 119 C180 118.34 180 117.68 180 117 C180.66 117 181.32 117 182 117 C182 116.34 182 115.68 182 115 C182.66 115 183.32 115 184 115 C184 114.34 184 113.68 184 113 C184.66 113 185.32 113 186 113 C186 112.34 186 111.68 186 111 C186.66 111 187.32 111 188 111 C188 110.34 188 109.68 188 109 C213.08 109 238.16 109 264 109 C264 110.32 264 111.64 264 113 C263.34 113 262.68 113 262 113 C262 113.66 262 114.32 262 115 C261.34 115 260.68 115 260 115 C260 115.66 260 116.32 260 117 C259.34 117 258.68 117 258 117 C258 117.66 258 118.32 258 119 C257.34 119 256.68 119 256 119 C256 119.66 256 120.32 256 121 C255.34 121 254.68 121 254 121 C254 121.66 254 122.32 254 123 C253.34 123 252.68 123 252 123 C252 123.66 252 124.32 252 125 C251.34 125 250.68 125 250 125 C250 125.66 250 126.32 250 127 C249.34 127 248.68 127 248 127 C248 127.66 248 128.32 248 129 C247.34 129 246.68 129 246 129 C246 129.66 246 130.32 246 131 C245.34 131 244.68 131 244 131 C244 131.66 244 132.32 244 133 C243.34 133 242.68 133 242 133 C242 133.66 242 134.32 242 135 C241.34 135 240.68 135 240 135 C240 135.66 240 136.32 240 137 C239.34 137 238.68 137 238 137 C238 137.66 238 138.32 238 139 C237.34 139 236.68 139 236 139 C236 139.66 236 140.32 236 141 C235.34 141 234.68 141 234 141 C234 141.66 234 142.32 234 143 C233.34 143 232.68 143 232 143 C232 143.66 232 144.32 232 145 C231.34 145 230.68 145 230 145 C230 145.66 230 146.32 230 147 C229.34 147 228.68 147 228 147 C228 147.66 228 148.32 228 149 C227.34 149 226.68 149 226 149 C226 149.66 226 150.32 226 151 C225.34 151 224.68 151 224 151 C224 151.66 224 152.32 224 153 C223.34 153 222.68 153 222 153 C222 153.66 222 154.32 222 155 C221.34 155 220.68 155 220 155 C220 155.66 220 156.32 220 157 C218.5 158.44 218.5 158.44 216.56 160 C213.85 162.15 213.85 162.15 212 165 C211.34 165 210.68 165 210 165 C210 165.66 210 166.32 210 167 C208.46 168.48 208.46 168.48 206.38 170.19 C203.67 172.48 201.25 174.75 199 177.5 C196.37 180.68 193.48 183.25 190.34 185.92 C186.93 188.95 183.75 192.21 180.56 195.47 C177.94 198.15 175.25 200.67 172.4 203.1 C168.78 206.22 165.4 209.54 162.04 212.93 C161.52 213.46 161 213.99 160.46 214.53 C158.29 216.73 156.13 218.93 153.97 221.13 C152.37 222.76 150.77 224.38 149.16 226 C148.43 226.75 148.43 226.75 147.68 227.52 C146.49 228.72 145.25 229.86 144 231 C143.34 231 142.68 231 142 231 C142 231.66 142 232.32 142 233 C141.34 233 140.68 233 140 233 C140 233.66 140 234.32 140 235 C139.34 235 138.68 235 138 235 C138 235.66 138 236.32 138 237 C137.34 237 136.68 237 136 237 C136 238.32 136 239.64 136 241 C136.66 241 137.32 241 138 241 C139.54 242.72 141.01 244.5 142.44 246.31 C145.45 250.16 145.45 250.16 148.79 253.73 C150 255 150 255 150 257 C150.66 257 151.32 257 152 257 C152 257.66 152 258.32 152 259 C152.66 259 153.32 259 154 259 C154 259.66 154 260.32 154 261 C154.66 261 155.32 261 156 261 C156 261.66 156 262.32 156 263 C156.66 263 157.32 263 158 263 C159.59 264.71 161.1 266.5 162.56 268.31 C163.37 269.3 164.17 270.28 165 271.3 C167 274 167 274 168 277 C168.66 277 169.32 277 170 277 C170 277.66 170 278.32 170 279 C170.66 279 171.32 279 172 279 C172 279.66 172 280.32 172 281 C172.66 281 173.32 281 174 281 C174 281.66 174 282.32 174 283 C174.66 283 175.32 283 176 283 C176 283.66 176 284.32 176 285 C176.66 285 177.32 285 178 285 C179.5 286.68 180.92 288.42 182.31 290.19 C184.7 293.22 187.04 296.04 189.79 298.74 C192 301 192 301 192 303 C192.66 303 193.32 303 194 303 C194 303.66 194 304.32 194 305 C194.66 305 195.32 305 196 305 C196 305.66 196 306.32 196 307 C196.66 307 197.32 307 198 307 C198 307.66 198 308.32 198 309 C198.66 309 199.32 309 200 309 C201.35 310.53 202.63 312.13 203.88 313.75 C205.91 316.4 207.87 318.87 210.26 321.2 C212 323 212 323 212 325 C212.66 325 213.32 325 214 325 C214 325.66 214 326.32 214 327 C214.66 327 215.32 327 216 327 C216 327.66 216 328.32 216 329 C216.66 329 217.32 329 218 329 C218 329.66 218 330.32 218 331 C218.66 331 219.32 331 220 331 C220 331.66 220 332.32 220 333 C220.66 333 221.32 333 222 333 C222 333.66 222 334.32 222 335 C222.66 335 223.32 335 224 335 C225.59 336.71 227.1 338.5 228.56 340.31 C229.37 341.3 230.17 342.28 231 343.3 C233 346 233 346 234 349 C234.66 349 235.32 349 236 349 C236 349.66 236 350.32 236 351 C236.66 351 237.32 351 238 351 C238 351.66 238 352.32 238 353 C238.66 353 239.32 353 240 353 C240 353.66 240 354.32 240 355 C240.66 355 241.32 355 242 355 C242 355.66 242 356.32 242 357 C242.66 357 243.32 357 244 357 C245.62 358.86 245.62 358.86 247.44 361.31 C249.91 364.64 249.91 364.64 252.72 367.67 C254 369 254 369 254 371 C254.66 371 255.32 371 256 371 C256 371.66 256 372.32 256 373 C256.66 373 257.32 373 258 373 C258 373.66 258 374.32 258 375 C258.66 375 259.32 375 260 375 C260 375.66 260 376.32 260 377 C260.66 377 261.32 377 262 377 C262.33 377.99 262.66 378.98 263 380 C261.09 381.91 257.6 381.19 255.01 381.21 C254.27 381.22 253.54 381.23 252.79 381.24 C250.35 381.27 247.92 381.29 245.49 381.31 C244.24 381.32 244.24 381.32 242.97 381.33 C238.58 381.36 234.18 381.39 229.78 381.41 C226.14 381.42 222.51 381.46 218.87 381.51 C214.48 381.57 210.09 381.6 205.7 381.61 C204.02 381.62 202.35 381.64 200.68 381.66 C198.33 381.7 195.99 381.7 193.64 381.7 C192.95 381.72 192.27 381.74 191.56 381.76 C187.51 381.7 185.37 380.81 182.52 378.08 C180 375 180 375 180 373 C179.34 373 178.68 373 178 373 C178 372.34 178 371.68 178 371 C177.34 371 176.68 371 176 371 C176 370.34 176 369.68 176 369 C175.34 369 174.68 369 174 369 C174 368.34 174 367.68 174 367 C173.34 367 172.68 367 172 367 C172 366.34 172 365.68 172 365 C171.34 365 170.68 365 170 365 C170 364.34 170 363.68 170 363 C169.34 363 168.68 363 168 363 C166.45 361.21 166.45 361.21 164.69 358.81 C162.61 356.04 160.58 353.45 158.06 351.06 C157.38 350.38 156.7 349.7 156 349 C156 348.34 156 347.68 156 347 C155.34 347 154.68 347 154 347 C154 346.34 154 345.68 154 345 C153.34 345 152.68 345 152 345 C152 344.34 152 343.68 152 343 C151.34 343 150.68 343 150 343 C150 342.34 150 341.68 150 341 C149.34 341 148.68 341 148 341 C148 340.34 148 339.68 148 339 C147.34 339 146.68 339 146 339 C144.65 337.47 143.37 335.87 142.12 334.25 C140.09 331.6 138.13 329.13 135.74 326.8 C134 325 134 325 134 323 C133.34 323 132.68 323 132 323 C132 322.34 132 321.68 132 321 C131.34 321 130.68 321 130 321 C130 320.34 130 319.68 130 319 C129.34 319 128.68 319 128 319 C126.46 317.28 124.99 315.5 123.56 313.69 C120.55 309.84 120.55 309.84 117.21 306.27 C116 305 116 305 116 303 C115.34 303 114.68 303 114 303 C114 302.34 114 301.68 114 301 C113.34 301 112.68 301 112 301 C112 300.34 112 299.68 112 299 C111.34 299 110.68 299 110 299 C110 298.34 110 297.68 110 297 C109.34 297 108.68 297 108 297 C106.65 295.47 105.37 293.87 104.12 292.25 C102.09 289.6 100.13 287.13 97.74 284.8 C96 283 96 283 96 281 C92.09 281.55 90.41 283.3 87.75 286.12 C84.98 288.99 82.23 291.74 79.19 294.31 C78.59 294.85 77.98 295.38 77.36 295.93 C75.62 297.46 73.83 298.94 72.01 300.4 C66.81 304.81 62.53 308.7 61.66 315.82 C61.46 319.46 61.51 323.06 61.61 326.7 C61.61 328.28 61.6 329.85 61.59 331.43 C61.58 335.53 61.64 339.63 61.71 343.74 C61.79 348.68 61.77 353.63 61.77 358.57 C61.78 366.05 61.9 373.52 62 381 C41.54 381 21.08 381 0 381 C-1.1 377.71 -1.13 375.3 -1.13 371.84 C-1.13 370.54 -1.13 369.24 -1.13 367.9 C-1.13 366.46 -1.13 365.01 -1.13 363.56 C-1.13 362.02 -1.13 360.49 -1.13 358.96 C-1.14 354.74 -1.13 350.51 -1.13 346.29 C-1.13 341.74 -1.13 337.19 -1.13 332.64 C-1.14 323.72 -1.14 314.8 -1.14 305.88 C-1.13 298.63 -1.13 291.39 -1.13 284.14 C-1.13 283.11 -1.13 282.08 -1.13 281.02 C-1.13 278.92 -1.13 276.83 -1.14 274.74 C-1.14 255.09 -1.13 235.45 -1.13 215.81 C-1.12 198.95 -1.13 182.08 -1.13 165.22 C-1.14 145.66 -1.14 126.09 -1.13 106.52 C-1.13 104.44 -1.13 102.35 -1.13 100.26 C-1.13 99.24 -1.13 98.21 -1.13 97.15 C-1.13 89.91 -1.13 82.67 -1.14 75.44 C-1.14 66.61 -1.14 57.79 -1.13 48.97 C-1.13 44.46 -1.13 39.96 -1.13 35.46 C-1.14 31.34 -1.13 27.22 -1.13 23.1 C-1.13 21.6 -1.13 20.11 -1.13 18.62 C-1.13 16.59 -1.13 14.57 -1.13 12.54 C-1.13 11.41 -1.13 10.29 -1.13 9.13 C-1 6.01 -0.58 3.07 0 0 Z " fill="#0A1330" transform="translate(1774,35)"/>
<path d="M0 0 C1.29 -0.01 2.58 -0.02 3.91 -0.03 C5.33 -0.03 6.75 -0.02 8.17 -0.02 C9.67 -0.03 11.17 -0.04 12.68 -0.04 C16.75 -0.06 20.83 -0.07 24.9 -0.07 C27.45 -0.07 30 -0.07 32.55 -0.08 C41.45 -0.1 50.35 -0.1 59.25 -0.1 C67.53 -0.1 75.81 -0.12 84.09 -0.15 C91.21 -0.18 98.34 -0.19 105.46 -0.19 C109.71 -0.19 113.96 -0.2 118.2 -0.22 C122.2 -0.24 126.2 -0.24 130.2 -0.22 C131.66 -0.22 133.12 -0.22 134.58 -0.24 C145.24 -0.32 153.37 0.72 161.31 8.27 C162.13 9.05 162.96 9.82 163.81 10.63 C168.74 15.47 173.63 20.35 178.49 25.27 C179.32 26.09 180.14 26.92 180.99 27.77 C182.77 29.55 184.55 31.33 186.32 33.13 C187.27 34.09 188.23 35.05 189.18 36.02 C189.67 36.51 190.15 37 190.65 37.51 C193.31 40.23 193.31 40.23 196.49 42.27 C196.49 42.93 196.49 43.59 196.49 44.27 C197.15 44.27 197.81 44.27 198.49 44.27 C202.83 51.12 203.61 56.92 203.63 65.06 C203.63 65.71 203.63 66.35 203.63 67.02 C203.64 69.16 203.64 71.31 203.64 73.45 C203.64 75 203.64 76.55 203.65 78.09 C203.66 82.28 203.66 86.47 203.66 90.65 C203.66 93.27 203.66 95.89 203.67 98.5 C203.67 107.64 203.68 116.78 203.68 125.92 C203.68 134.42 203.69 142.93 203.7 151.44 C203.72 158.76 203.72 166.07 203.72 173.39 C203.72 177.75 203.72 182.12 203.73 186.48 C203.74 190.58 203.74 194.69 203.74 198.79 C203.74 200.3 203.74 201.8 203.74 203.3 C203.75 205.36 203.75 207.42 203.74 209.47 C203.74 210.62 203.74 211.77 203.74 212.96 C203.39 217.65 201.97 221.83 200.49 226.27 C199.83 226.27 199.17 226.27 198.49 226.27 C198.49 226.93 198.49 227.59 198.49 228.27 C197.83 228.27 197.17 228.27 196.49 228.27 C196.49 228.93 196.49 229.59 196.49 230.27 C195.83 230.27 195.17 230.27 194.49 230.27 C194.49 230.93 194.49 231.59 194.49 232.27 C193.83 232.27 193.17 232.27 192.49 232.27 C192.49 232.93 192.49 233.59 192.49 234.27 C191.83 234.27 191.17 234.27 190.49 234.27 C190.49 234.93 190.49 235.59 190.49 236.27 C189.83 236.27 189.17 236.27 188.49 236.27 C188.49 236.93 188.49 237.59 188.49 238.27 C187.83 238.27 187.17 238.27 186.49 238.27 C186.49 238.93 186.49 239.59 186.49 240.27 C185.83 240.27 185.17 240.27 184.49 240.27 C184.49 240.93 184.49 241.59 184.49 242.27 C183.83 242.27 183.17 242.27 182.49 242.27 C182.49 242.93 182.49 243.59 182.49 244.27 C181.83 244.27 181.17 244.27 180.49 244.27 C180.49 244.93 180.49 245.59 180.49 246.27 C179.83 246.27 179.17 246.27 178.49 246.27 C178.49 246.93 178.49 247.59 178.49 248.27 C177.83 248.27 177.17 248.27 176.49 248.27 C176.49 248.93 176.49 249.59 176.49 250.27 C175.83 250.27 175.17 250.27 174.49 250.27 C174.49 250.93 174.49 251.59 174.49 252.27 C173.83 252.27 173.17 252.27 172.49 252.27 C172.49 252.93 172.49 253.59 172.49 254.27 C171.83 254.27 171.17 254.27 170.49 254.27 C170.49 254.93 170.49 255.59 170.49 256.27 C169.83 256.27 169.17 256.27 168.49 256.27 C168.49 256.93 168.49 257.59 168.49 258.27 C167.83 258.27 167.17 258.27 166.49 258.27 C166.49 258.93 166.49 259.59 166.49 260.27 C165.83 260.27 165.17 260.27 164.49 260.27 C164.49 260.93 164.49 261.59 164.49 262.27 C163.83 262.27 163.17 262.27 162.49 262.27 C162.49 262.93 162.49 263.59 162.49 264.27 C161.83 264.27 161.17 264.27 160.49 264.27 C160.49 264.93 160.49 265.59 160.49 266.27 C159.83 266.27 159.17 266.27 158.49 266.27 C158.49 266.93 158.49 267.59 158.49 268.27 C151 273.13 143.65 272.84 135.02 272.79 C133.46 272.79 131.89 272.8 130.33 272.81 C126.1 272.82 121.87 272.82 117.64 272.8 C113.2 272.79 108.76 272.8 104.32 272.81 C96.87 272.82 89.42 272.81 81.97 272.79 C73.37 272.77 64.76 272.77 56.16 272.8 C48.76 272.81 41.36 272.82 33.97 272.81 C29.55 272.8 25.14 272.8 20.73 272.81 C16.58 272.82 12.43 272.82 8.28 272.79 C6.76 272.79 5.24 272.79 3.72 272.8 C-4.25 272.84 -10.64 272.72 -17.51 268.27 C-17.51 267.61 -17.51 266.95 -17.51 266.27 C-18.17 266.27 -18.83 266.27 -19.51 266.27 C-19.51 265.61 -19.51 264.95 -19.51 264.27 C-20.17 264.27 -20.83 264.27 -21.51 264.27 C-21.51 263.61 -21.51 262.95 -21.51 262.27 C-22.17 262.27 -22.83 262.27 -23.51 262.27 C-23.51 261.61 -23.51 260.95 -23.51 260.27 C-24.17 260.27 -24.83 260.27 -25.51 260.27 C-25.51 259.61 -25.51 258.95 -25.51 258.27 C-26.17 258.27 -26.83 258.27 -27.51 258.27 C-27.51 257.61 -27.51 256.95 -27.51 256.27 C-28.17 256.27 -28.83 256.27 -29.51 256.27 C-29.51 255.61 -29.51 254.95 -29.51 254.27 C-30.17 254.27 -30.83 254.27 -31.51 254.27 C-31.51 253.61 -31.51 252.95 -31.51 252.27 C-32.17 252.27 -32.83 252.27 -33.51 252.27 C-33.51 251.61 -33.51 250.95 -33.51 250.27 C-34.17 250.27 -34.83 250.27 -35.51 250.27 C-35.51 249.61 -35.51 248.95 -35.51 248.27 C-36.17 248.27 -36.83 248.27 -37.51 248.27 C-37.51 247.61 -37.51 246.95 -37.51 246.27 C-38.17 246.27 -38.83 246.27 -39.51 246.27 C-39.51 245.61 -39.51 244.95 -39.51 244.27 C-40.17 244.27 -40.83 244.27 -41.51 244.27 C-41.51 243.61 -41.51 242.95 -41.51 242.27 C-42.17 242.27 -42.83 242.27 -43.51 242.27 C-43.51 241.61 -43.51 240.95 -43.51 240.27 C-44.17 240.27 -44.83 240.27 -45.51 240.27 C-45.51 239.61 -45.51 238.95 -45.51 238.27 C-46.17 238.27 -46.83 238.27 -47.51 238.27 C-47.51 237.61 -47.51 236.95 -47.51 236.27 C-48.17 236.27 -48.83 236.27 -49.51 236.27 C-49.51 235.61 -49.51 234.95 -49.51 234.27 C-50.17 234.27 -50.83 234.27 -51.51 234.27 C-51.51 233.61 -51.51 232.95 -51.51 232.27 C-52.17 232.27 -52.83 232.27 -53.51 232.27 C-53.51 231.61 -53.51 230.95 -53.51 230.27 C-54.17 230.27 -54.83 230.27 -55.51 230.27 C-55.51 229.61 -55.51 228.95 -55.51 228.27 C-56.17 228.27 -56.83 228.27 -57.51 228.27 C-57.51 227.61 -57.51 226.95 -57.51 226.27 C-58.17 226.27 -58.83 226.27 -59.51 226.27 C-61.46 222.16 -61.76 218.83 -61.78 214.3 C-61.79 213.62 -61.79 212.93 -61.8 212.22 C-61.81 209.92 -61.81 207.61 -61.81 205.31 C-61.82 203.66 -61.83 202.01 -61.84 200.35 C-61.86 195.87 -61.87 191.38 -61.87 186.9 C-61.88 184.09 -61.88 181.29 -61.89 178.49 C-61.92 168.7 -61.93 158.91 -61.93 149.13 C-61.94 140.01 -61.97 130.89 -62.01 121.78 C-62.04 113.95 -62.06 106.12 -62.06 98.28 C-62.06 93.61 -62.07 88.93 -62.1 84.26 C-62.12 79.86 -62.13 75.46 -62.11 71.06 C-62.11 69.45 -62.11 67.84 -62.13 66.23 C-62.22 56.23 -61.64 49.6 -54.55 42.23 C-53.93 41.74 -53.32 41.26 -52.69 40.76 C-48.41 37.21 -44.52 33.39 -40.61 29.44 C-39.9 28.72 -39.18 28 -38.45 27.26 C-36.2 24.99 -33.94 22.72 -31.69 20.45 C-28.71 17.45 -25.73 14.44 -22.74 11.44 C-22.06 10.75 -21.38 10.06 -20.67 9.35 C-20.04 8.71 -19.4 8.07 -18.75 7.41 C-18.19 6.85 -17.64 6.29 -17.07 5.71 C-12.06 1.07 -6.64 0.02 0 0 Z M8.91 64.48 C8.01 65.39 8.01 65.39 7.09 66.31 C6.48 66.94 5.87 67.56 5.24 68.2 C4.62 68.83 3.99 69.45 3.35 70.09 C-1 74.49 -3.76 77.6 -3.76 84.04 C-3.77 85 -3.77 85.96 -3.78 86.94 C-3.77 87.99 -3.77 89.03 -3.77 90.11 C-3.77 91.21 -3.77 92.32 -3.78 93.45 C-3.79 97.11 -3.78 100.76 -3.77 104.42 C-3.77 106.96 -3.78 109.5 -3.78 112.03 C-3.78 117.36 -3.78 122.68 -3.77 128 C-3.76 134.15 -3.76 140.3 -3.77 146.44 C-3.78 152.36 -3.78 158.28 -3.78 164.2 C-3.77 166.72 -3.78 169.23 -3.78 171.75 C-3.79 175.27 -3.78 178.78 -3.77 182.3 C-3.77 183.34 -3.77 184.38 -3.78 185.46 C-3.77 186.42 -3.77 187.38 -3.76 188.37 C-3.76 189.2 -3.76 190.03 -3.76 190.88 C-3.47 193.62 -2.63 195.77 -1.51 198.27 C-0.85 198.27 -0.19 198.27 0.49 198.27 C0.49 198.93 0.49 199.59 0.49 200.27 C1.15 200.27 1.81 200.27 2.49 200.27 C2.49 200.93 2.49 201.59 2.49 202.27 C3.15 202.27 3.81 202.27 4.49 202.27 C4.49 202.93 4.49 203.59 4.49 204.27 C5.15 204.27 5.81 204.27 6.49 204.27 C6.49 204.93 6.49 205.59 6.49 206.27 C7.15 206.27 7.81 206.27 8.49 206.27 C8.49 206.93 8.49 207.59 8.49 208.27 C9.15 208.27 9.81 208.27 10.49 208.27 C10.49 208.93 10.49 209.59 10.49 210.27 C11.15 210.27 11.81 210.27 12.49 210.27 C12.49 210.93 12.49 211.59 12.49 212.27 C15.47 213.97 17.63 214.53 21.04 214.57 C21.95 214.58 22.86 214.6 23.8 214.62 C24.79 214.62 25.77 214.63 26.79 214.64 C27.84 214.65 28.89 214.67 29.97 214.68 C33.44 214.73 36.91 214.75 40.38 214.78 C42.16 214.79 42.16 214.79 43.97 214.81 C50.25 214.86 56.53 214.89 62.81 214.91 C69.29 214.94 75.77 215.02 82.24 215.11 C87.23 215.17 92.22 215.19 97.21 215.2 C99.6 215.21 101.98 215.24 104.37 215.28 C118.87 216.14 118.87 216.14 131.47 210.27 C132.84 208.63 134.18 206.95 135.49 205.27 C136.22 204.64 136.95 204.02 137.7 203.37 C142.17 199.47 145.02 196.69 145.57 190.63 C145.6 188.5 145.58 186.36 145.51 184.23 C145.52 183.06 145.52 181.89 145.52 180.68 C145.51 176.83 145.44 172.99 145.37 169.14 C145.35 166.46 145.34 163.78 145.33 161.11 C145.31 154.79 145.23 148.48 145.14 142.17 C145.04 134.98 144.99 127.79 144.95 120.6 C144.85 105.82 144.69 91.05 144.49 76.27 C143.83 76.27 143.17 76.27 142.49 76.27 C142.49 75.61 142.49 74.95 142.49 74.27 C141.83 74.27 141.17 74.27 140.49 74.27 C140.49 73.61 140.49 72.95 140.49 72.27 C139.83 72.27 139.17 72.27 138.49 72.27 C138.49 71.61 138.49 70.95 138.49 70.27 C137.83 70.27 137.17 70.27 136.49 70.27 C136.49 69.61 136.49 68.95 136.49 68.27 C135.83 68.27 135.17 68.27 134.49 68.27 C134.49 67.61 134.49 66.95 134.49 66.27 C133.83 66.27 133.17 66.27 132.49 66.27 C132.49 65.61 132.49 64.95 132.49 64.27 C131.83 64.27 131.17 64.27 130.49 64.27 C130.49 63.61 130.49 62.95 130.49 62.27 C129.83 62.27 129.17 62.27 128.49 62.27 C128.49 61.61 128.49 60.95 128.49 60.27 C125.54 58.58 123.42 58.02 120.03 58.01 C119.14 58 118.25 57.99 117.33 57.99 C116.37 57.99 115.4 57.99 114.4 57.99 C113.38 57.99 112.35 57.98 111.3 57.98 C107.91 57.96 104.52 57.96 101.13 57.97 C98.77 57.96 96.41 57.96 94.06 57.95 C89.11 57.95 84.17 57.95 79.23 57.95 C72.9 57.96 66.57 57.94 60.24 57.92 C55.37 57.9 50.51 57.9 45.64 57.9 C43.3 57.9 40.97 57.9 38.64 57.89 C35.37 57.88 32.11 57.88 28.84 57.9 C27.88 57.89 26.91 57.88 25.92 57.87 C18.89 57.93 13.99 59.38 8.91 64.48 Z " fill="#0A1330" transform="translate(1199.5074005126953,143.73257446289063)"/>
<path d="M0 0 C1.88 0 3.77 0 5.65 -0 C10.74 -0 15.83 0.02 20.93 0.05 C26.26 0.07 31.58 0.08 36.91 0.08 C47 0.09 57.08 0.13 67.16 0.17 C78.64 0.21 90.13 0.23 101.61 0.25 C125.22 0.29 148.83 0.37 172.45 0.45 C172.45 19.59 172.45 38.73 172.45 58.45 C164.9 58.47 164.9 58.47 157.21 58.48 C140.62 58.52 124.03 58.57 107.43 58.64 C97.37 58.68 87.31 58.71 77.25 58.73 C68.48 58.74 59.71 58.77 50.94 58.81 C46.29 58.83 41.65 58.85 37.01 58.85 C32.64 58.85 28.26 58.86 23.89 58.9 C22.29 58.9 20.69 58.91 19.08 58.9 C16.89 58.89 14.7 58.91 12.51 58.94 C10.67 58.94 10.67 58.94 8.79 58.95 C3.48 59.75 0.41 62.49 -3.3 66.2 C-4.05 66.95 -4.79 67.69 -5.55 68.45 C-6.21 68.45 -6.87 68.45 -7.55 68.45 C-7.55 69.11 -7.55 69.77 -7.55 70.45 C-8.21 70.45 -8.87 70.45 -9.55 70.45 C-9.55 71.11 -9.55 71.77 -9.55 72.45 C-10.21 72.45 -10.87 72.45 -11.55 72.45 C-11.86 73.26 -12.17 74.06 -12.49 74.89 C-13.55 77.45 -13.55 77.45 -14.55 78.45 C-14.65 79.95 -14.68 81.45 -14.68 82.95 C-14.68 83.92 -14.69 84.89 -14.69 85.9 C-14.69 86.97 -14.69 88.05 -14.68 89.15 C-14.69 90.28 -14.69 91.4 -14.69 92.56 C-14.69 96.3 -14.69 100.04 -14.69 103.79 C-14.69 106.38 -14.69 108.97 -14.69 111.56 C-14.69 116.99 -14.69 122.43 -14.69 127.87 C-14.68 134.16 -14.68 140.44 -14.69 146.73 C-14.69 152.77 -14.69 158.82 -14.69 164.86 C-14.69 167.43 -14.69 170.01 -14.69 172.58 C-14.69 176.18 -14.69 179.77 -14.68 183.37 C-14.69 184.44 -14.69 185.5 -14.69 186.61 C-14.69 187.59 -14.68 188.57 -14.68 189.58 C-14.68 190.43 -14.68 191.28 -14.68 192.15 C-14.56 194.38 -14.18 196.32 -13.55 198.45 C-12.89 198.45 -12.23 198.45 -11.55 198.45 C-11.55 199.11 -11.55 199.77 -11.55 200.45 C-10.89 200.45 -10.23 200.45 -9.55 200.45 C-9.55 201.11 -9.55 201.77 -9.55 202.45 C-8.89 202.45 -8.23 202.45 -7.55 202.45 C-7.55 203.11 -7.55 203.77 -7.55 204.45 C-6.89 204.45 -6.23 204.45 -5.55 204.45 C-5.55 205.11 -5.55 205.77 -5.55 206.45 C-4.89 206.45 -4.23 206.45 -3.55 206.45 C-3.55 207.11 -3.55 207.77 -3.55 208.45 C-2.89 208.45 -2.23 208.45 -1.55 208.45 C-1.55 209.11 -1.55 209.77 -1.55 210.45 C-0.89 210.45 -0.23 210.45 0.45 210.45 C0.45 211.11 0.45 211.77 0.45 212.45 C3.9 213.6 6.58 213.59 10.22 213.61 C10.91 213.62 11.61 213.62 12.32 213.63 C14.65 213.64 16.97 213.65 19.3 213.66 C20.96 213.67 22.63 213.68 24.3 213.69 C28.82 213.72 33.35 213.74 37.88 213.76 C42.6 213.78 47.33 213.81 52.06 213.83 C61.02 213.88 69.97 213.93 78.93 213.97 C89.13 214.02 99.32 214.08 109.52 214.13 C130.49 214.25 151.47 214.35 172.45 214.45 C172.45 233.59 172.45 252.73 172.45 272.45 C147.29 272.54 122.13 272.62 96.98 272.66 C85.3 272.68 73.61 272.71 61.93 272.76 C51.75 272.8 41.57 272.82 31.39 272.83 C26 272.84 20.61 272.85 15.22 272.88 C10.14 272.9 5.07 272.91 -0.01 272.91 C-1.87 272.91 -3.73 272.92 -5.59 272.93 C-8.14 272.95 -10.68 272.95 -13.23 272.94 C-13.96 272.95 -14.69 272.96 -15.44 272.97 C-21.04 272.91 -24.69 271.21 -29.55 268.45 C-29.55 267.79 -29.55 267.13 -29.55 266.45 C-30.21 266.45 -30.87 266.45 -31.55 266.45 C-31.55 265.79 -31.55 265.13 -31.55 264.45 C-32.21 264.45 -32.87 264.45 -33.55 264.45 C-33.55 263.79 -33.55 263.13 -33.55 262.45 C-34.21 262.45 -34.87 262.45 -35.55 262.45 C-35.55 261.79 -35.55 261.13 -35.55 260.45 C-36.21 260.45 -36.87 260.45 -37.55 260.45 C-37.55 259.79 -37.55 259.13 -37.55 258.45 C-38.21 258.45 -38.87 258.45 -39.55 258.45 C-39.55 257.79 -39.55 257.13 -39.55 256.45 C-40.21 256.45 -40.87 256.45 -41.55 256.45 C-41.55 255.79 -41.55 255.13 -41.55 254.45 C-42.21 254.45 -42.87 254.45 -43.55 254.45 C-43.55 253.79 -43.55 253.13 -43.55 252.45 C-44.21 252.45 -44.87 252.45 -45.55 252.45 C-45.55 251.79 -45.55 251.13 -45.55 250.45 C-46.21 250.45 -46.87 250.45 -47.55 250.45 C-47.55 249.79 -47.55 249.13 -47.55 248.45 C-48.21 248.45 -48.87 248.45 -49.55 248.45 C-49.55 247.79 -49.55 247.13 -49.55 246.45 C-50.21 246.45 -50.87 246.45 -51.55 246.45 C-51.55 245.79 -51.55 245.13 -51.55 244.45 C-52.21 244.45 -52.87 244.45 -53.55 244.45 C-53.55 243.79 -53.55 243.13 -53.55 242.45 C-54.21 242.45 -54.87 242.45 -55.55 242.45 C-55.55 241.79 -55.55 241.13 -55.55 240.45 C-56.21 240.45 -56.87 240.45 -57.55 240.45 C-57.55 239.79 -57.55 239.13 -57.55 238.45 C-58.21 238.45 -58.87 238.45 -59.55 238.45 C-59.55 237.79 -59.55 237.13 -59.55 236.45 C-60.21 236.45 -60.87 236.45 -61.55 236.45 C-61.55 235.79 -61.55 235.13 -61.55 234.45 C-62.21 234.45 -62.87 234.45 -63.55 234.45 C-63.55 233.79 -63.55 233.13 -63.55 232.45 C-64.21 232.45 -64.87 232.45 -65.55 232.45 C-65.55 231.79 -65.55 231.13 -65.55 230.45 C-66.21 230.45 -66.87 230.45 -67.55 230.45 C-67.55 229.79 -67.55 229.13 -67.55 228.45 C-68.21 228.45 -68.87 228.45 -69.55 228.45 C-69.55 227.79 -69.55 227.13 -69.55 226.45 C-70.21 226.45 -70.87 226.45 -71.55 226.45 C-73.51 222.34 -73.81 219.01 -73.82 214.48 C-73.83 213.79 -73.83 213.1 -73.84 212.39 C-73.85 210.08 -73.85 207.77 -73.85 205.47 C-73.85 203.81 -73.86 202.16 -73.87 200.5 C-73.88 196.01 -73.89 191.51 -73.89 187.02 C-73.89 184.21 -73.9 181.4 -73.9 178.59 C-73.92 168.8 -73.93 159 -73.93 149.2 C-73.92 140.07 -73.95 130.94 -73.98 121.81 C-74 113.97 -74.01 106.12 -74.01 98.28 C-74.01 93.6 -74.02 88.92 -74.04 84.23 C-74.06 79.83 -74.06 75.43 -74.04 71.02 C-74.04 69.41 -74.05 67.79 -74.06 66.18 C-74.07 63.97 -74.06 61.77 -74.05 59.56 C-74.05 58.32 -74.05 57.09 -74.05 55.82 C-73.18 49.93 -69.45 46.1 -65.39 41.98 C-64.17 40.74 -64.17 40.74 -62.93 39.47 C-62.06 38.6 -61.19 37.72 -60.29 36.82 C-59.39 35.91 -58.48 34.99 -57.55 34.05 C-55.64 32.12 -53.72 30.2 -51.8 28.28 C-49.36 25.83 -46.94 23.37 -44.52 20.9 C-42.18 18.53 -39.83 16.18 -37.48 13.82 C-36.62 12.94 -35.76 12.06 -34.88 11.16 C-34.05 10.34 -33.22 9.51 -32.37 8.67 C-31.65 7.95 -30.94 7.23 -30.2 6.49 C-20.89 -0.66 -11.25 -0.09 0 0 Z " fill="#0A1330" transform="translate(1533.554931640625,143.5458984375)"/>
<path d="M0 0 C22.44 0 44.88 0 68 0 C68 127.38 68 254.76 68 386 C65.24 387.38 63.02 387.13 59.93 387.13 C58.65 387.13 57.38 387.14 56.07 387.14 C54.67 387.14 53.27 387.14 51.88 387.13 C50.45 387.13 49.02 387.13 47.59 387.14 C44.6 387.14 41.61 387.14 38.62 387.13 C34.77 387.12 30.93 387.13 27.09 387.13 C24.15 387.14 21.2 387.14 18.25 387.13 C16.84 387.13 15.42 387.13 14 387.14 C12.03 387.14 10.05 387.13 8.07 387.13 C6.38 387.13 6.38 387.13 4.66 387.13 C2 387 2 387 0 386 C0 258.62 0 131.24 0 0 Z " fill="#0A1330" transform="translate(488,32)"/>
<path d="M0 0 C1.8 0 1.8 0 3.64 0 C4.94 0.01 6.24 0.01 7.59 0.02 C8.93 0.02 10.27 0.02 11.61 0.02 C15.15 0.02 18.68 0.03 22.22 0.04 C25.82 0.06 29.43 0.06 33.03 0.06 C40.11 0.08 47.19 0.09 54.27 0.11 C54.27 1.1 54.27 1.1 54.27 2.11 C54.33 41.09 54.4 80.07 54.49 119.05 C54.51 123.73 54.52 128.41 54.53 133.08 C54.53 134.02 54.53 134.95 54.53 135.91 C54.57 151 54.59 166.09 54.62 181.17 C54.64 196.65 54.67 212.13 54.71 227.61 C54.74 237.16 54.76 246.72 54.76 256.27 C54.77 262.82 54.79 269.37 54.81 275.92 C54.82 279.7 54.83 283.48 54.83 287.26 C54.83 291.35 54.85 295.45 54.87 299.55 C54.86 300.74 54.86 301.94 54.85 303.17 C54.89 311.07 54.89 311.07 58.27 318.11 C58.93 318.44 59.59 318.77 60.27 319.11 C60.27 319.77 60.27 320.43 60.27 321.11 C69.51 321.11 78.75 321.11 88.27 321.11 C88.27 341.24 88.27 361.37 88.27 382.11 C85.76 383.37 84.01 383.26 81.21 383.29 C80.15 383.3 79.1 383.32 78.01 383.33 C76.86 383.34 75.72 383.34 74.54 383.35 C73.36 383.36 72.19 383.37 70.97 383.38 C68.48 383.39 65.98 383.4 63.48 383.41 C59.68 383.43 55.87 383.47 52.07 383.51 C49.64 383.52 47.21 383.53 44.79 383.54 C43.65 383.56 42.52 383.57 41.35 383.59 C34.51 383.57 30.12 382.71 24.27 379.11 C24.27 378.45 24.27 377.79 24.27 377.11 C23.61 377.11 22.95 377.11 22.27 377.11 C22.27 376.45 22.27 375.79 22.27 375.11 C21.61 375.11 20.95 375.11 20.27 375.11 C20.27 374.45 20.27 373.79 20.27 373.11 C19.12 372.68 19.12 372.68 17.95 372.24 C15.27 371.11 15.27 371.11 12.27 369.11 C12.27 368.45 12.27 367.79 12.27 367.11 C11.61 367.11 10.95 367.11 10.27 367.11 C10.27 366.45 10.27 365.79 10.27 365.11 C9.61 365.11 8.95 365.11 8.27 365.11 C8.27 364.45 8.27 363.79 8.27 363.11 C7.46 362.74 7.46 362.74 6.64 362.36 C3.7 360.82 1.01 358.98 -1.73 357.11 C-1.73 356.45 -1.73 355.79 -1.73 355.11 C-2.39 355.11 -3.05 355.11 -3.73 355.11 C-3.73 354.45 -3.73 353.79 -3.73 353.11 C-4.39 353.11 -5.05 353.11 -5.73 353.11 C-7.78 349.72 -7.98 347.12 -7.98 343.19 C-7.98 341.97 -7.99 340.75 -7.99 339.49 C-7.99 338.13 -7.98 336.78 -7.98 335.42 C-7.98 333.98 -7.98 332.54 -7.98 331.1 C-7.99 327.15 -7.98 323.19 -7.97 319.23 C-7.96 314.96 -7.96 310.69 -7.96 306.43 C-7.96 299.03 -7.96 291.64 -7.95 284.24 C-7.93 273.55 -7.92 262.86 -7.92 252.17 C-7.92 234.82 -7.9 217.48 -7.89 200.13 C-7.87 183.28 -7.85 166.43 -7.84 149.58 C-7.84 148.54 -7.84 147.5 -7.84 146.43 C-7.84 141.22 -7.84 136.01 -7.84 130.8 C-7.81 87.57 -7.78 44.34 -7.73 1.11 C-5.05 -0.23 -3 -0.01 0 0 Z " fill="#0A1330" transform="translate(1011.73486328125,34.886474609375)"/>
<path d="M0 0 C0.82 0.03 1.65 0.06 2.49 0.09 C8.33 0.39 8.33 0.39 10.56 2.62 C9.9 4.28 9.24 5.93 8.56 7.62 C7.9 7.62 7.24 7.62 6.56 7.62 C6.48 8.45 6.4 9.28 6.31 10.12 C5.53 13.77 4.27 16.45 2.5 19.7 C1.55 21.66 1.02 23.5 0.56 25.62 C-0.1 25.62 -0.76 25.62 -1.44 25.62 C-1.59 26.86 -1.59 26.86 -1.75 28.12 C-2.55 32.22 -3.9 35.75 -5.44 39.62 C-6.1 39.62 -6.76 39.62 -7.44 39.62 C-7.52 40.45 -7.6 41.27 -7.69 42.12 C-8.47 45.77 -9.73 48.45 -11.5 51.7 C-12.45 53.66 -12.98 55.5 -13.44 57.62 C-14.1 57.62 -14.76 57.62 -15.44 57.62 C-15.59 58.86 -15.59 58.86 -15.75 60.12 C-16.55 64.22 -17.9 67.75 -19.44 71.62 C-20.1 71.62 -20.76 71.62 -21.44 71.62 C-21.55 72.31 -21.66 72.99 -21.78 73.7 C-22.55 77.1 -23.72 80.19 -25 83.44 C-25.46 84.6 -25.91 85.76 -26.38 86.96 C-26.9 88.28 -26.9 88.28 -27.44 89.62 C-28.1 89.62 -28.76 89.62 -29.44 89.62 C-29.6 90.94 -29.6 90.94 -29.77 92.28 C-30.46 95.72 -31.53 98.11 -33.19 101.19 C-35.94 106.5 -38.13 111.86 -40.22 117.45 C-42.59 123.64 -45.38 129.63 -48.44 135.5 C-50.76 140.03 -52.45 144.8 -54.19 149.57 C-55.38 152.48 -56.82 154.94 -58.44 157.62 C-59.27 159.65 -60.06 161.69 -60.81 163.75 C-63.89 171.92 -67.46 179.73 -71.44 187.5 C-74.03 192.63 -76.1 197.85 -78.11 203.24 C-79.74 207.4 -81.63 211.42 -83.56 215.45 C-86.69 222.04 -89.52 228.75 -92.33 235.48 C-94.13 239.74 -96.03 243.67 -98.44 247.62 C-99.27 249.67 -100.06 251.74 -100.81 253.81 C-102.67 258.76 -104.77 263.43 -107.2 268.12 C-108.53 270.81 -109.68 273.53 -110.81 276.31 C-112.68 280.88 -114.69 285.36 -116.81 289.81 C-119.37 295.2 -121.71 300.65 -123.94 306.19 C-126.58 312.73 -129.53 319 -132.74 325.28 C-136.25 332.19 -139.55 339.2 -142.31 346.44 C-144.33 351.64 -146.89 356.54 -149.43 361.51 C-152.13 366.84 -154.33 372.22 -156.33 377.86 C-157.45 380.66 -158.87 383.05 -160.44 385.62 C-161.08 387.13 -161.68 388.65 -162.25 390.19 C-163.75 394.07 -165.47 397.74 -167.38 401.44 C-170.09 406.74 -172.24 412.12 -174.26 417.71 C-175.44 420.62 -175.44 420.62 -176.93 423.11 C-178.63 425.95 -179.69 428.77 -180.81 431.88 C-182.65 436.78 -184.71 441.25 -187.42 445.72 C-188.67 447.88 -188.67 447.88 -189.44 451.62 C-205.28 451.62 -221.12 451.62 -237.44 451.62 C-237.44 446.51 -236.51 444.18 -234.44 439.62 C-234.06 438.3 -233.71 436.97 -233.44 435.62 C-232.78 435.62 -232.12 435.62 -231.44 435.62 C-231.44 434.31 -231.44 432.99 -231.44 431.62 C-230.78 431.62 -230.12 431.62 -229.44 431.62 C-229.29 430.72 -229.15 429.81 -229 428.88 C-228.57 426.41 -228.09 424.04 -227.44 421.62 C-226.78 421.62 -226.12 421.62 -225.44 421.62 C-225.44 420.31 -225.44 418.99 -225.44 417.62 C-224.78 417.62 -224.12 417.62 -223.44 417.62 C-223.44 416.31 -223.44 414.99 -223.44 413.62 C-222.78 413.62 -222.12 413.62 -221.44 413.62 C-221.33 412.8 -221.23 411.98 -221.12 411.12 C-220.32 407.03 -218.97 403.5 -217.44 399.62 C-216.78 399.62 -216.12 399.62 -215.44 399.62 C-215.33 398.96 -215.23 398.31 -215.12 397.62 C-213.86 392.09 -211.57 386.87 -209.44 381.62 C-208.78 381.62 -208.12 381.62 -207.44 381.62 C-207.33 380.94 -207.21 380.26 -207.1 379.55 C-206.33 376.15 -205.15 373.06 -203.88 369.81 C-203.42 368.65 -202.96 367.49 -202.5 366.29 C-201.97 364.97 -201.97 364.97 -201.44 363.62 C-200.78 363.62 -200.12 363.62 -199.44 363.62 C-199.33 362.99 -199.23 362.35 -199.12 361.69 C-198.2 357.56 -196.82 353.62 -195.44 349.62 C-194.78 349.62 -194.12 349.62 -193.44 349.62 C-193.27 348.6 -193.27 348.6 -193.1 347.55 C-192.33 344.15 -191.15 341.06 -189.88 337.81 C-189.42 336.65 -188.96 335.49 -188.5 334.29 C-187.97 332.97 -187.97 332.97 -187.44 331.62 C-186.78 331.62 -186.12 331.62 -185.44 331.62 C-185.44 330.31 -185.44 328.99 -185.44 327.62 C-184.78 327.62 -184.12 327.62 -183.44 327.62 C-183.33 326.99 -183.23 326.35 -183.12 325.69 C-182.2 321.56 -180.82 317.62 -179.44 313.62 C-178.78 313.62 -178.12 313.62 -177.44 313.62 C-177.44 312.31 -177.44 310.99 -177.44 309.62 C-176.78 309.62 -176.12 309.62 -175.44 309.62 C-175.44 308.31 -175.44 306.99 -175.44 305.62 C-174.78 305.62 -174.12 305.62 -173.44 305.62 C-173.33 304.99 -173.23 304.35 -173.12 303.69 C-172.2 299.56 -170.82 295.62 -169.44 291.62 C-168.78 291.62 -168.12 291.62 -167.44 291.62 C-167.33 291.11 -167.21 290.6 -167.1 290.08 C-166.21 286.78 -165.04 283.59 -163.88 280.38 C-163.64 279.73 -163.41 279.08 -163.17 278.41 C-162.59 276.81 -162.01 275.22 -161.44 273.62 C-160.78 273.62 -160.12 273.62 -159.44 273.62 C-159.33 273.11 -159.21 272.6 -159.1 272.08 C-158.21 268.78 -157.04 265.59 -155.88 262.38 C-155.64 261.73 -155.41 261.08 -155.17 260.41 C-154.59 258.81 -154.01 257.22 -153.44 255.62 C-152.78 255.62 -152.12 255.62 -151.44 255.62 C-151.44 254.31 -151.44 252.99 -151.44 251.62 C-150.78 251.62 -150.12 251.62 -149.44 251.62 C-149.26 250.56 -149.26 250.56 -149.08 249.48 C-148.4 246.46 -147.4 243.84 -146.19 241 C-145.74 239.96 -145.3 238.91 -144.84 237.84 C-143.1 233.86 -141.3 229.92 -139.45 226 C-138.54 223.87 -137.92 221.88 -137.44 219.62 C-136.78 219.62 -136.12 219.62 -135.44 219.62 C-135.32 219.1 -135.21 218.57 -135.09 218.03 C-134.26 214.99 -133.14 212.12 -132 209.19 C-131.57 208.08 -131.14 206.96 -130.69 205.82 C-129.62 203.08 -128.53 200.35 -127.44 197.62 C-126.78 197.62 -126.12 197.62 -125.44 197.62 C-125.26 196.56 -125.26 196.56 -125.08 195.48 C-122.74 185.05 -117.04 174.67 -112.19 165.19 C-110.86 162.48 -110.07 160.49 -109.44 157.62 C-108.78 157.62 -108.12 157.62 -107.44 157.62 C-107.36 156.8 -107.27 155.97 -107.19 155.12 C-106.46 151.71 -105.24 149.1 -103.61 146.04 C-101.66 142.04 -100.21 137.85 -98.68 133.68 C-97.44 130.62 -97.44 130.62 -95.94 128.14 C-94.2 125.23 -93.1 122.31 -91.94 119.12 C-90.43 114.98 -88.74 111.39 -86.44 107.62 C-85.76 106.04 -85.11 104.43 -84.5 102.81 C-83.3 99.72 -82.04 96.75 -80.5 93.81 C-78.14 89.26 -76.44 84.48 -74.68 79.68 C-73.5 76.77 -72.07 74.3 -70.44 71.62 C-69.76 70.04 -69.11 68.43 -68.5 66.81 C-67.3 63.72 -66.04 60.75 -64.5 57.81 C-62.14 53.26 -60.44 48.48 -58.68 43.68 C-57.44 40.63 -57.44 40.63 -55.93 38.13 C-54.21 35.23 -53.24 32.39 -52.19 29.19 C-49.56 21.62 -46.14 14.72 -42.44 7.62 C-41.91 6.52 -41.39 5.42 -40.85 4.28 C-39.44 1.62 -39.44 1.62 -37.44 0.62 C-25.27 -1.53 -12.29 -0.54 0 0 Z " fill="#0A1330" transform="translate(905.4375,0.375)"/>
</svg>
